<?xml version="1.0" encoding="UTF-8"?>
<svg xmlns="http://www.w3.org/2000/svg" width="953" height="276" viewBox="0 0 953 276" font-family="IBM Plex Mono, Menlo, Consolas, monospace"><title>The shape of the tape — Census, Redistricting, and Elections on October 2, 2026</title><rect width="953" height="276" fill="#ffffff"/><text x="16" y="26" font-size="13" font-weight="700" fill="#0f172a">The shape of the tape — Census, Redistricting, and Elections on October 2, 2026</text><svg x="36" y="44" width="880" height="168" viewBox="-100 0 990 168"><rect x="0" y="56" width="880" height="90" fill="#F3EEE3" rx="4"/><rect x="-6" y="57" width="4" height="7" fill="#A97A16"/><text x="-12" y="64" font-size="9" fill="#4B473E" text-anchor="end" style="font-family:var(--font-mono)">financial</text><path class="bs-lane" data-lens="financial" d="M102.7,60.5h14.1v4.5h-14.1zM146.7,60.5h14.1v4.5h-14.1zM249.3,60.5h14.1v4.5h-14.1zM308,60.5h14.1v4.5h-14.1zM322.7,60.5h14.1v4.5h-14.1zM616,60.5h14.1v4.5h-14.1zM630.7,60.5h14.1v4.5h-14.1zM704,56h14.1v9h-14.1zM718.7,60.5h14.1v4.5h-14.1zM748,60.5h14.1v4.5h-14.1zM777.3,60.5h14.1v4.5h-14.1zM792,60.5h14.1v4.5h-14.1zM821.3,60.5h14.1v4.5h-14.1z" fill="#A97A16" opacity=".55"><title>financial — 14 words, where they fell along the tape</title></path><rect x="-6" y="68" width="4" height="7" fill="#B0542D"/><text x="-12" y="75" font-size="9" fill="#4B473E" text-anchor="end" style="font-family:var(--font-mono)">safety</text><path class="bs-lane" data-lens="safety" d="M58.7,72.4h14.1v3.6h-14.1zM88,74h14.1v2h-14.1zM205.3,74h14.1v2h-14.1zM337.3,74h14.1v2h-14.1zM645.3,74h14.1v2h-14.1zM660,74h14.1v2h-14.1zM674.7,74h14.1v2h-14.1zM718.7,74h14.1v2h-14.1zM733.3,74h14.1v2h-14.1zM748,67h14.1v9h-14.1zM777.3,72.4h14.1v3.6h-14.1zM792,74h14.1v2h-14.1z" fill="#B0542D" opacity=".55"><title>safety — 18 words, where they fell along the tape</title></path><rect x="-6" y="79" width="4" height="7" fill="#3FA9D0"/><text x="-12" y="86" font-size="9" fill="#4B473E" text-anchor="end" style="font-family:var(--font-mono)">community</text><path class="bs-lane" data-lens="community" d="M14.7,84.8h14.1v2.3h-14.1zM29.3,84.8h14.1v2.3h-14.1zM44,83.6h14.1v3.4h-14.1zM58.7,85h14.1v2h-14.1zM88,85h14.1v2h-14.1zM102.7,85h14.1v2h-14.1zM117.3,85h14.1v2h-14.1zM132,80.3h14.1v6.8h-14.1zM146.7,82.5h14.1v4.5h-14.1zM161.3,84.8h14.1v2.3h-14.1zM205.3,83.6h14.1v3.4h-14.1zM234.7,85h14.1v2h-14.1zM264,85h14.1v2h-14.1zM293.3,82.5h14.1v4.5h-14.1zM308,85h14.1v2h-14.1zM322.7,85h14.1v2h-14.1zM337.3,84.8h14.1v2.3h-14.1zM352,85h14.1v2h-14.1zM381.3,85h14.1v2h-14.1zM396,85h14.1v2h-14.1zM410.7,85h14.1v2h-14.1zM484,78h14.1v9h-14.1zM498.7,84.8h14.1v2.3h-14.1zM557.3,85h14.1v2h-14.1zM572,85h14.1v2h-14.1zM601.3,85h14.1v2h-14.1zM616,85h14.1v2h-14.1zM645.3,85h14.1v2h-14.1zM660,85h14.1v2h-14.1zM674.7,85h14.1v2h-14.1zM689.3,85h14.1v2h-14.1zM718.7,84.8h14.1v2.3h-14.1zM733.3,82.5h14.1v4.5h-14.1zM762.7,83.6h14.1v3.4h-14.1zM777.3,85h14.1v2h-14.1zM821.3,84.8h14.1v2.3h-14.1zM836,85h14.1v2h-14.1zM850.7,85h14.1v2h-14.1zM865.3,85h14.1v2h-14.1z" fill="#3FA9D0" opacity=".55"><title>community — 73 words, where they fell along the tape</title></path><rect x="-6" y="90" width="4" height="7" fill="#1E7F63"/><text x="-12" y="97" font-size="9" fill="#4B473E" text-anchor="end" style="font-family:var(--font-mono)">environmental</text><path class="bs-lane" data-lens="environmental" d="M190.7,93.5h14.1v4.5h-14.1zM220,89h14.1v9h-14.1zM264,93.5h14.1v4.5h-14.1zM689.3,93.5h14.1v4.5h-14.1zM733.3,93.5h14.1v4.5h-14.1zM748,93.5h14.1v4.5h-14.1zM762.7,93.5h14.1v4.5h-14.1zM865.3,93.5h14.1v4.5h-14.1z" fill="#1E7F63" opacity=".55"><title>environmental — 9 words, where they fell along the tape</title></path><rect x="-6" y="101" width="4" height="7" fill="#7E5B8E"/><text x="-12" y="108" font-size="9" fill="#4B473E" text-anchor="end" style="font-family:var(--font-mono)">legal</text><path class="bs-lane" data-lens="legal" d="M29.3,106h14.1v3h-14.1zM44,106h14.1v3h-14.1zM58.7,106h14.1v3h-14.1zM88,106h14.1v3h-14.1zM190.7,103h14.1v6h-14.1zM220,106h14.1v3h-14.1zM410.7,106h14.1v3h-14.1zM498.7,106h14.1v3h-14.1zM542.7,106h14.1v3h-14.1zM689.3,106h14.1v3h-14.1zM718.7,106h14.1v3h-14.1zM733.3,106h14.1v3h-14.1zM777.3,106h14.1v3h-14.1zM792,100h14.1v9h-14.1zM806.7,100h14.1v9h-14.1zM821.3,106h14.1v3h-14.1zM850.7,106h14.1v3h-14.1z" fill="#7E5B8E" opacity=".55"><title>legal — 22 words, where they fell along the tape</title></path><rect x="-6" y="112" width="4" height="7" fill="#C77BA6"/><text x="-12" y="119" font-size="9" fill="#4B473E" text-anchor="end" style="font-family:var(--font-mono)">equity</text><path class="bs-lane" data-lens="equity" d="M0,117h14.1v3h-14.1zM14.7,118h14.1v2h-14.1zM44,118h14.1v2h-14.1zM88,118h14.1v2h-14.1zM102.7,118h14.1v2h-14.1zM117.3,117h14.1v3h-14.1zM161.3,111h14.1v9h-14.1zM176,117h14.1v3h-14.1zM190.7,118h14.1v2h-14.1zM205.3,117h14.1v3h-14.1zM220,117h14.1v3h-14.1zM293.3,118h14.1v2h-14.1zM396,118h14.1v2h-14.1zM410.7,118h14.1v2h-14.1zM425.3,117h14.1v3h-14.1zM440,111h14.1v9h-14.1zM454.7,118h14.1v2h-14.1zM513.3,118h14.1v2h-14.1zM528,117h14.1v3h-14.1zM542.7,118h14.1v2h-14.1zM557.3,118h14.1v2h-14.1zM572,117h14.1v3h-14.1zM586.7,118h14.1v2h-14.1zM630.7,115.5h14.1v4.5h-14.1zM674.7,118h14.1v2h-14.1zM718.7,118h14.1v2h-14.1zM762.7,118h14.1v2h-14.1zM777.3,118h14.1v2h-14.1zM865.3,118h14.1v2h-14.1z" fill="#C77BA6" opacity=".55"><title>equity — 49 words, where they fell along the tape</title></path><rect x="-6" y="123" width="4" height="7" fill="#B08968"/><text x="-12" y="130" font-size="9" fill="#4B473E" text-anchor="end" style="font-family:var(--font-mono)">infrastructure</text><path class="bs-lane" data-lens="infrastructure" d="M176,129h14.1v2h-14.1zM234.7,122h14.1v9h-14.1zM337.3,129h14.1v2h-14.1zM352,129h14.1v2h-14.1zM396,129h14.1v2h-14.1zM528,129h14.1v2h-14.1zM645.3,129h14.1v2h-14.1zM674.7,129h14.1v2h-14.1z" fill="#B08968" opacity=".55"><title>infrastructure — 13 words, where they fell along the tape</title></path><rect x="-6" y="134" width="4" height="7" fill="#7E7D75"/><text x="-12" y="141" font-size="9" fill="#4B473E" text-anchor="end" style="font-family:var(--font-mono)">process</text><path class="bs-lane" data-lens="process" d="M0,135.3h14.1v6.8h-14.1zM14.7,140h14.1v2h-14.1zM161.3,139.8h14.1v2.3h-14.1zM190.7,138.6h14.1v3.4h-14.1zM205.3,139.8h14.1v2.3h-14.1zM220,137.5h14.1v4.5h-14.1zM366.7,139.8h14.1v2.3h-14.1zM601.3,140h14.1v2h-14.1zM660,140h14.1v2h-14.1zM718.7,140h14.1v2h-14.1zM748,140h14.1v2h-14.1zM850.7,140h14.1v2h-14.1zM865.3,133h14.1v9h-14.1z" fill="#7E7D75" opacity=".55"><title>process — 33 words, where they fell along the tape</title></path><a href="https://publicrecord.studio/app/m/-svX4xtIH8c#t64" class="bs-tick" data-t="64.8" data-lens="process" data-text="THIS HEARING IS BEING RECORDED."><rect x="4.2" y="133" width="3" height="9" fill="#7E7D75"><title>1:04 · process: “THIS HEARING IS BEING RECORDED.”</title></rect></a><a href="https://publicrecord.studio/app/m/-svX4xtIH8c#t90" class="bs-tick" data-t="90" data-lens="process" data-text="END OF THIS HEARING."><rect x="6.4" y="133" width="3" height="9" fill="#7E7D75"><title>1:30 · process: “END OF THIS HEARING.”</title></rect></a><a href="https://publicrecord.studio/app/m/-svX4xtIH8c#t113" class="bs-tick" data-t="113.6" data-lens="process" data-text="TODAY&#x27;S HEARING IS ON DOCKET"><rect x="8.5" y="133" width="3" height="9" fill="#7E7D75"><title>1:53 · process: “TODAY&#x27;S HEARING IS ON DOCKET”</title></rect></a><a href="https://publicrecord.studio/app/m/-svX4xtIH8c#t116" class="bs-tick" data-t="116.3" data-lens="process" data-text="ORDER FOR A HEARING REGARDING"><rect x="8.7" y="133" width="3" height="9" fill="#7E7D75"><title>1:56 · process: “ORDER FOR A HEARING REGARDING”</title></rect></a><a href="https://publicrecord.studio/app/m/-svX4xtIH8c#t117" class="bs-tick" data-t="117.7" data-lens="equity" data-text="VOTER ACCESSIBILITY AND"><rect x="8.9" y="111" width="3" height="9" fill="#C77BA6"><title>1:57 · equity: “VOTER ACCESSIBILITY AND”</title></rect></a><a href="https://publicrecord.studio/app/m/-svX4xtIH8c#t126" class="bs-tick" data-t="126.9" data-lens="process" data-text="THIS ALSO INCLUDES DOCKET"><rect x="9.7" y="133" width="3" height="9" fill="#7E7D75"><title>2:06 · process: “THIS ALSO INCLUDES DOCKET”</title></rect></a><a href="https://publicrecord.studio/app/m/-svX4xtIH8c#t158" class="bs-tick" data-t="158.4" data-lens="equity" data-text="IS ACCESSIBLE AND THAT WE&#x27;RE"><rect x="12.4" y="111" width="3" height="9" fill="#C77BA6"><title>2:38 · equity: “IS ACCESSIBLE AND THAT WE&#x27;RE”</title></rect></a><a href="https://publicrecord.studio/app/m/-svX4xtIH8c#t177" class="bs-tick" data-t="177.4" data-lens="community" data-text="MAKING SURE THAT RESIDENTS"><rect x="14.1" y="78" width="3" height="9" fill="#3FA9D0"><title>2:57 · community: “MAKING SURE THAT RESIDENTS”</title></rect></a><a href="https://publicrecord.studio/app/m/-svX4xtIH8c#t217" class="bs-tick" data-t="217.4" data-lens="equity" data-text="DEMOCRACY MORE ACCESSIBLE TO"><rect x="17.6" y="111" width="3" height="9" fill="#C77BA6"><title>3:37 · equity: “DEMOCRACY MORE ACCESSIBLE TO”</title></rect></a><a href="https://publicrecord.studio/app/m/-svX4xtIH8c#t250" class="bs-tick" data-t="250.6" data-lens="process" data-text="FEEDBACK LOOP BETWEEN HEARING"><rect x="20.6" y="133" width="3" height="9" fill="#7E7D75"><title>4:10 · process: “FEEDBACK LOOP BETWEEN HEARING”</title></rect></a><a href="https://publicrecord.studio/app/m/-svX4xtIH8c#t305" class="bs-tick" data-t="305.7" data-lens="community" data-text="VOLUNTEERS ARE DOING."><rect x="25.4" y="78" width="3" height="9" fill="#3FA9D0"><title>5:05 · community: “VOLUNTEERS ARE DOING.”</title></rect></a><a href="https://publicrecord.studio/app/m/-svX4xtIH8c#t395" class="bs-tick" data-t="395.4" data-lens="community" data-text="THAT CIVIC ENGAGEMENT IS"><rect x="33.3" y="78" width="3" height="9" fill="#3FA9D0"><title>6:35 · community: “THAT CIVIC ENGAGEMENT IS”</title></rect></a><a href="https://publicrecord.studio/app/m/-svX4xtIH8c#t417" class="bs-tick" data-t="417.9" data-lens="legal" data-text="HERE, A STAFF ATTORNEY, LAWYERS"><rect x="35.3" y="100" width="3" height="9" fill="#7E5B8E"><title>6:57 · legal: “HERE, A STAFF ATTORNEY, LAWYERS”</title></rect></a><a href="https://publicrecord.studio/app/m/-svX4xtIH8c#t498" class="bs-tick" data-t="498" data-lens="community" data-text="AND VOLUNTEER POLL OBSERVER"><rect x="42.3" y="78" width="3" height="9" fill="#3FA9D0"><title>8:18 · community: “AND VOLUNTEER POLL OBSERVER”</title></rect></a><a href="https://publicrecord.studio/app/m/-svX4xtIH8c#t517" class="bs-tick" data-t="517.6" data-lens="community" data-text="VOLUNTEERS ARE ALLOWED TO DO."><rect x="44.1" y="78" width="3" height="9" fill="#3FA9D0"><title>8:37 · community: “VOLUNTEERS ARE ALLOWED TO DO.”</title></rect></a><a href="https://publicrecord.studio/app/m/-svX4xtIH8c#t544" class="bs-tick" data-t="544.2" data-lens="community" data-text=",OUR VOLUNTEERS."><rect x="46.4" y="78" width="3" height="9" fill="#3FA9D0"><title>9:04 · community: “,OUR VOLUNTEERS.”</title></rect></a><a href="https://publicrecord.studio/app/m/-svX4xtIH8c#t556" class="bs-tick" data-t="556.6" data-lens="legal" data-text="TROUBLESHOOTING OR LEGAL"><rect x="47.5" y="100" width="3" height="9" fill="#7E5B8E"><title>9:16 · legal: “TROUBLESHOOTING OR LEGAL”</title></rect></a><a href="https://publicrecord.studio/app/m/-svX4xtIH8c#t617" class="bs-tick" data-t="617.6" data-lens="equity" data-text="ACCESSIBILITY OF POLLING PLACES"><rect x="52.9" y="111" width="3" height="9" fill="#C77BA6"><title>10:17 · equity: “ACCESSIBILITY OF POLLING PLACES”</title></rect></a><a href="https://publicrecord.studio/app/m/-svX4xtIH8c#t704" class="bs-tick" data-t="704.6" data-lens="safety" data-text="WOULD PRESENT DANGERS"><rect x="60.5" y="67" width="3" height="9" fill="#B0542D"><title>11:44 · safety: “WOULD PRESENT DANGERS”</title></rect></a><a href="https://publicrecord.studio/app/m/-svX4xtIH8c#t717" class="bs-tick" data-t="717.7" data-lens="safety" data-text="IMMIGRATION ENFORCEMENT, AND"><rect x="61.7" y="67" width="3" height="9" fill="#B0542D"><title>11:57 · safety: “IMMIGRATION ENFORCEMENT, AND”</title></rect></a><a href="https://publicrecord.studio/app/m/-svX4xtIH8c#t820" class="bs-tick" data-t="820.3" data-lens="legal" data-text="AND LEGAL AND."><rect x="70.7" y="100" width="3" height="9" fill="#7E5B8E"><title>13:40 · legal: “AND LEGAL AND.”</title></rect></a><a href="https://publicrecord.studio/app/m/-svX4xtIH8c#t1000" class="bs-tick" data-t="1000.7" data-lens="safety" data-text="VOTING HAS ALWAYS BEEN A SAFE"><rect x="86.6" y="67" width="3" height="9" fill="#B0542D"><title>16:40 · safety: “VOTING HAS ALWAYS BEEN A SAFE”</title></rect></a><a href="https://publicrecord.studio/app/m/-svX4xtIH8c#t1068" class="bs-tick" data-t="1068.8" data-lens="legal" data-text="REGISTRATION, LOCAL ORDINANCES"><rect x="92.6" y="100" width="3" height="9" fill="#7E5B8E"><title>17:48 · legal: “REGISTRATION, LOCAL ORDINANCES”</title></rect></a><a href="https://publicrecord.studio/app/m/-svX4xtIH8c#t1106" class="bs-tick" data-t="1106.3" data-lens="equity" data-text="ACCESSIBLY IN PLACES THEY"><rect x="95.9" y="111" width="3" height="9" fill="#C77BA6"><title>18:26 · equity: “ACCESSIBLY IN PLACES THEY”</title></rect></a><a href="https://publicrecord.studio/app/m/-svX4xtIH8c#t1184" class="bs-tick" data-t="1184.8" data-lens="equity" data-text="TRACKING, AN ACCESSIBLE COPY"><rect x="102.8" y="111" width="3" height="9" fill="#C77BA6"><title>19:44 · equity: “TRACKING, AN ACCESSIBLE COPY”</title></rect></a><a href="https://publicrecord.studio/app/m/-svX4xtIH8c#t1295" class="bs-tick" data-t="1295.5" data-lens="financial" data-text="INCREASED COSTS OR ANY FURTHER"><rect x="112.5" y="56" width="3" height="9" fill="#A97A16"><title>21:35 · financial: “INCREASED COSTS OR ANY FURTHER”</title></rect></a><a href="https://publicrecord.studio/app/m/-svX4xtIH8c#t1695" class="bs-tick" data-t="1695.9" data-lens="financial" data-text="THIS IS FUNDAMENTALLY ABOUT"><rect x="147.8" y="56" width="3" height="9" fill="#A97A16"><title>28:15 · financial: “THIS IS FUNDAMENTALLY ABOUT”</title></rect></a><a href="https://publicrecord.studio/app/m/-svX4xtIH8c#t2048" class="bs-tick" data-t="2048.2" data-lens="infrastructure" data-text="AND ON THE STREET WERE"><rect x="178.8" y="122" width="3" height="9" fill="#B08968"><title>34:08 · infrastructure: “AND ON THE STREET WERE”</title></rect></a><a href="https://publicrecord.studio/app/m/-svX4xtIH8c#t2210" class="bs-tick" data-t="2210.3" data-lens="legal" data-text="RIGHTS I WORKED ON LITIGATION"><rect x="193" y="100" width="3" height="9" fill="#7E5B8E"><title>36:50 · legal: “RIGHTS I WORKED ON LITIGATION”</title></rect></a><a href="https://publicrecord.studio/app/m/-svX4xtIH8c#t2219" class="bs-tick" data-t="2219.7" data-lens="legal" data-text="INVOLVED IN LITIGATION"><rect x="193.9" y="100" width="3" height="9" fill="#7E5B8E"><title>36:59 · legal: “INVOLVED IN LITIGATION”</title></rect></a><a href="https://publicrecord.studio/app/m/-svX4xtIH8c#t2318" class="bs-tick" data-t="2318.7" data-lens="environmental" data-text="THE CURRENT ENVIRONMENT WHERE"><rect x="202.6" y="89" width="3" height="9" fill="#1E7F63"><title>38:38 · environmental: “THE CURRENT ENVIRONMENT WHERE”</title></rect></a><a href="https://publicrecord.studio/app/m/-svX4xtIH8c#t2404" class="bs-tick" data-t="2404.8" data-lens="safety" data-text="ELIGIBILITY SAFEGUARDS OF THIS"><rect x="210.2" y="67" width="3" height="9" fill="#B0542D"><title>40:04 · safety: “ELIGIBILITY SAFEGUARDS OF THIS”</title></rect></a><a href="https://publicrecord.studio/app/m/-svX4xtIH8c#t2564" class="bs-tick" data-t="2564.8" data-lens="environmental" data-text="ESPECIALLY IN THIS CLIMATE, UH,"><rect x="224.2" y="89" width="3" height="9" fill="#1E7F63"><title>42:44 · environmental: “ESPECIALLY IN THIS CLIMATE, UH,”</title></rect></a><a href="https://publicrecord.studio/app/m/-svX4xtIH8c#t2586" class="bs-tick" data-t="2586.8" data-lens="environmental" data-text="CLIMATE THAT WE&#x27;RE IN AND WHY"><rect x="226.2" y="89" width="3" height="9" fill="#1E7F63"><title>43:06 · environmental: “CLIMATE THAT WE&#x27;RE IN AND WHY”</title></rect></a><a href="https://publicrecord.studio/app/m/-svX4xtIH8c#t2686" class="bs-tick" data-t="2686.9" data-lens="infrastructure" data-text="STREET LISTING TIED TO VOTER"><rect x="235" y="122" width="3" height="9" fill="#B08968"><title>44:46 · infrastructure: “STREET LISTING TIED TO VOTER”</title></rect></a><a href="https://publicrecord.studio/app/m/-svX4xtIH8c#t2707" class="bs-tick" data-t="2707.7" data-lens="infrastructure" data-text="ANNUAL STREET LISTING BUT ONLY"><rect x="236.8" y="122" width="3" height="9" fill="#B08968"><title>45:07 · infrastructure: “ANNUAL STREET LISTING BUT ONLY”</title></rect></a><a href="https://publicrecord.studio/app/m/-svX4xtIH8c#t2709" class="bs-tick" data-t="2709.2" data-lens="infrastructure" data-text="ONE STREET LISTING IS SENT PER"><rect x="237" y="122" width="3" height="9" fill="#B08968"><title>45:09 · infrastructure: “ONE STREET LISTING IS SENT PER”</title></rect></a><a href="https://publicrecord.studio/app/m/-svX4xtIH8c#t2717" class="bs-tick" data-t="2717.3" data-lens="infrastructure" data-text="TO GET YOUR STREET LISTING."><rect x="237.7" y="122" width="3" height="9" fill="#B08968"><title>45:17 · infrastructure: “TO GET YOUR STREET LISTING.”</title></rect></a><a href="https://publicrecord.studio/app/m/-svX4xtIH8c#t2725" class="bs-tick" data-t="2725.2" data-lens="infrastructure" data-text="STREET LISTING."><rect x="238.4" y="122" width="3" height="9" fill="#B08968"><title>45:25 · infrastructure: “STREET LISTING.”</title></rect></a><a href="https://publicrecord.studio/app/m/-svX4xtIH8c#t2983" class="bs-tick" data-t="2983.4" data-lens="financial" data-text="HAVE A FUNDING."><rect x="261.1" y="56" width="3" height="9" fill="#A97A16"><title>49:43 · financial: “HAVE A FUNDING.”</title></rect></a><a href="https://publicrecord.studio/app/m/-svX4xtIH8c#t3096" class="bs-tick" data-t="3096.9" data-lens="environmental" data-text="CURRENT IMMIGRATION CLIMATE UM,"><rect x="271.1" y="89" width="3" height="9" fill="#1E7F63"><title>51:36 · environmental: “CURRENT IMMIGRATION CLIMATE UM,”</title></rect></a><a href="https://publicrecord.studio/app/m/-svX4xtIH8c#t3623" class="bs-tick" data-t="3623.4" data-lens="financial" data-text="THINK 8080 MILLION PEOPLE"><rect x="317.4" y="56" width="3" height="9" fill="#A97A16"><title>1:00:23 · financial: “THINK 8080 MILLION PEOPLE”</title></rect></a><a href="https://publicrecord.studio/app/m/-svX4xtIH8c#t3795" class="bs-tick" data-t="3795.6" data-lens="financial" data-text="AFFORD THAT."><rect x="332.6" y="56" width="3" height="9" fill="#A97A16"><title>1:03:15 · financial: “AFFORD THAT.”</title></rect></a><a href="https://publicrecord.studio/app/m/-svX4xtIH8c#t3845" class="bs-tick" data-t="3845.3" data-lens="safety" data-text="OURSELVES ON FIRE, WE&#x27;RE"><rect x="337" y="67" width="3" height="9" fill="#B0542D"><title>1:04:05 · safety: “OURSELVES ON FIRE, WE&#x27;RE”</title></rect></a><a href="https://publicrecord.studio/app/m/-svX4xtIH8c#t7161" class="bs-tick" data-t="7161.1" data-lens="financial" data-text="THIS BODY THE BUDGET THAT WE"><rect x="628.8" y="56" width="3" height="9" fill="#A97A16"><title>1:59:21 · financial: “THIS BODY THE BUDGET THAT WE”</title></rect></a><a href="https://publicrecord.studio/app/m/-svX4xtIH8c#t7422" class="bs-tick" data-t="7422.2" data-lens="safety" data-text="SAFE ELECTIONS THAT THE CITY"><rect x="651.8" y="67" width="3" height="9" fill="#B0542D"><title>2:03:42 · safety: “SAFE ELECTIONS THAT THE CITY”</title></rect></a><a href="https://publicrecord.studio/app/m/-svX4xtIH8c#t7982" class="bs-tick" data-t="7982.2" data-lens="environmental" data-text="BRING A LOT OF THAT ENERGY IN"><rect x="701.1" y="89" width="3" height="9" fill="#1E7F63"><title>2:13:02 · environmental: “BRING A LOT OF THAT ENERGY IN”</title></rect></a><a href="https://publicrecord.studio/app/m/-svX4xtIH8c#t8408" class="bs-tick" data-t="8408" data-lens="environmental" data-text="MONEY IN ENERGY BUT I DO THINK"><rect x="738.6" y="89" width="3" height="9" fill="#1E7F63"><title>2:20:08 · environmental: “MONEY IN ENERGY BUT I DO THINK”</title></rect></a><a href="https://publicrecord.studio/app/m/-svX4xtIH8c#t1082" class="bs-money" data-t="1082.3" data-label="$192,000"><line x1="95.3" y1="54" x2="95.3" y2="34" stroke="#A97A16" stroke-width="1"/><text x="95.3" y="34" font-size="10" fill="#7A5A10" text-anchor="start" style="font-family:var(--font-mono)">$192,000<title>$192,000 — said 1 time, first at 18:02</title></text></a><a href="https://publicrecord.studio/app/m/-svX4xtIH8c#t3749" class="bs-money" data-t="3749.3" data-label="$20"><line x1="330" y1="54" x2="330" y2="34" stroke="#A97A16" stroke-width="1"/><text x="330" y="34" font-size="10" fill="#7A5A10" text-anchor="start" style="font-family:var(--font-mono)">$20 +2<title>$20 — said 6 times, first at 1:02:29</title></text></a><a href="https://publicrecord.studio/app/m/-svX4xtIH8c#t3799" class="bs-money" data-t="3799.9" data-label="$200,000"><line x1="334.5" y1="54" x2="334.5" y2="38" stroke="#A97A16" stroke-width="1"><title>$200,000 — said 1 time, first at 1:03:19</title></line></a><a href="https://publicrecord.studio/app/m/-svX4xtIH8c#t4227" class="bs-money" data-t="4227.4" data-label="$0.02"><line x1="372.1" y1="54" x2="372.1" y2="38" stroke="#A97A16" stroke-width="1"><title>$0.02 — said 1 time, first at 1:10:27</title></line></a><a href="https://publicrecord.studio/app/m/-svX4xtIH8c#t9119" class="bs-money" data-t="9119.8" data-label="$20"><line x1="802.7" y1="54" x2="802.7" y2="34" stroke="#A97A16" stroke-width="1"/><text x="802.7" y="34" font-size="10" fill="#7A5A10" text-anchor="start" style="font-family:var(--font-mono)">$20 +3<title>$20 — said 1 time, first at 2:31:59</title></text></a><a href="https://publicrecord.studio/app/m/-svX4xtIH8c#t9129" class="bs-money" data-t="9129.7" data-label="$30"><line x1="803.6" y1="54" x2="803.6" y2="38" stroke="#A97A16" stroke-width="1"><title>$30 — said 1 time, first at 2:32:09</title></line></a><a href="https://publicrecord.studio/app/m/-svX4xtIH8c#t9141" class="bs-money" data-t="9141.8" data-label="$50"><line x1="804.6" y1="54" x2="804.6" y2="38" stroke="#A97A16" stroke-width="1"><title>$50 — said 1 time, first at 2:32:21</title></line></a><a href="https://publicrecord.studio/app/m/-svX4xtIH8c#t9147" class="bs-money" data-t="9147.7" data-label="$30"><line x1="805.2" y1="54" x2="805.2" y2="38" stroke="#A97A16" stroke-width="1"><title>$30 — said 1 time, first at 2:32:27</title></line></a><a href="https://publicrecord.studio/app/m/-svX4xtIH8c#t548" class="bs-q" data-t="548.3"><line x1="48.3" y1="14" x2="48.3" y2="21" stroke="#6F6A5B" stroke-width="1"/><title>9:08 · a question: “AN ID REQUIRED?”</title></a><a href="https://publicrecord.studio/app/m/-svX4xtIH8c#t2186" class="bs-q" data-t="2186.6"><line x1="192.5" y1="14" x2="192.5" y2="21" stroke="#6F6A5B" stroke-width="1"/><title>36:26 · a question: “WHO WILL THAT WE WILL PLAY?”</title></a><a href="https://publicrecord.studio/app/m/-svX4xtIH8c#t2656" class="bs-q" data-t="2656.8"><line x1="233.8" y1="14" x2="233.8" y2="21" stroke="#6F6A5B" stroke-width="1"/><title>44:16 · a question: “PUTS YOU ON THAT LIST?”</title></a><a href="https://publicrecord.studio/app/m/-svX4xtIH8c#t2869" class="bs-q" data-t="2869.9"><line x1="252.6" y1="14" x2="252.6" y2="21" stroke="#6F6A5B" stroke-width="1"/><title>47:49 · a question: “HARM THAT IS HAPPENING?”</title></a><a href="https://publicrecord.studio/app/m/-svX4xtIH8c#t3105" class="bs-q" data-t="3105"><line x1="273.3" y1="14" x2="273.3" y2="21" stroke="#6F6A5B" stroke-width="1"/><title>51:45 · a question: “MUNICIPAL CENTERS?”</title></a><a href="https://publicrecord.studio/app/m/-svX4xtIH8c#t3175" class="bs-q" data-t="3175.2"><line x1="279.5" y1="14" x2="279.5" y2="21" stroke="#6F6A5B" stroke-width="1"/><title>52:55 · a question: “IS IT SUCH A CHALLENGE HERE?”</title></a><a href="https://publicrecord.studio/app/m/-svX4xtIH8c#t3180" class="bs-q" data-t="3180.6"><line x1="279.9" y1="14" x2="279.9" y2="21" stroke="#6F6A5B" stroke-width="1"/><title>53:00 · a question: “THAT PEOPLE HOLD UP?”</title></a><a href="https://publicrecord.studio/app/m/-svX4xtIH8c#t3504" class="bs-q" data-t="3504.7"><line x1="308.5" y1="14" x2="308.5" y2="21" stroke="#6F6A5B" stroke-width="1"/><title>58:24 · a question: “ELECTION DAY REGISTRATION?”</title></a><a href="https://publicrecord.studio/app/m/-svX4xtIH8c#t3586" class="bs-q" data-t="3586.7"><line x1="315.7" y1="14" x2="315.7" y2="21" stroke="#6F6A5B" stroke-width="1"/><title>59:46 · a question: “YOU HAVE A MINUTE?”</title></a><a href="https://publicrecord.studio/app/m/-svX4xtIH8c#t3626" class="bs-q" data-t="3626.2"><line x1="319.2" y1="14" x2="319.2" y2="21" stroke="#6F6A5B" stroke-width="1"/><title>1:00:26 · a question: “PRESIDENTIAL ELECTION?”</title></a><a href="https://publicrecord.studio/app/m/-svX4xtIH8c#t3778" class="bs-q" data-t="3778.2"><line x1="332.5" y1="14" x2="332.5" y2="21" stroke="#6F6A5B" stroke-width="1"/><title>1:02:58 · a question: “VOTING COMPULSORY?”</title></a><a href="https://publicrecord.studio/app/m/-svX4xtIH8c#t3810" class="bs-q" data-t="3810.7"><line x1="335.4" y1="14" x2="335.4" y2="21" stroke="#6F6A5B" stroke-width="1"/><title>1:03:30 · a question: “HOW ABOUT THAT?”</title></a><a href="https://publicrecord.studio/app/m/-svX4xtIH8c#t3873" class="bs-q" data-t="3873.4"><line x1="340.9" y1="14" x2="340.9" y2="21" stroke="#6F6A5B" stroke-width="1"/><title>1:04:33 · a question: “DO YOU KNOW WHAT I MEAN?”</title></a><a href="https://publicrecord.studio/app/m/-svX4xtIH8c#t3990" class="bs-q" data-t="3990.7"><line x1="351.3" y1="14" x2="351.3" y2="21" stroke="#6F6A5B" stroke-width="1"/><title>1:06:30 · a question: “EFFECTIVE EQUIPMENT?”</title></a><a href="https://publicrecord.studio/app/m/-svX4xtIH8c#t4063" class="bs-q" data-t="4063.2"><line x1="357.6" y1="14" x2="357.6" y2="21" stroke="#6F6A5B" stroke-width="1"/><title>1:07:43 · a question: “TALKING LIKE SCHOOL AGE, RIGHT?”</title></a><a href="https://publicrecord.studio/app/m/-svX4xtIH8c#t4334" class="bs-q" data-t="4334.2"><line x1="381.5" y1="14" x2="381.5" y2="21" stroke="#6F6A5B" stroke-width="1"/><title>1:12:14 · a question: “THE GENERAL ELECTION?”</title></a><a href="https://publicrecord.studio/app/m/-svX4xtIH8c#t4642" class="bs-q" data-t="4642"><line x1="408.6" y1="14" x2="408.6" y2="21" stroke="#6F6A5B" stroke-width="1"/><title>1:17:22 · a question: “LIKE TO SEE US DO?”</title></a><a href="https://publicrecord.studio/app/m/-svX4xtIH8c#t4649" class="bs-q" data-t="4649.6"><line x1="409.2" y1="14" x2="409.2" y2="21" stroke="#6F6A5B" stroke-width="1"/><title>1:17:29 · a question: “IN WITH THE LANDSCAPE, RIGHT?”</title></a><a href="https://publicrecord.studio/app/m/-svX4xtIH8c#t4811" class="bs-q" data-t="4811.5"><line x1="423.5" y1="14" x2="423.5" y2="21" stroke="#6F6A5B" stroke-width="1"/><title>1:20:11 · a question: “THEIR RESPONSIBILITY?”</title></a><a href="https://publicrecord.studio/app/m/-svX4xtIH8c#t4823" class="bs-q" data-t="4823.2"><line x1="424.5" y1="14" x2="424.5" y2="21" stroke="#6F6A5B" stroke-width="1"/><title>1:20:23 · a question: “HUGE ISSUE, RIGHT?”</title></a><a href="https://publicrecord.studio/app/m/-svX4xtIH8c#t4916" class="bs-q" data-t="4916.2"><line x1="432.7" y1="14" x2="432.7" y2="21" stroke="#6F6A5B" stroke-width="1"/><title>1:21:56 · a question: “HOLIDAY, RIGHT?”</title></a><a href="https://publicrecord.studio/app/m/-svX4xtIH8c#t5127" class="bs-q" data-t="5127.1"><line x1="451.3" y1="14" x2="451.3" y2="21" stroke="#6F6A5B" stroke-width="1"/><title>1:25:27 · a question: “MEAN FOR PEOPLE?”</title></a><a href="https://publicrecord.studio/app/m/-svX4xtIH8c#t5240" class="bs-q" data-t="5240.3"><line x1="461.2" y1="14" x2="461.2" y2="21" stroke="#6F6A5B" stroke-width="1"/><title>1:27:20 · a question: “SKINNY RIGHT?”</title></a><a href="https://publicrecord.studio/app/m/-svX4xtIH8c#t5280" class="bs-q" data-t="5280.5"><line x1="464.8" y1="14" x2="464.8" y2="21" stroke="#6F6A5B" stroke-width="1"/><title>1:28:00 · a question: “HOW MANY PAGES?”</title></a><a href="https://publicrecord.studio/app/m/-svX4xtIH8c#t117" class="bs-dec" data-i="0" data-t="117.7" data-kind="decision"><circle cx="10.4" cy="44" r="7.5" fill="#191712" opacity=".9"><title>1:57 · decision: “ORDER FOR A HEARING REGARDING VOTER ACCESSIBILITY AND ELECTION PREPAREDNESS.”</title></circle></a><a href="https://publicrecord.studio/app/m/-svX4xtIH8c#t157" class="bs-dec" data-i="1" data-t="157" data-kind="decision"><circle cx="13.8" cy="44" r="7.5" fill="#191712" opacity=".9"><title>2:37 · decision: “UM THIS THERE IS UH UH TOPIC THAT IS SINCERELY IMPORTANT TO UPHOLDING OUR DEMOCRACY AND THAT&#x27;S MAKING SURE THAT VOTING…”</title></circle></a><a href="https://publicrecord.studio/app/m/-svX4xtIH8c#t181" class="bs-dec" data-i="2" data-t="181" data-kind="decision"><circle cx="15.9" cy="44" r="7.5" fill="#191712" opacity=".9"><title>3:01 · decision: “AS SOMEONE WHO GREW UP IN THE CITY GOING TO THE POLLS WITH MY DAD LATER MYSELF BECOMING A LAWYER WHO WORKED ON…”</title></circle></a><a href="https://publicrecord.studio/app/m/-svX4xtIH8c#t206" class="bs-dec" data-i="3" data-t="206.2" data-kind="decision"><circle cx="18.1" cy="44" r="7.5" fill="#191712" opacity=".9"><title>3:26 · decision: “I ALSO WANT TO MAKE SURE THAT WE ARE TALKING ABOUT QUESTION FOUR WHICH IS UH, ELECTION DAY VOTER REGISTRATION WHICH…”</title></circle></a><a href="https://publicrecord.studio/app/m/-svX4xtIH8c#t423" class="bs-dec" data-i="4" data-t="423.9" data-kind="decision"><circle cx="37.3" cy="44" r="7.5" fill="#191712" opacity=".9"><title>7:03 · decision: “UH, WE HAVE CELIA CANAVAN HERE, EXECUTIVE DIRECTOR, LEAGUE OF WOMEN VOTERS OF MASSACHUSETTS.”</title></circle></a><a href="https://publicrecord.studio/app/m/-svX4xtIH8c#t478" class="bs-dec" data-i="5" data-t="478.7" data-kind="decision"><circle cx="42.1" cy="44" r="7.4" fill="#191712" opacity=".9"><title>7:58 · decision: “ROOM SHARE A GOAL WHICH IS TO ENSURE THAT EVERY ELIGIBLE VOTER WHO WANTS TO CAST A BALLOT CAN DO SO AND THEY CAN DO SO…”</title></circle></a><a href="https://publicrecord.studio/app/m/-svX4xtIH8c#t537" class="bs-dec" data-i="6" data-t="537.1" data-kind="decision"><circle cx="47.3" cy="44" r="7.5" fill="#191712" opacity=".9"><title>8:57 · decision: “WITH VOTERS OUTSIDE.”</title></circle></a><a href="https://publicrecord.studio/app/m/-svX4xtIH8c#t558" class="bs-dec" data-i="7" data-t="558.9" data-kind="decision"><circle cx="49.2" cy="44" r="7.5" fill="#191712" opacity=".9"><title>9:18 · decision: “THIS IS STEERING VOTERS.”</title></circle></a><a href="https://publicrecord.studio/app/m/-svX4xtIH8c#t601" class="bs-dec" data-i="8" data-t="601.5" data-kind="decision"><circle cx="52.9" cy="44" r="7.5" fill="#191712" opacity=".9"><title>10:01 · decision: “DEADLINE KEEPING ELIGIBLE PEOPLE FROM VOTING AND THAT&#x27;S WHY WE SUPPORT QUESTION FOUR ON ELECTION DAY REGISTRATION.”</title></circle></a><a href="https://publicrecord.studio/app/m/-svX4xtIH8c#t630" class="bs-dec" data-i="9" data-t="630" data-kind="decision"><circle cx="55.5" cy="44" r="7.5" fill="#191712" opacity=".9"><title>10:30 · decision: “IN THE PAST UM AS COUNCILOR FLYNN MENTIONED, BOSTON VOTERS HAVE FACED LONG LINES AND BALLOT SHORTAGES.”</title></circle></a><a href="https://publicrecord.studio/app/m/-svX4xtIH8c#t663" class="bs-dec" data-i="10" data-t="663.8" data-kind="tension"><circle cx="58.4" cy="44" r="6.8" fill="#B23A1D" opacity=".9"><title>11:03 · pushback: “CONCERN ABOUT FEDERAL OFFICERS BEING SENT TO POLLING PLACES.”</title></circle></a><a href="https://publicrecord.studio/app/m/-svX4xtIH8c#t678" class="bs-dec" data-i="11" data-t="678.6" data-kind="decision"><circle cx="59.7" cy="44" r="7.5" fill="#191712" opacity=".9"><title>11:18 · decision: “DOJ OR THE FBI CANNOT INTERFERE WITH THE RIGHT TO VOTE.”</title></circle></a><a href="https://publicrecord.studio/app/m/-svX4xtIH8c#t721" class="bs-dec" data-i="12" data-t="721.2" data-kind="decision"><circle cx="63.5" cy="44" r="6.8" fill="#191712" opacity=".9"><title>12:01 · decision: “PEOPLE WHO ARE.”</title></circle></a><a href="https://publicrecord.studio/app/m/-svX4xtIH8c#t741" class="bs-dec" data-i="13" data-t="741.5" data-kind="tension"><circle cx="65.3" cy="44" r="7.4" fill="#B23A1D" opacity=".9"><title>12:21 · pushback: “PLACE, SOME OF THEM WILL SIMPLY STAY HOME AND THAT MEANS THAT THEY ARE LOSING THEIR RIGHT TO VOTE AND THAT IS…”</title></circle></a><a href="https://publicrecord.studio/app/m/-svX4xtIH8c#t4412" class="bs-dec" data-i="14" data-t="4412.3" data-kind="tension"><circle cx="388.4" cy="44" r="7.1" fill="#B23A1D" opacity=".9"><title>1:13:32 · pushback: “SO WE WON&#x27;T NECESSARILY GET AN ADVANCE NOTICE ABOUT UM, THE DOJ&#x27;S PLANS I THINK MORE BROADLY SOMETHING THAT WE AT CIVIL…”</title></circle></a><text class="bs-ax" data-lo="0" data-hi="24.8" x="0" y="166" font-size="10" fill="#6F6A5B" text-anchor="start" style="font-family:var(--font-mono)" visibility="hidden">0:00</text><text class="bs-ax" data-lo="142.9" data-hi="173.9" x="158.4" y="166" font-size="10" fill="#6F6A5B" text-anchor="middle" style="font-family:var(--font-mono)">30:00</text><text class="bs-ax" data-lo="295.2" data-hi="338.6" x="316.9" y="166" font-size="10" fill="#6F6A5B" text-anchor="middle" style="font-family:var(--font-mono)">1:00:00</text><text class="bs-ax" data-lo="453.6" data-hi="497" x="475.3" y="166" font-size="10" fill="#6F6A5B" text-anchor="middle" style="font-family:var(--font-mono)">1:30:00</text><text class="bs-ax" data-lo="612" data-hi="655.4" x="633.7" y="166" font-size="10" fill="#6F6A5B" text-anchor="middle" style="font-family:var(--font-mono)">2:00:00</text><text class="bs-ax" data-lo="770.5" data-hi="813.9" x="792.2" y="166" font-size="10" fill="#6F6A5B" text-anchor="middle" style="font-family:var(--font-mono)">2:30:00</text><g class="bs-playhead"><line x1="16" y1="32" x2="16" y2="150" stroke="#B23A1D" stroke-width="2"/><text x="16" y="164" font-size="11" fill="#B23A1D" text-anchor="middle" style="font-family:var(--font-mono)">3:01</text></g></svg><text x="16" y="236" font-size="10" fill="#475569">a dot is a decision, sized by its weight; rust, pushback · a tick above, a question · $ a dollar figure · the eight lanes: where each lens’s words fell</text><text x="16" y="250" font-size="10" fill="#475569">https://publicrecord.studio/app/m/-svX4xtIH8c</text><text x="16" y="264" font-size="10" fill="#475569">counted from the record’s transcripts, no model · the record of 2026-10-07 · CC BY-SA 4.0</text></svg>
