<?xml version="1.0" encoding="UTF-8"?>
<svg xmlns="http://www.w3.org/2000/svg" width="953" height="276" viewBox="0 0 953 276" font-family="IBM Plex Mono, Menlo, Consolas, monospace"><title>The shape of the tape — Brookline Select Board Meeting - March 24, 2026</title><rect width="953" height="276" fill="#ffffff"/><text x="16" y="26" font-size="13" font-weight="700" fill="#0f172a">The shape of the tape — Brookline Select Board Meeting - March 24, 2026</text><svg x="36" y="44" width="880" height="168" viewBox="-100 0 990 168"><rect x="0" y="56" width="880" height="90" fill="#F3EEE3" rx="4"/><rect x="-6" y="57" width="4" height="7" fill="#A97A16"/><text x="-12" y="64" font-size="9" fill="#4B473E" text-anchor="end" style="font-family:var(--font-mono)">financial</text><path class="bs-lane" data-lens="financial" d="M220,63h14.1v2h-14.1zM234.7,60.7h14.1v4.3h-14.1zM249.3,56h14.1v9h-14.1zM264,59.4h14.1v5.6h-14.1zM278.7,58.8h14.1v6.2h-14.1zM293.3,62.2h14.1v2.8h-14.1zM308,60.1h14.1v4.9h-14.1zM322.7,62.4h14.1v2.6h-14.1zM337.3,63h14.1v2h-14.1zM352,63h14.1v2h-14.1zM366.7,58.6h14.1v6.4h-14.1zM381.3,60.5h14.1v4.5h-14.1zM396,60.1h14.1v4.9h-14.1zM410.7,63h14.1v2h-14.1zM425.3,62.8h14.1v2.2h-14.1zM440,62.8h14.1v2.2h-14.1zM454.7,63h14.1v2h-14.1zM469.3,62.4h14.1v2.6h-14.1zM484,61.8h14.1v3.2h-14.1zM498.7,63h14.1v2h-14.1zM513.3,61.6h14.1v3.4h-14.1zM528,61.2h14.1v3.8h-14.1zM572,63h14.1v2h-14.1zM586.7,62.9h14.1v2.1h-14.1zM601.3,63h14.1v2h-14.1zM616,63h14.1v2h-14.1zM630.7,63h14.1v2h-14.1zM645.3,63h14.1v2h-14.1zM660,63h14.1v2h-14.1zM674.7,63h14.1v2h-14.1zM689.3,62.4h14.1v2.6h-14.1zM704,62.9h14.1v2.1h-14.1zM718.7,63h14.1v2h-14.1zM733.3,63h14.1v2h-14.1zM748,63h14.1v2h-14.1zM762.7,63h14.1v2h-14.1zM777.3,62.9h14.1v2.1h-14.1zM792,60.1h14.1v4.9h-14.1zM806.7,63h14.1v2h-14.1zM821.3,62.8h14.1v2.2h-14.1zM836,63h14.1v2h-14.1zM850.7,63h14.1v2h-14.1zM865.3,63h14.1v2h-14.1z" fill="#A97A16" opacity=".55"><title>financial — 582 words, where they fell along the tape</title></path><rect x="-6" y="68" width="4" height="7" fill="#B0542D"/><text x="-12" y="75" font-size="9" fill="#4B473E" text-anchor="end" style="font-family:var(--font-mono)">safety</text><path class="bs-lane" data-lens="safety" d="M161.3,74h14.1v2h-14.1zM176,74h14.1v2h-14.1zM190.7,72.6h14.1v3.4h-14.1zM205.3,74h14.1v2h-14.1zM220,74h14.1v2h-14.1zM234.7,74h14.1v2h-14.1zM249.3,74h14.1v2h-14.1zM440,74h14.1v2h-14.1zM454.7,67h14.1v9h-14.1zM469.3,72.6h14.1v3.4h-14.1zM586.7,74h14.1v2h-14.1zM601.3,72.6h14.1v3.4h-14.1zM645.3,74h14.1v2h-14.1zM733.3,74h14.1v2h-14.1zM762.7,74h14.1v2h-14.1zM777.3,74h14.1v2h-14.1zM850.7,74h14.1v2h-14.1z" fill="#B0542D" opacity=".55"><title>safety — 72 words, where they fell along the tape</title></path><rect x="-6" y="79" width="4" height="7" fill="#3FA9D0"/><text x="-12" y="86" font-size="9" fill="#4B473E" text-anchor="end" style="font-family:var(--font-mono)">community</text><path class="bs-lane" data-lens="community" d="M146.7,84.4h14.1v2.6h-14.1zM161.3,79.3h14.1v7.7h-14.1zM176,83.1h14.1v3.9h-14.1zM352,85h14.1v2h-14.1zM381.3,85h14.1v2h-14.1zM425.3,85h14.1v2h-14.1zM454.7,84.4h14.1v2.6h-14.1zM469.3,80.6h14.1v6.4h-14.1zM484,81.2h14.1v5.8h-14.1zM498.7,78h14.1v9h-14.1zM513.3,85h14.1v2h-14.1zM528,85h14.1v2h-14.1zM572,85h14.1v2h-14.1zM586.7,85h14.1v2h-14.1zM601.3,85h14.1v2h-14.1zM630.7,85h14.1v2h-14.1zM660,85h14.1v2h-14.1zM674.7,85h14.1v2h-14.1zM689.3,85h14.1v2h-14.1zM718.7,83.1h14.1v3.9h-14.1zM762.7,85h14.1v2h-14.1zM777.3,85h14.1v2h-14.1zM806.7,84.4h14.1v2.6h-14.1zM821.3,85h14.1v2h-14.1z" fill="#3FA9D0" opacity=".55"><title>community — 97 words, where they fell along the tape</title></path><rect x="-6" y="90" width="4" height="7" fill="#1E7F63"/><text x="-12" y="97" font-size="9" fill="#4B473E" text-anchor="end" style="font-family:var(--font-mono)">environmental</text><path class="bs-lane" data-lens="environmental" d="M146.7,95h14.1v3h-14.1zM220,95h14.1v3h-14.1zM264,95h14.1v3h-14.1zM352,95h14.1v3h-14.1zM484,95h14.1v3h-14.1zM601.3,95h14.1v3h-14.1zM645.3,89h14.1v9h-14.1zM836,92h14.1v6h-14.1zM850.7,92h14.1v6h-14.1z" fill="#1E7F63" opacity=".55"><title>environmental — 13 words, where they fell along the tape</title></path><rect x="-6" y="101" width="4" height="7" fill="#7E5B8E"/><text x="-12" y="108" font-size="9" fill="#4B473E" text-anchor="end" style="font-family:var(--font-mono)">legal</text><path class="bs-lane" data-lens="legal" d="M205.3,104.5h14.1v4.5h-14.1zM234.7,104.5h14.1v4.5h-14.1zM278.7,104.5h14.1v4.5h-14.1zM425.3,100h14.1v9h-14.1zM498.7,104.5h14.1v4.5h-14.1zM528,104.5h14.1v4.5h-14.1z" fill="#7E5B8E" opacity=".55"><title>legal — 7 words, where they fell along the tape</title></path><rect x="-6" y="112" width="4" height="7" fill="#C77BA6"/><text x="-12" y="119" font-size="9" fill="#4B473E" text-anchor="end" style="font-family:var(--font-mono)">equity</text><path class="bs-lane" data-lens="equity" d="M146.7,118h14.1v2h-14.1zM161.3,118h14.1v2h-14.1zM176,114.6h14.1v5.4h-14.1zM498.7,114.6h14.1v5.4h-14.1zM718.7,118h14.1v2h-14.1zM733.3,118h14.1v2h-14.1zM748,111h14.1v9h-14.1zM762.7,114.6h14.1v5.4h-14.1zM777.3,118h14.1v2h-14.1zM806.7,116.4h14.1v3.6h-14.1zM821.3,114.6h14.1v5.4h-14.1z" fill="#C77BA6" opacity=".55"><title>equity — 24 words, where they fell along the tape</title></path><rect x="-6" y="123" width="4" height="7" fill="#B08968"/><text x="-12" y="130" font-size="9" fill="#4B473E" text-anchor="end" style="font-family:var(--font-mono)">infrastructure</text><path class="bs-lane" data-lens="infrastructure" d="M146.7,124.2h14.1v6.8h-14.1zM190.7,128.8h14.1v2.2h-14.1zM220,128.8h14.1v2.2h-14.1zM234.7,126.5h14.1v4.5h-14.1zM264,126.5h14.1v4.5h-14.1zM278.7,128.8h14.1v2.2h-14.1zM308,128.8h14.1v2.2h-14.1zM454.7,126.5h14.1v4.5h-14.1zM469.3,128.8h14.1v2.2h-14.1zM498.7,128.8h14.1v2.2h-14.1zM513.3,128.8h14.1v2.2h-14.1zM733.3,126.5h14.1v4.5h-14.1zM748,128.8h14.1v2.2h-14.1zM792,126.5h14.1v4.5h-14.1zM806.7,126.5h14.1v4.5h-14.1zM850.7,122h14.1v9h-14.1zM865.3,128.8h14.1v2.2h-14.1z" fill="#B08968" opacity=".55"><title>infrastructure — 28 words, where they fell along the tape</title></path><rect x="-6" y="134" width="4" height="7" fill="#7E7D75"/><text x="-12" y="141" font-size="9" fill="#4B473E" text-anchor="end" style="font-family:var(--font-mono)">process</text><path class="bs-lane" data-lens="process" d="M146.7,140h14.1v2h-14.1zM161.3,140h14.1v2h-14.1zM176,140h14.1v2h-14.1zM190.7,133h14.1v9h-14.1zM205.3,136.9h14.1v5.1h-14.1zM220,135.6h14.1v6.4h-14.1zM440,139.4h14.1v2.6h-14.1zM469.3,139.4h14.1v2.6h-14.1zM542.7,136.9h14.1v5.1h-14.1zM557.3,138.1h14.1v3.9h-14.1zM572,140h14.1v2h-14.1zM586.7,140h14.1v2h-14.1zM616,139.4h14.1v2.6h-14.1zM704,135.6h14.1v6.4h-14.1zM718.7,140h14.1v2h-14.1zM733.3,140h14.1v2h-14.1zM792,138.1h14.1v3.9h-14.1zM865.3,138.1h14.1v3.9h-14.1z" fill="#7E7D75" opacity=".55"><title>process — 47 words, where they fell along the tape</title></path><a href="https://publicrecord.studio/app/m/idZItjMSDiM#t3517" class="bs-tick" data-t="3517.4" data-lens="environmental" data-text="Good evening. I&#x27;m Bernard Green, chair"><rect x="148.2" y="89" width="3" height="9" fill="#1E7F63"><title>58:37 · environmental: “Good evening. I&#x27;m Bernard Green, chair”</title></rect></a><a href="https://publicrecord.studio/app/m/idZItjMSDiM#t3544" class="bs-tick" data-t="3544.1" data-lens="equity" data-text="branch station accessibility project."><rect x="149.3" y="111" width="3" height="9" fill="#C77BA6"><title>59:04 · equity: “branch station accessibility project.”</title></rect></a><a href="https://publicrecord.studio/app/m/idZItjMSDiM#t3559" class="bs-tick" data-t="3559.9" data-lens="infrastructure" data-text="constructions, impacts of the"><rect x="150" y="122" width="3" height="9" fill="#B08968"><title>59:19 · infrastructure: “constructions, impacts of the”</title></rect></a><a href="https://publicrecord.studio/app/m/idZItjMSDiM#t3562" class="bs-tick" data-t="3562.2" data-lens="infrastructure" data-text="construction, etc. And the meeting will"><rect x="150.1" y="122" width="3" height="9" fill="#B08968"><title>59:22 · infrastructure: “construction, etc. And the meeting will”</title></rect></a><a href="https://publicrecord.studio/app/m/idZItjMSDiM#t3604" class="bs-tick" data-t="3604.6" data-lens="process" data-text="Okay. Which will be a hearing later on"><rect x="151.9" y="133" width="3" height="9" fill="#7E7D75"><title>1:00:04 · process: “Okay. Which will be a hearing later on”</title></rect></a><a href="https://publicrecord.studio/app/m/idZItjMSDiM#t3662" class="bs-tick" data-t="3662.6" data-lens="infrastructure" data-text="street address, and the specific topic"><rect x="154.4" y="122" width="3" height="9" fill="#B08968"><title>1:01:02 · infrastructure: “street address, and the specific topic”</title></rect></a><a href="https://publicrecord.studio/app/m/idZItjMSDiM#t3722" class="bs-tick" data-t="3722.4" data-lens="community" data-text="community and this is a great place to"><rect x="156.9" y="78" width="3" height="9" fill="#3FA9D0"><title>1:02:02 · community: “community and this is a great place to”</title></rect></a><a href="https://publicrecord.studio/app/m/idZItjMSDiM#t3748" class="bs-tick" data-t="3748.7" data-lens="community" data-text="Brooklyn residents whose civic work,"><rect x="158.1" y="78" width="3" height="9" fill="#3FA9D0"><title>1:02:28 · community: “Brooklyn residents whose civic work,”</title></rect></a><a href="https://publicrecord.studio/app/m/idZItjMSDiM#t3753" class="bs-tick" data-t="3753" data-lens="community" data-text="enriched the cultural and civic life of"><rect x="158.2" y="78" width="3" height="9" fill="#3FA9D0"><title>1:02:33 · community: “enriched the cultural and civic life of”</title></rect></a><a href="https://publicrecord.studio/app/m/idZItjMSDiM#t3804" class="bs-tick" data-t="3804.1" data-lens="community" data-text="virtual tours of Brooklyn neighborhoods"><rect x="160.4" y="78" width="3" height="9" fill="#3FA9D0"><title>1:03:24 · community: “virtual tours of Brooklyn neighborhoods”</title></rect></a><a href="https://publicrecord.studio/app/m/idZItjMSDiM#t3816" class="bs-tick" data-t="3816.7" data-lens="community" data-text="have shaped our community."><rect x="161" y="78" width="3" height="9" fill="#3FA9D0"><title>1:03:36 · community: “have shaped our community.”</title></rect></a><a href="https://publicrecord.studio/app/m/idZItjMSDiM#t3827" class="bs-tick" data-t="3827.7" data-lens="equity" data-text="widely accessible through digital"><rect x="161.4" y="111" width="3" height="9" fill="#C77BA6"><title>1:03:47 · equity: “widely accessible through digital”</title></rect></a><a href="https://publicrecord.studio/app/m/idZItjMSDiM#t3832" class="bs-tick" data-t="3832.2" data-lens="community" data-text="neighborhood histories, and innovated"><rect x="161.6" y="78" width="3" height="9" fill="#3FA9D0"><title>1:03:52 · community: “neighborhood histories, and innovated”</title></rect></a><a href="https://publicrecord.studio/app/m/idZItjMSDiM#t3897" class="bs-tick" data-t="3897" data-lens="process" data-text="contributing articles and commentary to"><rect x="164.4" y="133" width="3" height="9" fill="#7E7D75"><title>1:04:57 · process: “contributing articles and commentary to”</title></rect></a><a href="https://publicrecord.studio/app/m/idZItjMSDiM#t4070" class="bs-tick" data-t="4070.5" data-lens="safety" data-text="been having some uh injuries that have"><rect x="171.8" y="67" width="3" height="9" fill="#B0542D"><title>1:07:50 · safety: “been having some uh injuries that have”</title></rect></a><a href="https://publicrecord.studio/app/m/idZItjMSDiM#t4220" class="bs-tick" data-t="4220" data-lens="equity" data-text="community faces such as discrimination,"><rect x="178.1" y="111" width="3" height="9" fill="#C77BA6"><title>1:10:20 · equity: “community faces such as discrimination,”</title></rect></a><a href="https://publicrecord.studio/app/m/idZItjMSDiM#t4278" class="bs-tick" data-t="4278.4" data-lens="equity" data-text="residents to promote inclusion,"><rect x="180.6" y="111" width="3" height="9" fill="#C77BA6"><title>1:11:18 · equity: “residents to promote inclusion,”</title></rect></a><a href="https://publicrecord.studio/app/m/idZItjMSDiM#t4281" class="bs-tick" data-t="4281.1" data-lens="equity" data-text="challenge discrimination, uplift"><rect x="180.7" y="111" width="3" height="9" fill="#C77BA6"><title>1:11:21 · equity: “challenge discrimination, uplift”</title></rect></a><a href="https://publicrecord.studio/app/m/idZItjMSDiM#t4289" class="bs-tick" data-t="4289.8" data-lens="safety" data-text="and safe community for all. signed by"><rect x="181.1" y="67" width="3" height="9" fill="#B0542D"><title>1:11:29 · safety: “and safe community for all. signed by”</title></rect></a><a href="https://publicrecord.studio/app/m/idZItjMSDiM#t4445" class="bs-tick" data-t="4445.7" data-lens="safety" data-text="calendar. First item, police chief"><rect x="187.7" y="67" width="3" height="9" fill="#B0542D"><title>1:14:05 · safety: “calendar. First item, police chief”</title></rect></a><a href="https://publicrecord.studio/app/m/idZItjMSDiM#t4453" class="bs-tick" data-t="4453.4" data-lens="safety" data-text="chief of police Jennifer Pastard. You"><rect x="188.1" y="67" width="3" height="9" fill="#B0542D"><title>1:14:13 · safety: “chief of police Jennifer Pastard. You”</title></rect></a><a href="https://publicrecord.studio/app/m/idZItjMSDiM#t4476" class="bs-tick" data-t="4476.5" data-lens="process" data-text="policies and procedures have been"><rect x="189" y="133" width="3" height="9" fill="#7E7D75"><title>1:14:36 · process: “policies and procedures have been”</title></rect></a><a href="https://publicrecord.studio/app/m/idZItjMSDiM#t4522" class="bs-tick" data-t="4522.3" data-lens="safety" data-text="taken hold of the police department and"><rect x="191" y="67" width="3" height="9" fill="#B0542D"><title>1:15:22 · safety: “taken hold of the police department and”</title></rect></a><a href="https://publicrecord.studio/app/m/idZItjMSDiM#t4532" class="bs-tick" data-t="4532.7" data-lens="safety" data-text="and effective uh police department. So I"><rect x="191.4" y="67" width="3" height="9" fill="#B0542D"><title>1:15:32 · safety: “and effective uh police department. So I”</title></rect></a><a href="https://publicrecord.studio/app/m/idZItjMSDiM#t4601" class="bs-tick" data-t="4601" data-lens="process" data-text="override uh discussion and hearing."><rect x="194.3" y="133" width="3" height="9" fill="#7E7D75"><title>1:16:41 · process: “override uh discussion and hearing.”</title></rect></a><a href="https://publicrecord.studio/app/m/idZItjMSDiM#t4620" class="bs-tick" data-t="4620.6" data-lens="process" data-text="hearing."><rect x="195.2" y="133" width="3" height="9" fill="#7E7D75"><title>1:17:00 · process: “hearing.”</title></rect></a><a href="https://publicrecord.studio/app/m/idZItjMSDiM#t4623" class="bs-tick" data-t="4623.6" data-lens="process" data-text="panel hearing on alleged license"><rect x="195.3" y="133" width="3" height="9" fill="#7E7D75"><title>1:17:03 · process: “panel hearing on alleged license”</title></rect></a><a href="https://publicrecord.studio/app/m/idZItjMSDiM#t4756" class="bs-tick" data-t="4756.8" data-lens="infrastructure" data-text="address. 1665 Beacon Street. Is is that"><rect x="201" y="122" width="3" height="9" fill="#B08968"><title>1:19:16 · infrastructure: “address. 1665 Beacon Street. Is is that”</title></rect></a><a href="https://publicrecord.studio/app/m/idZItjMSDiM#t4880" class="bs-tick" data-t="4880.6" data-lens="legal" data-text="compliance with this."><rect x="206.2" y="100" width="3" height="9" fill="#7E5B8E"><title>1:21:20 · legal: “compliance with this.”</title></rect></a><a href="https://publicrecord.studio/app/m/idZItjMSDiM#t5418" class="bs-tick" data-t="5418.6" data-lens="infrastructure" data-text="going or road mapap, uh let&#x27;s start off"><rect x="229.1" y="122" width="3" height="9" fill="#B08968"><title>1:30:18 · infrastructure: “going or road mapap, uh let&#x27;s start off”</title></rect></a><a href="https://publicrecord.studio/app/m/idZItjMSDiM#t5423" class="bs-tick" data-t="5423.4" data-lens="environmental" data-text="Thank you, Chair Green and members of"><rect x="229.3" y="89" width="3" height="9" fill="#1E7F63"><title>1:30:23 · environmental: “Thank you, Chair Green and members of”</title></rect></a><a href="https://publicrecord.studio/app/m/idZItjMSDiM#t5635" class="bs-tick" data-t="5635.3" data-lens="financial" data-text="cost is the cost to the um provider and"><rect x="238.4" y="56" width="3" height="9" fill="#A97A16"><title>1:33:55 · financial: “cost is the cost to the um provider and”</title></rect></a><a href="https://publicrecord.studio/app/m/idZItjMSDiM#t5655" class="bs-tick" data-t="5655.8" data-lens="financial" data-text="plan um the revenue funded portion of"><rect x="239.2" y="56" width="3" height="9" fill="#A97A16"><title>1:34:15 · financial: “plan um the revenue funded portion of”</title></rect></a><a href="https://publicrecord.studio/app/m/idZItjMSDiM#t5674" class="bs-tick" data-t="5674.5" data-lens="infrastructure" data-text="year in the CIP. Roads, sidewalks, you"><rect x="240" y="122" width="3" height="9" fill="#B08968"><title>1:34:34 · infrastructure: “year in the CIP. Roads, sidewalks, you”</title></rect></a><a href="https://publicrecord.studio/app/m/idZItjMSDiM#t5727" class="bs-tick" data-t="5727.6" data-lens="legal" data-text="that um that liability will increase"><rect x="242.3" y="100" width="3" height="9" fill="#7E5B8E"><title>1:35:27 · legal: “that um that liability will increase”</title></rect></a><a href="https://publicrecord.studio/app/m/idZItjMSDiM#t5786" class="bs-tick" data-t="5786.3" data-lens="financial" data-text="know, more than a million dollars on"><rect x="244.8" y="56" width="3" height="9" fill="#A97A16"><title>1:36:26 · financial: “know, more than a million dollars on”</title></rect></a><a href="https://publicrecord.studio/app/m/idZItjMSDiM#t5793" class="bs-tick" data-t="5793.8" data-lens="financial" data-text="tax revenues are factored into what"><rect x="245.1" y="56" width="3" height="9" fill="#A97A16"><title>1:36:33 · financial: “tax revenues are factored into what”</title></rect></a><a href="https://publicrecord.studio/app/m/idZItjMSDiM#t5897" class="bs-tick" data-t="5897.2" data-lens="financial" data-text="budget. The town clerk&#x27;s budget has a"><rect x="249.5" y="56" width="3" height="9" fill="#A97A16"><title>1:38:17 · financial: “budget. The town clerk&#x27;s budget has a”</title></rect></a><a href="https://publicrecord.studio/app/m/idZItjMSDiM#t6050" class="bs-tick" data-t="6050.3" data-lens="financial" data-text="funds the projected deficits for those"><rect x="256" y="56" width="3" height="9" fill="#A97A16"><title>1:40:50 · financial: “funds the projected deficits for those”</title></rect></a><a href="https://publicrecord.studio/app/m/idZItjMSDiM#t6455" class="bs-tick" data-t="6455.4" data-lens="environmental" data-text="tree protection positions. Um, and"><rect x="273.3" y="89" width="3" height="9" fill="#1E7F63"><title>1:47:35 · environmental: “tree protection positions. Um, and”</title></rect></a><a href="https://publicrecord.studio/app/m/idZItjMSDiM#t6781" class="bs-tick" data-t="6781.4" data-lens="legal" data-text="votes pass. the statute says that if a"><rect x="287.1" y="100" width="3" height="9" fill="#7E5B8E"><title>1:53:01 · legal: “votes pass. the statute says that if a”</title></rect></a><a href="https://publicrecord.studio/app/m/idZItjMSDiM#t8556" class="bs-tick" data-t="8556.8" data-lens="environmental" data-text="our program sustainability and all of"><rect x="362.7" y="89" width="3" height="9" fill="#1E7F63"><title>2:22:36 · environmental: “our program sustainability and all of”</title></rect></a><a href="https://publicrecord.studio/app/m/idZItjMSDiM#t10217" class="bs-tick" data-t="10217.4" data-lens="legal" data-text="district could be out of compliance with"><rect x="433.4" y="100" width="3" height="9" fill="#7E5B8E"><title>2:50:17 · legal: “district could be out of compliance with”</title></rect></a><a href="https://publicrecord.studio/app/m/idZItjMSDiM#t10227" class="bs-tick" data-t="10227.9" data-lens="legal" data-text="compliance."><rect x="433.8" y="100" width="3" height="9" fill="#7E5B8E"><title>2:50:27 · legal: “compliance.”</title></rect></a><a href="https://publicrecord.studio/app/m/idZItjMSDiM#t11685" class="bs-tick" data-t="11685.2" data-lens="environmental" data-text="community energy and prevents the school"><rect x="495.9" y="89" width="3" height="9" fill="#1E7F63"><title>3:14:45 · environmental: “community energy and prevents the school”</title></rect></a><a href="https://publicrecord.studio/app/m/idZItjMSDiM#t11777" class="bs-tick" data-t="11777.5" data-lens="equity" data-text="not just a budget issue. It is an equity"><rect x="499.8" y="111" width="3" height="9" fill="#C77BA6"><title>3:16:17 · equity: “not just a budget issue. It is an equity”</title></rect></a><a href="https://publicrecord.studio/app/m/idZItjMSDiM#t11825" class="bs-tick" data-t="11825.2" data-lens="legal" data-text="and legally mandated services. When"><rect x="501.8" y="100" width="3" height="9" fill="#7E5B8E"><title>3:17:05 · legal: “and legally mandated services. When”</title></rect></a><a href="https://publicrecord.studio/app/m/idZItjMSDiM#t14270" class="bs-tick" data-t="14270.2" data-lens="environmental" data-text="sustainability. So um I fully support"><rect x="605.9" y="89" width="3" height="9" fill="#1E7F63"><title>3:57:50 · environmental: “sustainability. So um I fully support”</title></rect></a><a href="https://publicrecord.studio/app/m/idZItjMSDiM#t6287" class="bs-money" data-t="6287.3" data-label="$10 million"><line x1="267.6" y1="54" x2="267.6" y2="34" stroke="#A97A16" stroke-width="1"/><text x="267.6" y="34" font-size="10" fill="#7A5A10" text-anchor="start" style="font-family:var(--font-mono)">$10 million<title>$10 million — said 2 times, first at 1:44:47</title></text></a><a href="https://publicrecord.studio/app/m/idZItjMSDiM#t6287" class="bs-money" data-t="6287.3" data-label="$10.1"><line x1="267.6" y1="54" x2="267.6" y2="45" stroke="#A97A16" stroke-width="1"/><text x="267.6" y="45" font-size="10" fill="#7A5A10" text-anchor="start" style="font-family:var(--font-mono)">$10.1<title>$10.1 — said 2 times, first at 1:44:47</title></text></a><a href="https://publicrecord.studio/app/m/idZItjMSDiM#t6453" class="bs-money" data-t="6453" data-label="$300,000"><line x1="274.7" y1="54" x2="274.7" y2="34" stroke="#A97A16" stroke-width="1"/><text x="274.7" y="34" font-size="10" fill="#7A5A10" text-anchor="start" style="font-family:var(--font-mono)">$300,000<title>$300,000 — said 2 times, first at 1:47:33</title></text></a><a href="https://publicrecord.studio/app/m/idZItjMSDiM#t6558" class="bs-money" data-t="6558.3" data-label="$19"><line x1="279.1" y1="54" x2="279.1" y2="45" stroke="#A97A16" stroke-width="1"/><text x="279.1" y="45" font-size="10" fill="#7A5A10" text-anchor="start" style="font-family:var(--font-mono)">$19<title>$19 — said 2 times, first at 1:49:18</title></text></a><a href="https://publicrecord.studio/app/m/idZItjMSDiM#t6636" class="bs-money" data-t="6636.2" data-label="$19 million"><line x1="282.5" y1="54" x2="282.5" y2="34" stroke="#A97A16" stroke-width="1"/><text x="282.5" y="34" font-size="10" fill="#7A5A10" text-anchor="start" style="font-family:var(--font-mono)">$19 million<title>$19 million — said 3 times, first at 1:50:36</title></text></a><a href="https://publicrecord.studio/app/m/idZItjMSDiM#t6693" class="bs-money" data-t="6693" data-label="$18.6"><line x1="284.9" y1="54" x2="284.9" y2="45" stroke="#A97A16" stroke-width="1"/><text x="284.9" y="45" font-size="10" fill="#7A5A10" text-anchor="start" style="font-family:var(--font-mono)">$18.6<title>$18.6 — said 2 times, first at 1:51:33</title></text></a><a href="https://publicrecord.studio/app/m/idZItjMSDiM#t6707" class="bs-money" data-t="6707.8" data-label="$23 million"><line x1="285.5" y1="54" x2="285.5" y2="34" stroke="#A97A16" stroke-width="1"/><text x="285.5" y="34" font-size="10" fill="#7A5A10" text-anchor="start" style="font-family:var(--font-mono)">$23 million<title>$23 million — said 5 times, first at 1:51:47</title></text></a><a href="https://publicrecord.studio/app/m/idZItjMSDiM#t10741" class="bs-money" data-t="10741.3" data-label="$23.2"><line x1="457.2" y1="54" x2="457.2" y2="45" stroke="#A97A16" stroke-width="1"/><text x="457.2" y="45" font-size="10" fill="#7A5A10" text-anchor="start" style="font-family:var(--font-mono)">$23.2<title>$23.2 — said 3 times, first at 2:59:01</title></text></a><a href="https://publicrecord.studio/app/m/idZItjMSDiM#t3682" class="bs-q" data-t="3682.5"><line x1="156.7" y1="24" x2="156.7" y2="31" stroke="#6F6A5B" stroke-width="1"/><title>1:01:22 · a question: “not including the override?”</title></a><a href="https://publicrecord.studio/app/m/idZItjMSDiM#t4332" class="bs-q" data-t="4332.6"><line x1="184.4" y1="24" x2="184.4" y2="31" stroke="#6F6A5B" stroke-width="1"/><title>1:12:12 · a question: “Were they nonsubstantive?”</title></a><a href="https://publicrecord.studio/app/m/idZItjMSDiM#t4357" class="bs-q" data-t="4357.4"><line x1="185.5" y1="24" x2="185.5" y2="31" stroke="#6F6A5B" stroke-width="1"/><title>1:12:37 · a question: “All in favor?”</title></a><a href="https://publicrecord.studio/app/m/idZItjMSDiM#t4377" class="bs-q" data-t="4377.3"><line x1="186.3" y1="24" x2="186.3" y2="31" stroke="#6F6A5B" stroke-width="1"/><title>1:12:57 · a question: “takers on that?”</title></a><a href="https://publicrecord.studio/app/m/idZItjMSDiM#t4381" class="bs-q" data-t="4381.3"><line x1="186.5" y1="24" x2="186.5" y2="31" stroke="#6F6A5B" stroke-width="1"/><title>1:13:01 · a question: “Do we also have to approve 6A?”</title></a><a href="https://publicrecord.studio/app/m/idZItjMSDiM#t4395" class="bs-q" data-t="4395.6"><line x1="187.1" y1="24" x2="187.1" y2="31" stroke="#6F6A5B" stroke-width="1"/><title>1:13:15 · a question: “it called a petition or proclamation?”</title></a><a href="https://publicrecord.studio/app/m/idZItjMSDiM#t4456" class="bs-q" data-t="4456.3"><line x1="189.7" y1="24" x2="189.7" y2="31" stroke="#6F6A5B" stroke-width="1"/><title>1:14:16 · a question: “want to uh talk about that?”</title></a><a href="https://publicrecord.studio/app/m/idZItjMSDiM#t4605" class="bs-q" data-t="4605.6"><line x1="196" y1="24" x2="196" y2="31" stroke="#6F6A5B" stroke-width="1"/><title>1:16:45 · a question: “Did I miss something?”</title></a><a href="https://publicrecord.studio/app/m/idZItjMSDiM#t4644" class="bs-q" data-t="4644.7"><line x1="197.7" y1="24" x2="197.7" y2="31" stroke="#6F6A5B" stroke-width="1"/><title>1:17:24 · a question: “to present that?”</title></a><a href="https://publicrecord.studio/app/m/idZItjMSDiM#t4747" class="bs-q" data-t="4747.6"><line x1="202.1" y1="24" x2="202.1" y2="31" stroke="#6F6A5B" stroke-width="1"/><title>1:19:07 · a question: “Um, any other questions?”</title></a><a href="https://publicrecord.studio/app/m/idZItjMSDiM#t4754" class="bs-q" data-t="4754.2"><line x1="202.4" y1="24" x2="202.4" y2="31" stroke="#6F6A5B" stroke-width="1"/><title>1:19:14 · a question: “this one located?”</title></a><a href="https://publicrecord.studio/app/m/idZItjMSDiM#t4780" class="bs-q" data-t="4780.2"><line x1="203.5" y1="24" x2="203.5" y2="31" stroke="#6F6A5B" stroke-width="1"/><title>1:19:40 · a question: “anything more than that?”</title></a><a href="https://publicrecord.studio/app/m/idZItjMSDiM#t4826" class="bs-q" data-t="4826.4"><line x1="205.4" y1="24" x2="205.4" y2="31" stroke="#6F6A5B" stroke-width="1"/><title>1:20:26 · a question: “from March Select here?”</title></a><a href="https://publicrecord.studio/app/m/idZItjMSDiM#t4836" class="bs-q" data-t="4836.2"><line x1="205.8" y1="24" x2="205.8" y2="31" stroke="#6F6A5B" stroke-width="1"/><title>1:20:36 · a question: “inspection here?”</title></a><a href="https://publicrecord.studio/app/m/idZItjMSDiM#t4873" class="bs-q" data-t="4873.8"><line x1="207.4" y1="24" x2="207.4" y2="31" stroke="#6F6A5B" stroke-width="1"/><title>1:21:13 · a question: “that&#x27;s okay?”</title></a><a href="https://publicrecord.studio/app/m/idZItjMSDiM#t4947" class="bs-q" data-t="4947.7"><line x1="210.6" y1="24" x2="210.6" y2="31" stroke="#6F6A5B" stroke-width="1"/><title>1:22:27 · a question: “Does that sound all right to you?”</title></a><a href="https://publicrecord.studio/app/m/idZItjMSDiM#t4976" class="bs-q" data-t="4976.2"><line x1="211.8" y1="24" x2="211.8" y2="31" stroke="#6F6A5B" stroke-width="1"/><title>1:22:56 · a question: “fix the problem?”</title></a><a href="https://publicrecord.studio/app/m/idZItjMSDiM#t5177" class="bs-q" data-t="5177.4"><line x1="220.4" y1="24" x2="220.4" y2="31" stroke="#6F6A5B" stroke-width="1"/><title>1:26:17 · a question: “uh without or have you stopped cooking?”</title></a><a href="https://publicrecord.studio/app/m/idZItjMSDiM#t5341" class="bs-q" data-t="5341.2"><line x1="227.3" y1="24" x2="227.3" y2="31" stroke="#6F6A5B" stroke-width="1"/><title>1:29:01 · a question: “may not do it, okay?”</title></a><a href="https://publicrecord.studio/app/m/idZItjMSDiM#t5349" class="bs-q" data-t="5349.4"><line x1="227.7" y1="24" x2="227.7" y2="31" stroke="#6F6A5B" stroke-width="1"/><title>1:29:09 · a question: “on two things?”</title></a><a href="https://publicrecord.studio/app/m/idZItjMSDiM#t5427" class="bs-q" data-t="5427.7"><line x1="231" y1="24" x2="231" y2="31" stroke="#6F6A5B" stroke-width="1"/><title>1:30:27 · a question: “Is that all right?”</title></a><a href="https://publicrecord.studio/app/m/idZItjMSDiM#t5690" class="bs-q" data-t="5690.7"><line x1="242.2" y1="24" x2="242.2" y2="31" stroke="#6F6A5B" stroke-width="1"/><title>1:34:50 · a question: “Could you go below 6%?”</title></a><a href="https://publicrecord.studio/app/m/idZItjMSDiM#t6063" class="bs-q" data-t="6063"><line x1="258.1" y1="24" x2="258.1" y2="31" stroke="#6F6A5B" stroke-width="1"/><title>1:41:03 · a question: “appears on the ballot, right?”</title></a><a href="https://publicrecord.studio/app/m/idZItjMSDiM#t6629" class="bs-q" data-t="6629.3"><line x1="282.2" y1="24" x2="282.2" y2="31" stroke="#6F6A5B" stroke-width="1"/><title>1:50:29 · a question: “phase number?”</title></a><a href="https://publicrecord.studio/app/m/idZItjMSDiM#t1126" class="bs-dec" data-i="0" data-t="1126.7" data-kind="decision"><circle cx="48" cy="44" r="7.2" fill="#191712" opacity=".9"><title>18:46 · decision: “of real property may have a detrimental effect on the bargaining position of the town and the chair so declares an…”</title></circle></a><a href="https://publicrecord.studio/app/m/idZItjMSDiM#t3953" class="bs-dec" data-i="1" data-t="3953.7" data-kind="decision"><circle cx="168.3" cy="44" r="7.6" fill="#191712" opacity=".9"><title>1:05:53 · decision: “residents and students engage more fully with Brooklyn&#x27;s unique past, deepened civic understanding of the town&#x27;s…”</title></circle></a><a href="https://publicrecord.studio/app/m/idZItjMSDiM#t4357" class="bs-dec" data-i="2" data-t="4357.4" data-kind="vote"><circle cx="185.5" cy="44" r="8" fill="#191712" opacity=".9"><title>1:12:37 · roll call: “the minutes for March 10 and March 17, unless there are objections. Um, I move”</title></circle></a><a href="https://publicrecord.studio/app/m/idZItjMSDiM#t4381" class="bs-dec" data-i="3" data-t="4381.3" data-kind="decision"><circle cx="186.5" cy="44" r="7.4" fill="#191712" opacity=".9"><title>1:13:01 · decision: “Do we also have to approve 6A?”</title></circle></a><a href="https://publicrecord.studio/app/m/idZItjMSDiM#t4406" class="bs-dec" data-i="4" data-t="4406.6" data-kind="vote"><circle cx="187.6" cy="44" r="7.8" fill="#191712" opacity=".9"><title>1:13:26 · roll call: “Okay. Um I move approval of the um was Proclamation. I move approval of the”</title></circle></a><a href="https://publicrecord.studio/app/m/idZItjMSDiM#t4414" class="bs-dec" data-i="5" data-t="4414.2" data-kind="decision"><circle cx="187.9" cy="44" r="7.3" fill="#191712" opacity=".9"><title>1:13:34 · decision: “And chair votes I.”</title></circle></a><a href="https://publicrecord.studio/app/m/idZItjMSDiM#t4431" class="bs-dec" data-i="6" data-t="4431.7" data-kind="vote"><circle cx="188.6" cy="44" r="8" fill="#191712" opacity=".9"><title>1:13:51 · roll call: “Um, seeing none, I move approval of”</title></circle></a><a href="https://publicrecord.studio/app/m/idZItjMSDiM#t4584" class="bs-dec" data-i="7" data-t="4584.9" data-kind="vote"><circle cx="195.1" cy="44" r="8" fill="#191712" opacity=".9"><title>1:16:24 · roll call: “Thank you. So I move approval of the uh”</title></circle></a><a href="https://publicrecord.studio/app/m/idZItjMSDiM#t4742" class="bs-dec" data-i="8" data-t="4742.4" data-kind="decision"><circle cx="201.9" cy="44" r="7.2" fill="#191712" opacity=".9"><title>1:19:02 · decision: “So we will after the if with the board&#x27;s approval I&#x27;d like to authorize us to just tell them that they&#x27;re operating…”</title></circle></a><a href="https://publicrecord.studio/app/m/idZItjMSDiM#t4790" class="bs-dec" data-i="9" data-t="4790.3" data-kind="vote"><circle cx="203.9" cy="44" r="7.8" fill="#191712" opacity=".9"><title>1:19:50 · roll call: “our, you know, in our wheelhouse, but they need to get it back to us.”</title></circle></a><a href="https://publicrecord.studio/app/m/idZItjMSDiM#t4798" class="bs-dec" data-i="10" data-t="4798.6" data-kind="decision"><circle cx="204.2" cy="44" r="7.2" fill="#191712" opacity=".9"><title>1:19:58 · decision: “Chair votes I. Next, we have continuation of licensing panel hearing on alleged license violation by Maruchcci select.…”</title></circle></a><a href="https://publicrecord.studio/app/m/idZItjMSDiM#t4871" class="bs-dec" data-i="11" data-t="4871.1" data-kind="decision"><circle cx="207.3" cy="44" r="6.9" fill="#191712" opacity=".9"><title>1:21:11 · decision: “non-compliant status. He continually went there for, I believe, four more occasions and most recently on March 4th, it…”</title></circle></a><a href="https://publicrecord.studio/app/m/idZItjMSDiM#t5534" class="bs-dec" data-i="12" data-t="5534.7" data-kind="decision"><circle cx="235.6" cy="44" r="7.2" fill="#191712" opacity=".9"><title>1:32:14 · decision: “Um, so, um, historically, Brookline, as you know, but the public may not know, um, has structured overrides in sort of…”</title></circle></a><a href="https://publicrecord.studio/app/m/idZItjMSDiM#t6010" class="bs-dec" data-i="13" data-t="6010.6" data-kind="decision"><circle cx="255.8" cy="44" r="7.3" fill="#191712" opacity=".9"><title>1:40:10 · decision: “Um, it is um, you know, it is not reflective of other people&#x27;s budgets. We will have a tax calculator online that will…”</title></circle></a><a href="https://publicrecord.studio/app/m/idZItjMSDiM#t7193" class="bs-dec" data-i="14" data-t="7193" data-kind="tension"><circle cx="306.2" cy="44" r="6.9" fill="#B23A1D" opacity=".9"><title>1:59:53 · pushback: “Um and I&#x27;m concerned about it. I I I think I think you&#x27;re right, but I also think that at the end of the day, you know…”</title></circle></a><a href="https://publicrecord.studio/app/m/idZItjMSDiM#t11505" class="bs-dec" data-i="15" data-t="11505.7" data-kind="tension"><circle cx="489.7" cy="44" r="7" fill="#B23A1D" opacity=".9"><title>3:11:45 · pushback: “I hold here a petition signed by 1,269 Brookline residents, our neighbors, school committee members, library trustees…”</title></circle></a><a href="https://publicrecord.studio/app/m/idZItjMSDiM#t14085" class="bs-dec" data-i="16" data-t="14085.1" data-kind="tension"><circle cx="599.5" cy="44" r="6.9" fill="#B23A1D" opacity=".9"><title>3:54:45 · pushback: “Um, you know, there are people that based on what we do tonight will may be able to stay in Brooklyn or not based on…”</title></circle></a><a href="https://publicrecord.studio/app/m/idZItjMSDiM#t14132" class="bs-dec" data-i="17" data-t="14132.6" data-kind="tension"><circle cx="601.5" cy="44" r="6.9" fill="#B23A1D" opacity=".9"><title>3:55:32 · pushback: “COVID. Um, and the danger I think that we face with the schools is, and I&#x27;ll speak to the town in a minute, but the…”</title></circle></a><a href="https://publicrecord.studio/app/m/idZItjMSDiM#t14279" class="bs-dec" data-i="18" data-t="14279.4" data-kind="tension"><circle cx="607.8" cy="44" r="6.8" fill="#B23A1D" opacity=".9"><title>3:57:59 · pushback: “Um I am concerned about a little bit of rolling the dice um with with one number. Uh but you know I think that one…”</title></circle></a><a href="https://publicrecord.studio/app/m/idZItjMSDiM#t15167" class="bs-dec" data-i="19" data-t="15167.8" data-kind="tension"><circle cx="645.6" cy="44" r="6.9" fill="#B23A1D" opacity=".9"><title>4:12:47 · pushback: “And that person today is very very concerned.”</title></circle></a><a href="https://publicrecord.studio/app/m/idZItjMSDiM#t15558" class="bs-dec" data-i="20" data-t="15558" data-kind="tension"><circle cx="662.2" cy="44" r="6.9" fill="#B23A1D" opacity=".9"><title>4:19:18 · pushback: “Oh, well, then we have a different definition of reasonable, you know, and you know, you know, I I I appreciate, you…”</title></circle></a><a href="https://publicrecord.studio/app/m/idZItjMSDiM#t15979" class="bs-dec" data-i="21" data-t="15979.2" data-kind="vote"><circle cx="680.1" cy="44" r="8" fill="#191712" opacity=".9"><title>4:26:19 · roll call: “Two hot dogs. I don&#x27;t whatever you want to call it.”</title></circle></a><a href="https://publicrecord.studio/app/m/idZItjMSDiM#t16611" class="bs-dec" data-i="22" data-t="16611.7" data-kind="vote"><circle cx="707.1" cy="44" r="7.8" fill="#191712" opacity=".9"><title>4:36:51 · roll call: “Okay. So, you have your motion. So moved.”</title></circle></a><a href="https://publicrecord.studio/app/m/idZItjMSDiM#t18113" class="bs-dec" data-i="23" data-t="18113.5" data-kind="vote"><circle cx="771" cy="44" r="8" fill="#191712" opacity=".9"><title>5:01:53 · roll call: “So I&#x27;d like to move approval of uh the”</title></circle></a><g class="bs-playhead"><line x1="185" y1="32" x2="185" y2="150" stroke="#B23A1D" stroke-width="2"/><text x="185" y="164" font-size="11" fill="#B23A1D" text-anchor="middle" style="font-family:var(--font-mono)">1:12:37</text></g><text x="0" y="166" font-size="10" fill="#6F6A5B" text-anchor="start" style="font-family:var(--font-mono)">0:00</text><text x="76.6" y="166" font-size="10" fill="#6F6A5B" text-anchor="middle" style="font-family:var(--font-mono)">30:00</text><text x="153.2" y="166" font-size="10" fill="#6F6A5B" text-anchor="middle" style="font-family:var(--font-mono)">1:00:00</text><text x="229.8" y="166" font-size="10" fill="#6F6A5B" text-anchor="middle" style="font-family:var(--font-mono)">1:30:00</text><text x="306.5" y="166" font-size="10" fill="#6F6A5B" text-anchor="middle" style="font-family:var(--font-mono)">2:00:00</text><text x="383.1" y="166" font-size="10" fill="#6F6A5B" text-anchor="middle" style="font-family:var(--font-mono)">2:30:00</text><text x="459.7" y="166" font-size="10" fill="#6F6A5B" text-anchor="middle" style="font-family:var(--font-mono)">3:00:00</text><text x="536.3" y="166" font-size="10" fill="#6F6A5B" text-anchor="middle" style="font-family:var(--font-mono)">3:30:00</text><text x="612.9" y="166" font-size="10" fill="#6F6A5B" text-anchor="middle" style="font-family:var(--font-mono)">4:00:00</text><text x="689.5" y="166" font-size="10" fill="#6F6A5B" text-anchor="middle" style="font-family:var(--font-mono)">4:30:00</text><text x="766.1" y="166" font-size="10" fill="#6F6A5B" text-anchor="middle" style="font-family:var(--font-mono)">5:00:00</text><text x="842.8" y="166" font-size="10" fill="#6F6A5B" text-anchor="middle" style="font-family:var(--font-mono)">5:30:00</text></svg><text x="16" y="236" font-size="10" fill="#475569">a dot is a decision, sized by its weight; rust, pushback · a tick above, a question · $ a dollar figure · the eight lanes: where each lens’s words fell</text><text x="16" y="250" font-size="10" fill="#475569">https://publicrecord.studio/app/m/idZItjMSDiM</text><text x="16" y="264" font-size="10" fill="#475569">counted from the record’s transcripts, no model · the record of 2026-09-22 · CC BY-SA 4.0</text></svg>
