<?xml version="1.0" encoding="UTF-8"?>
<svg xmlns="http://www.w3.org/2000/svg" width="953" height="276" viewBox="0 0 953 276" font-family="IBM Plex Mono, Menlo, Consolas, monospace"><title>The shape of the tape — Government Operations on September 21, 2026</title><rect width="953" height="276" fill="#ffffff"/><text x="16" y="26" font-size="13" font-weight="700" fill="#0f172a">The shape of the tape — Government Operations on September 21, 2026</text><svg x="36" y="44" width="880" height="168" viewBox="-100 0 990 168"><rect x="0" y="56" width="880" height="90" fill="#F3EEE3" rx="4"/><rect x="-6" y="57" width="4" height="7" fill="#A97A16"/><text x="-12" y="64" font-size="9" fill="#4B473E" text-anchor="end" style="font-family:var(--font-mono)">financial</text><path class="bs-lane" data-lens="financial" d="M410.7,62h14.1v3h-14.1zM425.3,62h14.1v3h-14.1zM440,62h14.1v3h-14.1zM469.3,62h14.1v3h-14.1zM513.3,62h14.1v3h-14.1zM586.7,56h14.1v9h-14.1zM616,62h14.1v3h-14.1zM630.7,62h14.1v3h-14.1zM674.7,62h14.1v3h-14.1zM718.7,62h14.1v3h-14.1zM733.3,62h14.1v3h-14.1zM792,62h14.1v3h-14.1zM850.7,62h14.1v3h-14.1z" fill="#A97A16" opacity=".55"><title>financial — 15 words, where they fell along the tape</title></path><rect x="-6" y="68" width="4" height="7" fill="#B0542D"/><text x="-12" y="75" font-size="9" fill="#4B473E" text-anchor="end" style="font-family:var(--font-mono)">safety</text><path class="bs-lane" data-lens="safety" d="M0,74h14.1v2h-14.1zM29.3,73.4h14.1v2.6h-14.1zM44,69.6h14.1v6.4h-14.1zM58.7,74h14.1v2h-14.1zM88,74h14.1v2h-14.1zM102.7,73.4h14.1v2.6h-14.1zM161.3,73.4h14.1v2.6h-14.1zM176,73.4h14.1v2.6h-14.1zM190.7,73.4h14.1v2.6h-14.1zM205.3,74h14.1v2h-14.1zM220,67h14.1v9h-14.1zM234.7,70.9h14.1v5.1h-14.1zM249.3,74h14.1v2h-14.1zM278.7,73.4h14.1v2.6h-14.1zM293.3,72.1h14.1v3.9h-14.1zM308,73.4h14.1v2.6h-14.1zM352,74h14.1v2h-14.1zM381.3,73.4h14.1v2.6h-14.1zM396,73.4h14.1v2.6h-14.1zM410.7,70.9h14.1v5.1h-14.1zM440,70.9h14.1v5.1h-14.1zM469.3,74h14.1v2h-14.1zM484,72.1h14.1v3.9h-14.1zM498.7,73.4h14.1v2.6h-14.1zM513.3,70.9h14.1v5.1h-14.1zM528,73.4h14.1v2.6h-14.1zM542.7,74h14.1v2h-14.1zM557.3,72.1h14.1v3.9h-14.1zM601.3,73.4h14.1v2.6h-14.1zM616,74h14.1v2h-14.1zM630.7,74h14.1v2h-14.1zM660,74h14.1v2h-14.1zM674.7,74h14.1v2h-14.1zM689.3,73.4h14.1v2.6h-14.1zM733.3,72.1h14.1v3.9h-14.1zM748,73.4h14.1v2.6h-14.1zM777.3,68.3h14.1v7.7h-14.1zM806.7,73.4h14.1v2.6h-14.1zM821.3,74h14.1v2h-14.1z" fill="#B0542D" opacity=".55"><title>safety — 89 words, where they fell along the tape</title></path><rect x="-6" y="79" width="4" height="7" fill="#3FA9D0"/><text x="-12" y="86" font-size="9" fill="#4B473E" text-anchor="end" style="font-family:var(--font-mono)">community</text><path class="bs-lane" data-lens="community" d="M29.3,82.5h14.1v4.5h-14.1zM44,82.5h14.1v4.5h-14.1zM58.7,84.8h14.1v2.2h-14.1zM102.7,80.2h14.1v6.8h-14.1zM117.3,84.8h14.1v2.2h-14.1zM249.3,84.8h14.1v2.2h-14.1zM264,82.5h14.1v4.5h-14.1zM278.7,84.8h14.1v2.2h-14.1zM308,84.8h14.1v2.2h-14.1zM322.7,84.8h14.1v2.2h-14.1zM337.3,82.5h14.1v4.5h-14.1zM352,84.8h14.1v2.2h-14.1zM366.7,84.8h14.1v2.2h-14.1zM410.7,84.8h14.1v2.2h-14.1zM484,82.5h14.1v4.5h-14.1zM498.7,84.8h14.1v2.2h-14.1zM586.7,84.8h14.1v2.2h-14.1zM601.3,84.8h14.1v2.2h-14.1zM660,84.8h14.1v2.2h-14.1zM718.7,84.8h14.1v2.2h-14.1zM748,78h14.1v9h-14.1zM762.7,78h14.1v9h-14.1zM792,84.8h14.1v2.2h-14.1zM821.3,80.2h14.1v6.8h-14.1zM850.7,82.5h14.1v4.5h-14.1z" fill="#3FA9D0" opacity=".55"><title>community — 41 words, where they fell along the tape</title></path><rect x="-6" y="90" width="4" height="7" fill="#1E7F63"/><text x="-12" y="97" font-size="9" fill="#4B473E" text-anchor="end" style="font-family:var(--font-mono)">environmental</text><path class="bs-lane" data-lens="environmental" d="M29.3,95h14.1v3h-14.1zM58.7,95h14.1v3h-14.1zM322.7,95h14.1v3h-14.1zM337.3,95h14.1v3h-14.1zM425.3,89h14.1v9h-14.1zM674.7,95h14.1v3h-14.1zM718.7,95h14.1v3h-14.1zM748,95h14.1v3h-14.1zM762.7,92h14.1v6h-14.1zM792,95h14.1v3h-14.1zM836,95h14.1v3h-14.1z" fill="#1E7F63" opacity=".55"><title>environmental — 14 words, where they fell along the tape</title></path><rect x="-6" y="101" width="4" height="7" fill="#7E5B8E"/><text x="-12" y="108" font-size="9" fill="#4B473E" text-anchor="end" style="font-family:var(--font-mono)">legal</text><path class="bs-lane" data-lens="legal" d="M0,106h14.1v3h-14.1zM14.7,104.5h14.1v4.5h-14.1zM29.3,104.5h14.1v4.5h-14.1zM58.7,101.5h14.1v7.5h-14.1zM73.3,101.5h14.1v7.5h-14.1zM88,106h14.1v3h-14.1zM102.7,107h14.1v2h-14.1zM117.3,106h14.1v3h-14.1zM132,107h14.1v2h-14.1zM146.7,107h14.1v2h-14.1zM161.3,106h14.1v3h-14.1zM176,103h14.1v6h-14.1zM190.7,107h14.1v2h-14.1zM205.3,101.5h14.1v7.5h-14.1zM220,107h14.1v2h-14.1zM234.7,104.5h14.1v4.5h-14.1zM264,106h14.1v3h-14.1zM278.7,106h14.1v3h-14.1zM293.3,107h14.1v2h-14.1zM308,107h14.1v2h-14.1zM337.3,107h14.1v2h-14.1zM366.7,100h14.1v9h-14.1zM381.3,107h14.1v2h-14.1zM440,106h14.1v3h-14.1zM498.7,107h14.1v2h-14.1zM528,107h14.1v2h-14.1zM542.7,101.5h14.1v7.5h-14.1zM557.3,103h14.1v6h-14.1zM572,106h14.1v3h-14.1zM586.7,107h14.1v2h-14.1zM645.3,104.5h14.1v4.5h-14.1zM660,104.5h14.1v4.5h-14.1zM718.7,107h14.1v2h-14.1zM733.3,107h14.1v2h-14.1zM748,106h14.1v3h-14.1zM762.7,107h14.1v2h-14.1zM792,106h14.1v3h-14.1zM821.3,107h14.1v2h-14.1zM836,104.5h14.1v4.5h-14.1zM865.3,107h14.1v2h-14.1z" fill="#7E5B8E" opacity=".55"><title>legal — 89 words, where they fell along the tape</title></path><rect x="-6" y="112" width="4" height="7" fill="#C77BA6"/><text x="-12" y="119" font-size="9" fill="#4B473E" text-anchor="end" style="font-family:var(--font-mono)">equity</text><rect x="-6" y="123" width="4" height="7" fill="#B08968"/><text x="-12" y="130" font-size="9" fill="#4B473E" text-anchor="end" style="font-family:var(--font-mono)">infrastructure</text><path class="bs-lane" data-lens="infrastructure" d="M14.7,122h14.1v9h-14.1zM337.3,122h14.1v9h-14.1zM762.7,122h14.1v9h-14.1z" fill="#B08968" opacity=".55"><title>infrastructure — 3 words, where they fell along the tape</title></path><rect x="-6" y="134" width="4" height="7" fill="#7E7D75"/><text x="-12" y="141" font-size="9" fill="#4B473E" text-anchor="end" style="font-family:var(--font-mono)">process</text><path class="bs-lane" data-lens="process" d="M0,133h14.1v9h-14.1zM14.7,139.8h14.1v2.2h-14.1zM29.3,137.5h14.1v4.5h-14.1zM44,137.5h14.1v4.5h-14.1zM58.7,139.8h14.1v2.2h-14.1zM88,139.8h14.1v2.2h-14.1zM117.3,139.8h14.1v2.2h-14.1zM205.3,139.8h14.1v2.2h-14.1zM234.7,139.8h14.1v2.2h-14.1zM308,137.5h14.1v4.5h-14.1zM366.7,139.8h14.1v2.2h-14.1zM381.3,139.8h14.1v2.2h-14.1zM469.3,139.8h14.1v2.2h-14.1zM484,139.8h14.1v2.2h-14.1zM498.7,135.2h14.1v6.8h-14.1zM572,139.8h14.1v2.2h-14.1zM733.3,139.8h14.1v2.2h-14.1zM777.3,139.8h14.1v2.2h-14.1zM792,139.8h14.1v2.2h-14.1zM821.3,139.8h14.1v2.2h-14.1zM850.7,139.8h14.1v2.2h-14.1zM865.3,133h14.1v9h-14.1z" fill="#7E7D75" opacity=".55"><title>process — 33 words, where they fell along the tape</title></path><a href="https://publicrecord.studio/app/m/rnQvGjoUlmQ#t55" class="bs-tick" data-t="55.3" data-lens="process" data-text="THIS HEARING IS BEING RECORDED."><rect x="3.1" y="133" width="3" height="9" fill="#7E7D75"><title>0:55 · process: “THIS HEARING IS BEING RECORDED.”</title></rect></a><a href="https://publicrecord.studio/app/m/rnQvGjoUlmQ#t84" class="bs-tick" data-t="84.6" data-lens="process" data-text="AT THE END OF THIS HEARING."><rect x="5.5" y="133" width="3" height="9" fill="#7E7D75"><title>1:24 · process: “AT THE END OF THIS HEARING.”</title></rect></a><a href="https://publicrecord.studio/app/m/rnQvGjoUlmQ#t113" class="bs-tick" data-t="113.2" data-lens="process" data-text="TODAY&#x27;S HEARING IS ON DOCKET"><rect x="7.8" y="133" width="3" height="9" fill="#7E7D75"><title>1:53 · process: “TODAY&#x27;S HEARING IS ON DOCKET”</title></rect></a><a href="https://publicrecord.studio/app/m/rnQvGjoUlmQ#t114" class="bs-tick" data-t="114.9" data-lens="legal" data-text="141 FOR AN ORDINANCE AMENDING"><rect x="8" y="100" width="3" height="9" fill="#7E5B8E"><title>1:54 · legal: “141 FOR AN ORDINANCE AMENDING”</title></rect></a><a href="https://publicrecord.studio/app/m/rnQvGjoUlmQ#t119" class="bs-tick" data-t="119.3" data-lens="legal" data-text="CODE ORDINANCES PROHIBITING THE"><rect x="8.3" y="100" width="3" height="9" fill="#7E5B8E"><title>1:59 · legal: “CODE ORDINANCES PROHIBITING THE”</title></rect></a><a href="https://publicrecord.studio/app/m/rnQvGjoUlmQ#t142" class="bs-tick" data-t="142.3" data-lens="safety" data-text="7-0H AND OTHER DANGEROUS"><rect x="10.2" y="67" width="3" height="9" fill="#B0542D"><title>2:22 · safety: “7-0H AND OTHER DANGEROUS”</title></rect></a><a href="https://publicrecord.studio/app/m/rnQvGjoUlmQ#t224" class="bs-tick" data-t="224.9" data-lens="legal" data-text="THAT THERE MIGHT BE SOME LEGAL"><rect x="17" y="100" width="3" height="9" fill="#7E5B8E"><title>3:44 · legal: “THAT THERE MIGHT BE SOME LEGAL”</title></rect></a><a href="https://publicrecord.studio/app/m/rnQvGjoUlmQ#t238" class="bs-tick" data-t="238.2" data-lens="infrastructure" data-text="ON THE STREETS IS THE SYNTHETIC"><rect x="18.1" y="122" width="3" height="9" fill="#B08968"><title>3:58 · infrastructure: “ON THE STREETS IS THE SYNTHETIC”</title></rect></a><a href="https://publicrecord.studio/app/m/rnQvGjoUlmQ#t260" class="bs-tick" data-t="260" data-lens="legal" data-text="KNOWING WITH SOME LEGAL ACTION"><rect x="19.9" y="100" width="3" height="9" fill="#7E5B8E"><title>4:20 · legal: “KNOWING WITH SOME LEGAL ACTION”</title></rect></a><a href="https://publicrecord.studio/app/m/rnQvGjoUlmQ#t279" class="bs-tick" data-t="279.6" data-lens="legal" data-text="OUR ORDINANCE WOULD GO INTO"><rect x="21.5" y="100" width="3" height="9" fill="#7E5B8E"><title>4:39 · legal: “OUR ORDINANCE WOULD GO INTO”</title></rect></a><a href="https://publicrecord.studio/app/m/rnQvGjoUlmQ#t310" class="bs-tick" data-t="310.2" data-lens="process" data-text="IMPORTANT HEARING."><rect x="24" y="133" width="3" height="9" fill="#7E7D75"><title>5:10 · process: “IMPORTANT HEARING.”</title></rect></a><a href="https://publicrecord.studio/app/m/rnQvGjoUlmQ#t401" class="bs-tick" data-t="401.7" data-lens="legal" data-text="REGULATION OVER THESE PRODUCTS"><rect x="31.6" y="100" width="3" height="9" fill="#7E5B8E"><title>6:41 · legal: “REGULATION OVER THESE PRODUCTS”</title></rect></a><a href="https://publicrecord.studio/app/m/rnQvGjoUlmQ#t406" class="bs-tick" data-t="406.2" data-lens="community" data-text="RESIDENTS WITH HEALTHY AND SAFE"><rect x="32" y="78" width="3" height="9" fill="#3FA9D0"><title>6:46 · community: “RESIDENTS WITH HEALTHY AND SAFE”</title></rect></a><a href="https://publicrecord.studio/app/m/rnQvGjoUlmQ#t406" class="bs-tick" data-t="406.2" data-lens="safety" data-text="RESIDENTS WITH HEALTHY AND SAFE"><rect x="32" y="67" width="3" height="9" fill="#B0542D"><title>6:46 · safety: “RESIDENTS WITH HEALTHY AND SAFE”</title></rect></a><a href="https://publicrecord.studio/app/m/rnQvGjoUlmQ#t408" class="bs-tick" data-t="408.3" data-lens="environmental" data-text="ENVIRONMENTS."><rect x="32.1" y="89" width="3" height="9" fill="#1E7F63"><title>6:48 · environmental: “ENVIRONMENTS.”</title></rect></a><a href="https://publicrecord.studio/app/m/rnQvGjoUlmQ#t421" class="bs-tick" data-t="421.4" data-lens="process" data-text="HEARING."><rect x="33.2" y="133" width="3" height="9" fill="#7E7D75"><title>7:01 · process: “HEARING.”</title></rect></a><a href="https://publicrecord.studio/app/m/rnQvGjoUlmQ#t425" class="bs-tick" data-t="425.2" data-lens="process" data-text="THIS DOCKET FORWARD AND"><rect x="33.5" y="133" width="3" height="9" fill="#7E7D75"><title>7:05 · process: “THIS DOCKET FORWARD AND”</title></rect></a><a href="https://publicrecord.studio/app/m/rnQvGjoUlmQ#t449" class="bs-tick" data-t="449.3" data-lens="safety" data-text="HEALTH AND SAFETY CONCERNS"><rect x="35.5" y="67" width="3" height="9" fill="#B0542D"><title>7:29 · safety: “HEALTH AND SAFETY CONCERNS”</title></rect></a><a href="https://publicrecord.studio/app/m/rnQvGjoUlmQ#t521" class="bs-tick" data-t="521.4" data-lens="community" data-text="HEARD FROM FAMILIES WHO"><rect x="41.4" y="78" width="3" height="9" fill="#3FA9D0"><title>8:41 · community: “HEARD FROM FAMILIES WHO”</title></rect></a><a href="https://publicrecord.studio/app/m/rnQvGjoUlmQ#t540" class="bs-tick" data-t="540.1" data-lens="community" data-text="CAN PROTECT RESIDENTS FROM"><rect x="43" y="78" width="3" height="9" fill="#3FA9D0"><title>9:00 · community: “CAN PROTECT RESIDENTS FROM”</title></rect></a><a href="https://publicrecord.studio/app/m/rnQvGjoUlmQ#t542" class="bs-tick" data-t="542.4" data-lens="safety" data-text="POTENTIALLY DANGEROUS PRODUCTS"><rect x="43.2" y="67" width="3" height="9" fill="#B0542D"><title>9:02 · safety: “POTENTIALLY DANGEROUS PRODUCTS”</title></rect></a><a href="https://publicrecord.studio/app/m/rnQvGjoUlmQ#t549" class="bs-tick" data-t="549.5" data-lens="safety" data-text="ENFORCEABLE AND GROUNDED IN THE"><rect x="43.8" y="67" width="3" height="9" fill="#B0542D"><title>9:09 · safety: “ENFORCEABLE AND GROUNDED IN THE”</title></rect></a><a href="https://publicrecord.studio/app/m/rnQvGjoUlmQ#t587" class="bs-tick" data-t="587.7" data-lens="community" data-text="OUR YOUTH."><rect x="46.9" y="78" width="3" height="9" fill="#3FA9D0"><title>9:47 · community: “OUR YOUTH.”</title></rect></a><a href="https://publicrecord.studio/app/m/rnQvGjoUlmQ#t637" class="bs-tick" data-t="637.9" data-lens="safety" data-text="ALSO KNOWN AS 700 ARE DANGEROUS"><rect x="51" y="67" width="3" height="9" fill="#B0542D"><title>10:37 · safety: “ALSO KNOWN AS 700 ARE DANGEROUS”</title></rect></a><a href="https://publicrecord.studio/app/m/rnQvGjoUlmQ#t763" class="bs-tick" data-t="763.2" data-lens="community" data-text="BOSTON RESIDENT IS LOOKING FOR"><rect x="61.4" y="78" width="3" height="9" fill="#3FA9D0"><title>12:43 · community: “BOSTON RESIDENT IS LOOKING FOR”</title></rect></a><a href="https://publicrecord.studio/app/m/rnQvGjoUlmQ#t834" class="bs-tick" data-t="834.1" data-lens="environmental" data-text="ENERGY DRINK OR JUST QUICK PAIN"><rect x="67.2" y="89" width="3" height="9" fill="#1E7F63"><title>13:54 · environmental: “ENERGY DRINK OR JUST QUICK PAIN”</title></rect></a><a href="https://publicrecord.studio/app/m/rnQvGjoUlmQ#t1404" class="bs-tick" data-t="1404.9" data-lens="community" data-text="I WAS AT A COMMUNITY MEETING"><rect x="114.2" y="78" width="3" height="9" fill="#3FA9D0"><title>23:24 · community: “I WAS AT A COMMUNITY MEETING”</title></rect></a><a href="https://publicrecord.studio/app/m/rnQvGjoUlmQ#t4040" class="bs-tick" data-t="4040.7" data-lens="environmental" data-text="UH, HAVE ENERGY OR PROVIDE, UH,"><rect x="331.3" y="89" width="3" height="9" fill="#1E7F63"><title>1:07:20 · environmental: “UH, HAVE ENERGY OR PROVIDE, UH,”</title></rect></a><a href="https://publicrecord.studio/app/m/rnQvGjoUlmQ#t4099" class="bs-tick" data-t="4099.7" data-lens="infrastructure" data-text="ADDICTS OUT ON THE STREET AND"><rect x="336.2" y="122" width="3" height="9" fill="#B08968"><title>1:08:19 · infrastructure: “ADDICTS OUT ON THE STREET AND”</title></rect></a><a href="https://publicrecord.studio/app/m/rnQvGjoUlmQ#t4217" class="bs-tick" data-t="4217.9" data-lens="environmental" data-text="ENOUGH ENERGY TO LEAVE THE"><rect x="345.9" y="89" width="3" height="9" fill="#1E7F63"><title>1:10:17 · environmental: “ENOUGH ENERGY TO LEAVE THE”</title></rect></a><a href="https://publicrecord.studio/app/m/rnQvGjoUlmQ#t4987" class="bs-tick" data-t="4987.6" data-lens="financial" data-text="WHICH WAS FUNDED BY THE"><rect x="409.3" y="56" width="3" height="9" fill="#A97A16"><title>1:23:07 · financial: “WHICH WAS FUNDED BY THE”</title></rect></a><a href="https://publicrecord.studio/app/m/rnQvGjoUlmQ#t5196" class="bs-tick" data-t="5196.9" data-lens="environmental" data-text="GREENING CONVERTED TO SEVEN UH"><rect x="426.5" y="89" width="3" height="9" fill="#1E7F63"><title>1:26:36 · environmental: “GREENING CONVERTED TO SEVEN UH”</title></rect></a><a href="https://publicrecord.studio/app/m/rnQvGjoUlmQ#t5209" class="bs-tick" data-t="5209.6" data-lens="environmental" data-text="GREENING, THEY COULD EXPOSE IT"><rect x="427.6" y="89" width="3" height="9" fill="#1E7F63"><title>1:26:49 · environmental: “GREENING, THEY COULD EXPOSE IT”</title></rect></a><a href="https://publicrecord.studio/app/m/rnQvGjoUlmQ#t5298" class="bs-tick" data-t="5298.8" data-lens="financial" data-text="MILLION AMERICANS TO INCREASE"><rect x="434.9" y="56" width="3" height="9" fill="#A97A16"><title>1:28:18 · financial: “MILLION AMERICANS TO INCREASE”</title></rect></a><a href="https://publicrecord.studio/app/m/rnQvGjoUlmQ#t5465" class="bs-tick" data-t="5465" data-lens="financial" data-text="TO SPEAK FOR THE 24 MILLION"><rect x="448.6" y="56" width="3" height="9" fill="#A97A16"><title>1:31:05 · financial: “TO SPEAK FOR THE 24 MILLION”</title></rect></a><a href="https://publicrecord.studio/app/m/rnQvGjoUlmQ#t5724" class="bs-tick" data-t="5724.2" data-lens="financial" data-text="ABUSE FUNDED BY THEM THAT WERE"><rect x="470" y="56" width="3" height="9" fill="#A97A16"><title>1:35:24 · financial: “ABUSE FUNDED BY THEM THAT WERE”</title></rect></a><a href="https://publicrecord.studio/app/m/rnQvGjoUlmQ#t6239" class="bs-tick" data-t="6239.8" data-lens="financial" data-text="CONSUMED BY 23 MILLION"><rect x="512.4" y="56" width="3" height="9" fill="#A97A16"><title>1:43:59 · financial: “CONSUMED BY 23 MILLION”</title></rect></a><a href="https://publicrecord.studio/app/m/rnQvGjoUlmQ#t7154" class="bs-tick" data-t="7154.7" data-lens="financial" data-text="EXACTLY WHY THEY FUNDED THIS"><rect x="587.8" y="56" width="3" height="9" fill="#A97A16"><title>1:59:14 · financial: “EXACTLY WHY THEY FUNDED THIS”</title></rect></a><a href="https://publicrecord.studio/app/m/rnQvGjoUlmQ#t9372" class="bs-tick" data-t="9372.7" data-lens="infrastructure" data-text="MIDST OF THE STREET OF IT AND"><rect x="770.4" y="122" width="3" height="9" fill="#B08968"><title>2:36:12 · infrastructure: “MIDST OF THE STREET OF IT AND”</title></rect></a><a href="https://publicrecord.studio/app/m/rnQvGjoUlmQ#t7191" class="bs-money" data-t="7191.3" data-label="$100"><line x1="592.3" y1="54" x2="592.3" y2="34" stroke="#A97A16" stroke-width="1"/><text x="592.3" y="34" font-size="10" fill="#7A5A10" text-anchor="start" style="font-family:var(--font-mono)">$100<title>$100 — said 1 time, first at 1:59:51</title></text></a><a href="https://publicrecord.studio/app/m/rnQvGjoUlmQ#t103" class="bs-q" data-t="103.8"><line x1="8.5" y1="24" x2="8.5" y2="31" stroke="#6F6A5B" stroke-width="1"/><title>1:43 · a question: “ARE YOU GOOD?”</title></a><a href="https://publicrecord.studio/app/m/rnQvGjoUlmQ#t808" class="bs-q" data-t="808.5"><line x1="66.6" y1="24" x2="66.6" y2="31" stroke="#6F6A5B" stroke-width="1"/><title>13:28 · a question: “TAKEN AT THIS POINT?”</title></a><a href="https://publicrecord.studio/app/m/rnQvGjoUlmQ#t901" class="bs-q" data-t="901.9"><line x1="74.3" y1="24" x2="74.3" y2="31" stroke="#6F6A5B" stroke-width="1"/><title>15:01 · a question: “SYNTHETIC MARIJUANA?”</title></a><a href="https://publicrecord.studio/app/m/rnQvGjoUlmQ#t1256" class="bs-q" data-t="1256.8"><line x1="103.5" y1="24" x2="103.5" y2="31" stroke="#6F6A5B" stroke-width="1"/><title>20:56 · a question: “HAVE KRATOM?”</title></a><a href="https://publicrecord.studio/app/m/rnQvGjoUlmQ#t1263" class="bs-q" data-t="1263.2"><line x1="104" y1="24" x2="104" y2="31" stroke="#6F6A5B" stroke-width="1"/><title>21:03 · a question: “ACROSS THE STATE?”</title></a><a href="https://publicrecord.studio/app/m/rnQvGjoUlmQ#t1703" class="bs-q" data-t="1703.2"><line x1="140.3" y1="24" x2="140.3" y2="31" stroke="#6F6A5B" stroke-width="1"/><title>28:23 · a question: “SIMILAR TO THIS PROPOSAL?”</title></a><a href="https://publicrecord.studio/app/m/rnQvGjoUlmQ#t1756" class="bs-q" data-t="1756.1"><line x1="144.6" y1="24" x2="144.6" y2="31" stroke="#6F6A5B" stroke-width="1"/><title>29:16 · a question: “IN TERMS OF DRIVING A VEHICLE?”</title></a><a href="https://publicrecord.studio/app/m/rnQvGjoUlmQ#t1879" class="bs-q" data-t="1879.8"><line x1="154.8" y1="24" x2="154.8" y2="31" stroke="#6F6A5B" stroke-width="1"/><title>31:19 · a question: “REGULATING THEM DIFFERENTLY?”</title></a><a href="https://publicrecord.studio/app/m/rnQvGjoUlmQ#t2072" class="bs-q" data-t="2072"><line x1="170.7" y1="24" x2="170.7" y2="31" stroke="#6F6A5B" stroke-width="1"/><title>34:32 · a question: “THE SAME IN THIS CASE?”</title></a><a href="https://publicrecord.studio/app/m/rnQvGjoUlmQ#t2209" class="bs-q" data-t="2209.4"><line x1="182" y1="24" x2="182" y2="31" stroke="#6F6A5B" stroke-width="1"/><title>36:49 · a question: “FOR THE CITY TO ENFORCE?”</title></a><a href="https://publicrecord.studio/app/m/rnQvGjoUlmQ#t2311" class="bs-q" data-t="2311.5"><line x1="190.4" y1="24" x2="190.4" y2="31" stroke="#6F6A5B" stroke-width="1"/><title>38:31 · a question: “WHAT ABOUT THE AGE RESTRICTION?”</title></a><a href="https://publicrecord.studio/app/m/rnQvGjoUlmQ#t2331" class="bs-q" data-t="2331.8"><line x1="192.1" y1="24" x2="192.1" y2="31" stroke="#6F6A5B" stroke-width="1"/><title>38:51 · a question: “BANNED, ARE THEY?”</title></a><a href="https://publicrecord.studio/app/m/rnQvGjoUlmQ#t2388" class="bs-q" data-t="2388"><line x1="196.7" y1="24" x2="196.7" y2="31" stroke="#6F6A5B" stroke-width="1"/><title>39:48 · a question: “IS THAT CORRECT?”</title></a><a href="https://publicrecord.studio/app/m/rnQvGjoUlmQ#t2511" class="bs-q" data-t="2511.6"><line x1="206.9" y1="24" x2="206.9" y2="31" stroke="#6F6A5B" stroke-width="1"/><title>41:51 · a question: “AT THIS POINT?”</title></a><a href="https://publicrecord.studio/app/m/rnQvGjoUlmQ#t2580" class="bs-q" data-t="2580.9"><line x1="212.6" y1="24" x2="212.6" y2="31" stroke="#6F6A5B" stroke-width="1"/><title>43:00 · a question: “ULTIMATELY COME DOWN?”</title></a><a href="https://publicrecord.studio/app/m/rnQvGjoUlmQ#t2595" class="bs-q" data-t="2595.1"><line x1="213.7" y1="24" x2="213.7" y2="31" stroke="#6F6A5B" stroke-width="1"/><title>43:15 · a question: “COULD HAPPEN?”</title></a><a href="https://publicrecord.studio/app/m/rnQvGjoUlmQ#t2924" class="bs-q" data-t="2924.9"><line x1="240.9" y1="24" x2="240.9" y2="31" stroke="#6F6A5B" stroke-width="1"/><title>48:44 · a question: “HAVE WE GOTTEN IT YET?”</title></a><a href="https://publicrecord.studio/app/m/rnQvGjoUlmQ#t2926" class="bs-q" data-t="2926.1"><line x1="241" y1="24" x2="241" y2="31" stroke="#6F6A5B" stroke-width="1"/><title>48:46 · a question: “HAVE WE DEPLOYED IT?”</title></a><a href="https://publicrecord.studio/app/m/rnQvGjoUlmQ#t3255" class="bs-q" data-t="3255.3"><line x1="268.1" y1="24" x2="268.1" y2="31" stroke="#6F6A5B" stroke-width="1"/><title>54:15 · a question: “DOESN&#x27;T GO FORWARD WITH THAT?”</title></a><a href="https://publicrecord.studio/app/m/rnQvGjoUlmQ#t3476" class="bs-q" data-t="3476"><line x1="286.3" y1="24" x2="286.3" y2="31" stroke="#6F6A5B" stroke-width="1"/><title>57:56 · a question: “WHAT&#x27;S THE FIRST FIVE?”</title></a><a href="https://publicrecord.studio/app/m/rnQvGjoUlmQ#t3513" class="bs-q" data-t="3513.7"><line x1="289.4" y1="24" x2="289.4" y2="31" stroke="#6F6A5B" stroke-width="1"/><title>58:33 · a question: “UH CAN YOU HEAR ME?”</title></a><a href="https://publicrecord.studio/app/m/rnQvGjoUlmQ#t3516" class="bs-q" data-t="3516.2"><line x1="289.6" y1="24" x2="289.6" y2="31" stroke="#6F6A5B" stroke-width="1"/><title>58:36 · a question: “HOW ARE YOU DOING TODAY?”</title></a><a href="https://publicrecord.studio/app/m/rnQvGjoUlmQ#t3562" class="bs-q" data-t="3562.8"><line x1="293.4" y1="24" x2="293.4" y2="31" stroke="#6F6A5B" stroke-width="1"/><title>59:22 · a question: “WELL, YOU HEAR ME?”</title></a><a href="https://publicrecord.studio/app/m/rnQvGjoUlmQ#t3736" class="bs-q" data-t="3736.3"><line x1="307.7" y1="24" x2="307.7" y2="31" stroke="#6F6A5B" stroke-width="1"/><title>1:02:16 · a question: “HEY CAN YOU GUYS HEAR ME?”</title></a><a href="https://publicrecord.studio/app/m/rnQvGjoUlmQ#t114" class="bs-dec" data-i="0" data-t="114.9" data-kind="decision"><circle cx="9.5" cy="44" r="7.6" fill="#191712" opacity=".9"><title>1:54 · decision: “TODAY&#x27;S HEARING IS ON DOCKET 141 FOR AN ORDINANCE AMENDING CHAPTER 16 OF THE CITY CODE ORDINANCES PROHIBITING THE SALE…”</title></circle></a><a href="https://publicrecord.studio/app/m/rnQvGjoUlmQ#t279" class="bs-dec" data-i="1" data-t="279.6" data-kind="decision"><circle cx="23" cy="44" r="7.5" fill="#191712" opacity=".9"><title>4:39 · decision: “THIS BECAUSE I THINK, UH, KNOWING WITH SOME LEGAL ACTION HAPPENING AT THE STATE WE&#x27;RE NOT SURE HOW THAT AFFECTS…”</title></circle></a><a href="https://publicrecord.studio/app/m/rnQvGjoUlmQ#t460" class="bs-dec" data-i="2" data-t="460.1" data-kind="decision"><circle cx="37.9" cy="44" r="7.5" fill="#191712" opacity=".9"><title>7:40 · decision: “THIS ORDINANCE ATTEMPTS TO ADDRESS THOSE CONCERNS BY CONTINUING TO ALLOW QUALIFIED NATURAL AND UNADULTERATED KRATOM…”</title></circle></a><a href="https://publicrecord.studio/app/m/rnQvGjoUlmQ#t546" class="bs-dec" data-i="3" data-t="546" data-kind="decision"><circle cx="45" cy="44" r="7.5" fill="#191712" opacity=".9"><title>9:06 · decision: “MY GOAL TODAY IS TO BETTER UNDERSTAND THE EVIDENCE ON BOTH SIDES AND DETERMINE HOW BOSTON CAN PROTECT RESIDENTS FROM…”</title></circle></a><a href="https://publicrecord.studio/app/m/rnQvGjoUlmQ#t663" class="bs-dec" data-i="4" data-t="663.6" data-kind="decision"><circle cx="54.7" cy="44" r="7.5" fill="#191712" opacity=".9"><title>11:03 · decision: “DESPITE LACK OF REGULATORY APPROVAL FOR THOSE USES.”</title></circle></a><a href="https://publicrecord.studio/app/m/rnQvGjoUlmQ#t675" class="bs-dec" data-i="5" data-t="675" data-kind="tension"><circle cx="55.6" cy="44" r="6.8" fill="#B23A1D" opacity=".9"><title>11:15 · pushback: “ISSUED A TEMPORARY ONE YEAR EMERGENCY ORDER MAKING ALL KRATOM PRODUCTS SCHEDULE ONE SUBSTANCES EFFECTIVELY PROHIBITING…”</title></circle></a><a href="https://publicrecord.studio/app/m/rnQvGjoUlmQ#t883" class="bs-dec" data-i="6" data-t="883.4" data-kind="decision"><circle cx="72.8" cy="44" r="7.4" fill="#191712" opacity=".9"><title>14:43 · decision: “WE&#x27;RE LOOKING AT IT THAT, YOU KNOW, TO MAKE AN ORDINANCE WE STILL PROBABLY HAVE TO HAVE MAYBE ONE MORE WORKING SESSION…”</title></circle></a><a href="https://publicrecord.studio/app/m/rnQvGjoUlmQ#t921" class="bs-dec" data-i="7" data-t="921.8" data-kind="decision"><circle cx="75.9" cy="44" r="8" fill="#191712" opacity=".9"><title>15:21 · decision: “SO FOR THAT PERIOD OF TIME, IF THIS ORDINANCE PASSED AS DRAFTED, THEN THE PROVISIONS THAT WERE WEAKER THAN THE STATE…”</title></circle></a><a href="https://publicrecord.studio/app/m/rnQvGjoUlmQ#t1108" class="bs-dec" data-i="8" data-t="1108.7" data-kind="decision"><circle cx="91.3" cy="44" r="6.8" fill="#191712" opacity=".9"><title>18:28 · decision: “WAIT TO.”</title></circle></a><a href="https://publicrecord.studio/app/m/rnQvGjoUlmQ#t1132" class="bs-dec" data-i="9" data-t="1132.6" data-kind="decision"><circle cx="93.3" cy="44" r="7.5" fill="#191712" opacity=".9"><title>18:52 · decision: “ORDINANCE AND AND.”</title></circle></a><a href="https://publicrecord.studio/app/m/rnQvGjoUlmQ#t1163" class="bs-dec" data-i="10" data-t="1163" data-kind="decision"><circle cx="95.8" cy="44" r="7.4" fill="#191712" opacity=".9"><title>19:23 · decision: “HERE THIS WE MIGHT GIVE A BLUEPRINT TO THE STATE OF HOW TO DO THIS AND FAIRLY GET IT PASSED AT WITH AT A REASONABLE…”</title></circle></a><a href="https://publicrecord.studio/app/m/rnQvGjoUlmQ#t1488" class="bs-dec" data-i="11" data-t="1488.4" data-kind="tension"><circle cx="122.6" cy="44" r="6.8" fill="#B23A1D" opacity=".9"><title>24:48 · pushback: “IS THE QUESTION UH WHY CERTAIN PEOPLE OPPOSE RESTRICTIONS.”</title></circle></a><a href="https://publicrecord.studio/app/m/rnQvGjoUlmQ#t1517" class="bs-dec" data-i="12" data-t="1517.2" data-kind="decision"><circle cx="125" cy="44" r="8" fill="#191712" opacity=".9"><title>25:17 · decision: “ESPECIALLY ON THE BOTANICAL NATURAL LEAF SIDE SORT OF THE THE SORT OF USE UM THAT&#x27;S MORE LIKE DRINKING A TEA OR SORT OF…”</title></circle></a><a href="https://publicrecord.studio/app/m/rnQvGjoUlmQ#t1542" class="bs-dec" data-i="13" data-t="1542.6" data-kind="decision"><circle cx="127.1" cy="44" r="7.5" fill="#191712" opacity=".9"><title>25:42 · decision: “NO THANK YOU BUT BUT THIS PROPOSAL THIS ORDINANCE PROPOSAL WOULDN&#x27;T RESTRICT THAT TYPE OF PRODUCT OR WOULD IT.”</title></circle></a><a href="https://publicrecord.studio/app/m/rnQvGjoUlmQ#t2647" class="bs-dec" data-i="14" data-t="2647.3" data-kind="tension"><circle cx="218" cy="44" r="6.7" fill="#B23A1D" opacity=".9"><title>44:07 · pushback: “POLICY DECISIONS CAN BE MADE SORT OF NOT IN AN EXECUTIVE POSTURE, UH, OR A EMERGENCY ORDER POSTURE.”</title></circle></a><a href="https://publicrecord.studio/app/m/rnQvGjoUlmQ#t2693" class="bs-dec" data-i="15" data-t="2693.7" data-kind="tension"><circle cx="221.9" cy="44" r="6.7" fill="#B23A1D" opacity=".9"><title>44:53 · pushback: “HEALTH CRISIS THEY CAN JUST ACT ACCORDINGLY AND SHUT IT DOWN.”</title></circle></a><a href="https://publicrecord.studio/app/m/rnQvGjoUlmQ#t2911" class="bs-dec" data-i="16" data-t="2911" data-kind="tension"><circle cx="239.8" cy="44" r="6.8" fill="#B23A1D" opacity=".9"><title>48:31 · pushback: “ENFORCE THIS BAN UM, OR EMERGENCY ORDER.”</title></circle></a><a href="https://publicrecord.studio/app/m/rnQvGjoUlmQ#t3573" class="bs-dec" data-i="17" data-t="3573.5" data-kind="tension"><circle cx="294.3" cy="44" r="6.7" fill="#B23A1D" opacity=".9"><title>59:33 · pushback: “I THINK THE PROBLEM IS AND ALWAYS HAS BEEN THE SYNTHETIC DERIVATIVES.”</title></circle></a><a href="https://publicrecord.studio/app/m/rnQvGjoUlmQ#t4160" class="bs-dec" data-i="18" data-t="4160.7" data-kind="tension"><circle cx="342.7" cy="44" r="6.7" fill="#B23A1D" opacity=".9"><title>1:09:20 · pushback: “I UNDERSTAND THERE ARE CONCERNS ABOUT GAS STATION KRATOM PRODUCTS.”</title></circle></a><g class="bs-playhead"><line x1="76" y1="32" x2="76" y2="150" stroke="#B23A1D" stroke-width="2"/><text x="76" y="164" font-size="11" fill="#B23A1D" text-anchor="middle" style="font-family:var(--font-mono)">15:21</text></g><text x="0" y="166" font-size="10" fill="#6F6A5B" text-anchor="start" style="font-family:var(--font-mono)">0:00</text><text x="148.3" y="166" font-size="10" fill="#6F6A5B" text-anchor="middle" style="font-family:var(--font-mono)">30:00</text><text x="296.5" y="166" font-size="10" fill="#6F6A5B" text-anchor="middle" style="font-family:var(--font-mono)">1:00:00</text><text x="444.8" y="166" font-size="10" fill="#6F6A5B" text-anchor="middle" style="font-family:var(--font-mono)">1:30:00</text><text x="593" y="166" font-size="10" fill="#6F6A5B" text-anchor="middle" style="font-family:var(--font-mono)">2:00:00</text><text x="741.3" y="166" font-size="10" fill="#6F6A5B" text-anchor="middle" style="font-family:var(--font-mono)">2:30:00</text></svg><text x="16" y="236" font-size="10" fill="#475569">a dot is a decision, sized by its weight; rust, pushback · a tick above, a question · $ a dollar figure · the eight lanes: where each lens’s words fell</text><text x="16" y="250" font-size="10" fill="#475569">https://publicrecord.studio/app/m/rnQvGjoUlmQ</text><text x="16" y="264" font-size="10" fill="#475569">counted from the record’s transcripts, no model · the record of 2026-09-23 · CC BY-SA 4.0</text></svg>
