<?xml version="1.0" encoding="UTF-8"?>
<svg xmlns="http://www.w3.org/2000/svg" width="953" height="276" viewBox="0 0 953 276" font-family="IBM Plex Mono, Menlo, Consolas, monospace"><title>The shape of the tape — Brookline Select Board Meeting Meeting - September 22, 2026</title><rect width="953" height="276" fill="#ffffff"/><text x="16" y="26" font-size="13" font-weight="700" fill="#0f172a">The shape of the tape — Brookline Select Board Meeting Meeting - September 22, 2026</text><svg x="36" y="44" width="880" height="168" viewBox="-100 0 990 168"><rect x="0" y="56" width="880" height="90" fill="#F3EEE3" rx="4"/><rect x="-6" y="57" width="4" height="7" fill="#A97A16"/><text x="-12" y="64" font-size="9" fill="#4B473E" text-anchor="end" style="font-family:var(--font-mono)">financial</text><path class="bs-lane" data-lens="financial" d="M352,59h14.1v6h-14.1zM381.3,63h14.1v2h-14.1zM454.7,63h14.1v2h-14.1zM484,63h14.1v2h-14.1zM513.3,63h14.1v2h-14.1zM557.3,62h14.1v3h-14.1zM572,59h14.1v6h-14.1zM586.7,62h14.1v3h-14.1zM689.3,56h14.1v9h-14.1zM704,63h14.1v2h-14.1zM718.7,59h14.1v6h-14.1zM792,60.5h14.1v4.5h-14.1zM806.7,62h14.1v3h-14.1zM821.3,63h14.1v2h-14.1zM850.7,63h14.1v2h-14.1z" fill="#A97A16" opacity=".55"><title>financial — 34 words, where they fell along the tape</title></path><rect x="-6" y="68" width="4" height="7" fill="#B0542D"/><text x="-12" y="75" font-size="9" fill="#4B473E" text-anchor="end" style="font-family:var(--font-mono)">safety</text><path class="bs-lane" data-lens="safety" d="M366.7,67h14.1v9h-14.1zM381.3,70.6h14.1v5.4h-14.1zM396,72.4h14.1v3.6h-14.1zM454.7,74h14.1v2h-14.1zM498.7,72.4h14.1v3.6h-14.1zM513.3,70.6h14.1v5.4h-14.1zM542.7,67h14.1v9h-14.1zM616,74h14.1v2h-14.1zM660,70.6h14.1v5.4h-14.1zM762.7,74h14.1v2h-14.1zM777.3,70.6h14.1v5.4h-14.1zM806.7,72.4h14.1v3.6h-14.1z" fill="#B0542D" opacity=".55"><title>safety — 31 words, where they fell along the tape</title></path><rect x="-6" y="79" width="4" height="7" fill="#3FA9D0"/><text x="-12" y="86" font-size="9" fill="#4B473E" text-anchor="end" style="font-family:var(--font-mono)">community</text><path class="bs-lane" data-lens="community" d="M337.3,85h14.1v2h-14.1zM352,83.7h14.1v3.3h-14.1zM381.3,78h14.1v9h-14.1zM396,85h14.1v2h-14.1zM425.3,84.5h14.1v2.5h-14.1zM440,84.5h14.1v2.5h-14.1zM469.3,85h14.1v2h-14.1zM484,85h14.1v2h-14.1zM498.7,85h14.1v2h-14.1zM557.3,81.3h14.1v5.7h-14.1zM572,82.9h14.1v4.1h-14.1zM586.7,83.7h14.1v3.3h-14.1zM616,85h14.1v2h-14.1zM630.7,83.7h14.1v3.3h-14.1zM689.3,84.5h14.1v2.5h-14.1zM733.3,85h14.1v2h-14.1zM762.7,85h14.1v2h-14.1z" fill="#3FA9D0" opacity=".55"><title>community — 55 words, where they fell along the tape</title></path><rect x="-6" y="90" width="4" height="7" fill="#1E7F63"/><text x="-12" y="97" font-size="9" fill="#4B473E" text-anchor="end" style="font-family:var(--font-mono)">environmental</text><path class="bs-lane" data-lens="environmental" d="M454.7,93.5h14.1v4.5h-14.1zM469.3,93.5h14.1v4.5h-14.1zM498.7,89h14.1v9h-14.1zM542.7,89h14.1v9h-14.1z" fill="#1E7F63" opacity=".55"><title>environmental — 6 words, where they fell along the tape</title></path><rect x="-6" y="101" width="4" height="7" fill="#7E5B8E"/><text x="-12" y="108" font-size="9" fill="#4B473E" text-anchor="end" style="font-family:var(--font-mono)">legal</text><path class="bs-lane" data-lens="legal" d="M366.7,105.4h14.1v3.6h-14.1zM396,105.4h14.1v3.6h-14.1zM410.7,100h14.1v9h-14.1zM542.7,107h14.1v2h-14.1zM557.3,107h14.1v2h-14.1zM601.3,105.4h14.1v3.6h-14.1zM630.7,100h14.1v9h-14.1zM704,105.4h14.1v3.6h-14.1zM718.7,107h14.1v2h-14.1z" fill="#7E5B8E" opacity=".55"><title>legal — 21 words, where they fell along the tape</title></path><rect x="-6" y="112" width="4" height="7" fill="#C77BA6"/><text x="-12" y="119" font-size="9" fill="#4B473E" text-anchor="end" style="font-family:var(--font-mono)">equity</text><path class="bs-lane" data-lens="equity" d="M352,115.5h14.1v4.5h-14.1zM381.3,111h14.1v9h-14.1zM425.3,115.5h14.1v4.5h-14.1zM469.3,115.5h14.1v4.5h-14.1zM498.7,111h14.1v9h-14.1zM572,115.5h14.1v4.5h-14.1zM586.7,111h14.1v9h-14.1zM718.7,115.5h14.1v4.5h-14.1zM748,115.5h14.1v4.5h-14.1z" fill="#C77BA6" opacity=".55"><title>equity — 12 words, where they fell along the tape</title></path><rect x="-6" y="123" width="4" height="7" fill="#B08968"/><text x="-12" y="130" font-size="9" fill="#4B473E" text-anchor="end" style="font-family:var(--font-mono)">infrastructure</text><path class="bs-lane" data-lens="infrastructure" d="M44,126.5h14.1v4.5h-14.1zM352,126.5h14.1v4.5h-14.1zM396,124.3h14.1v6.8h-14.1zM410.7,126.5h14.1v4.5h-14.1zM425.3,124.3h14.1v6.8h-14.1zM454.7,126.5h14.1v4.5h-14.1zM469.3,124.3h14.1v6.8h-14.1zM484,126.5h14.1v4.5h-14.1zM498.7,126.5h14.1v4.5h-14.1zM513.3,128.8h14.1v2.3h-14.1zM528,122h14.1v9h-14.1zM689.3,126.5h14.1v4.5h-14.1zM704,128.8h14.1v2.3h-14.1zM792,124.3h14.1v6.8h-14.1zM821.3,128.8h14.1v2.3h-14.1zM836,128.8h14.1v2.3h-14.1zM850.7,128.8h14.1v2.3h-14.1z" fill="#B08968" opacity=".55"><title>infrastructure — 35 words, where they fell along the tape</title></path><rect x="-6" y="134" width="4" height="7" fill="#7E7D75"/><text x="-12" y="141" font-size="9" fill="#4B473E" text-anchor="end" style="font-family:var(--font-mono)">process</text><path class="bs-lane" data-lens="process" d="M366.7,138.1h14.1v3.9h-14.1zM410.7,140h14.1v2h-14.1zM542.7,138.1h14.1v3.9h-14.1zM557.3,140h14.1v2h-14.1zM586.7,140h14.1v2h-14.1zM601.3,133h14.1v9h-14.1zM616,135.8h14.1v6.2h-14.1zM630.7,140h14.1v2h-14.1zM645.3,140h14.1v2h-14.1zM660,140h14.1v2h-14.1zM674.7,140h14.1v2h-14.1z" fill="#7E7D75" opacity=".55"><title>process — 53 words, where they fell along the tape</title></path><a href="https://publicrecord.studio/app/m/th_hjXH6CYc#t636" class="bs-tick" data-t="636.5" data-lens="infrastructure" data-text="26 Pleasant Street and for uh Mass"><rect x="50.3" y="122" width="3" height="9" fill="#B08968"><title>10:36 · infrastructure: “26 Pleasant Street and for uh Mass”</title></rect></a><a href="https://publicrecord.studio/app/m/th_hjXH6CYc#t653" class="bs-tick" data-t="653.3" data-lens="infrastructure" data-text="Street. Bernard,"><rect x="51.7" y="122" width="3" height="9" fill="#B08968"><title>10:53 · infrastructure: “Street. Bernard,”</title></rect></a><a href="https://publicrecord.studio/app/m/th_hjXH6CYc#t4250" class="bs-tick" data-t="4250.2" data-lens="community" data-text="community benefits that the Koolage"><rect x="344.6" y="78" width="3" height="9" fill="#3FA9D0"><title>1:10:50 · community: “community benefits that the Koolage”</title></rect></a><a href="https://publicrecord.studio/app/m/th_hjXH6CYc#t4273" class="bs-tick" data-t="4273.4" data-lens="community" data-text="as a community partner. I don&#x27;t know if"><rect x="346.5" y="78" width="3" height="9" fill="#3FA9D0"><title>1:11:13 · community: “as a community partner. I don&#x27;t know if”</title></rect></a><a href="https://publicrecord.studio/app/m/th_hjXH6CYc#t4348" class="bs-tick" data-t="4348.9" data-lens="financial" data-text="from Brookline standpoint, hard dollars"><rect x="352.6" y="56" width="3" height="9" fill="#A97A16"><title>1:12:28 · financial: “from Brookline standpoint, hard dollars”</title></rect></a><a href="https://publicrecord.studio/app/m/th_hjXH6CYc#t4355" class="bs-tick" data-t="4355.5" data-lens="community" data-text="a community standpoint, we started the"><rect x="353.2" y="78" width="3" height="9" fill="#3FA9D0"><title>1:12:35 · community: “a community standpoint, we started the”</title></rect></a><a href="https://publicrecord.studio/app/m/th_hjXH6CYc#t4379" class="bs-tick" data-t="4379.8" data-lens="community" data-text="uh and I think good for the community"><rect x="355.1" y="78" width="3" height="9" fill="#3FA9D0"><title>1:12:59 · community: “uh and I think good for the community”</title></rect></a><a href="https://publicrecord.studio/app/m/th_hjXH6CYc#t4430" class="bs-tick" data-t="4430.3" data-lens="financial" data-text="month that 278 million in state and"><rect x="359.3" y="56" width="3" height="9" fill="#A97A16"><title>1:13:50 · financial: “month that 278 million in state and”</title></rect></a><a href="https://publicrecord.studio/app/m/th_hjXH6CYc#t4440" class="bs-tick" data-t="4440.6" data-lens="infrastructure" data-text="Authorities 10 Walnut Street was one of"><rect x="360.1" y="122" width="3" height="9" fill="#B08968"><title>1:14:00 · infrastructure: “Authorities 10 Walnut Street was one of”</title></rect></a><a href="https://publicrecord.studio/app/m/th_hjXH6CYc#t4442" class="bs-tick" data-t="4442.8" data-lens="financial" data-text="the 29 projects awarded funded. Um 10"><rect x="360.3" y="56" width="3" height="9" fill="#A97A16"><title>1:14:02 · financial: “the 29 projects awarded funded. Um 10”</title></rect></a><a href="https://publicrecord.studio/app/m/th_hjXH6CYc#t4446" class="bs-tick" data-t="4446.8" data-lens="infrastructure" data-text="Walnut Street is the first phase of the"><rect x="360.6" y="122" width="3" height="9" fill="#B08968"><title>1:14:06 · infrastructure: “Walnut Street is the first phase of the”</title></rect></a><a href="https://publicrecord.studio/app/m/th_hjXH6CYc#t4459" class="bs-tick" data-t="4459.7" data-lens="community" data-text="of family oriented affordable housing."><rect x="361.7" y="78" width="3" height="9" fill="#3FA9D0"><title>1:14:19 · community: “of family oriented affordable housing.”</title></rect></a><a href="https://publicrecord.studio/app/m/th_hjXH6CYc#t4459" class="bs-tick" data-t="4459.7" data-lens="equity" data-text="of family oriented affordable housing."><rect x="361.7" y="111" width="3" height="9" fill="#C77BA6"><title>1:14:19 · equity: “of family oriented affordable housing.”</title></rect></a><a href="https://publicrecord.studio/app/m/th_hjXH6CYc#t4459" class="bs-tick" data-t="4459.7" data-lens="financial" data-text="of family oriented affordable housing."><rect x="361.7" y="56" width="3" height="9" fill="#A97A16"><title>1:14:19 · financial: “of family oriented affordable housing.”</title></rect></a><a href="https://publicrecord.studio/app/m/th_hjXH6CYc#t4465" class="bs-tick" data-t="4465.5" data-lens="community" data-text="and our soon to be new neighbors. Um and"><rect x="362.1" y="78" width="3" height="9" fill="#3FA9D0"><title>1:14:25 · community: “and our soon to be new neighbors. Um and”</title></rect></a><a href="https://publicrecord.studio/app/m/th_hjXH6CYc#t4540" class="bs-tick" data-t="4540.8" data-lens="safety" data-text="standard safety devices including backup"><rect x="368.3" y="67" width="3" height="9" fill="#B0542D"><title>1:15:40 · safety: “standard safety devices including backup”</title></rect></a><a href="https://publicrecord.studio/app/m/th_hjXH6CYc#t4585" class="bs-tick" data-t="4585.6" data-lens="process" data-text="warrant article 17, under article 17,"><rect x="371.9" y="133" width="3" height="9" fill="#7E7D75"><title>1:16:25 · process: “warrant article 17, under article 17,”</title></rect></a><a href="https://publicrecord.studio/app/m/th_hjXH6CYc#t4590" class="bs-tick" data-t="4590" data-lens="legal" data-text="bylaws to add a new article, uh, civil"><rect x="372.3" y="100" width="3" height="9" fill="#7E5B8E"><title>1:16:30 · legal: “bylaws to add a new article, uh, civil”</title></rect></a><a href="https://publicrecord.studio/app/m/th_hjXH6CYc#t4592" class="bs-tick" data-t="4592.8" data-lens="safety" data-text="immigration enforcement activities on"><rect x="372.5" y="67" width="3" height="9" fill="#B0542D"><title>1:16:32 · safety: “immigration enforcement activities on”</title></rect></a><a href="https://publicrecord.studio/app/m/th_hjXH6CYc#t4600" class="bs-tick" data-t="4600.2" data-lens="safety" data-text="immigration enforcement in the absence"><rect x="373.1" y="67" width="3" height="9" fill="#B0542D"><title>1:16:40 · safety: “immigration enforcement in the absence”</title></rect></a><a href="https://publicrecord.studio/app/m/th_hjXH6CYc#t4603" class="bs-tick" data-t="4603.8" data-lens="legal" data-text="order authorizing such use. the attorney"><rect x="373.4" y="100" width="3" height="9" fill="#7E5B8E"><title>1:16:43 · legal: “order authorizing such use. the attorney”</title></rect></a><a href="https://publicrecord.studio/app/m/th_hjXH6CYc#t4606" class="bs-tick" data-t="4606.2" data-lens="process" data-text="general uh approved that warrant article"><rect x="373.6" y="133" width="3" height="9" fill="#7E7D75"><title>1:16:46 · process: “general uh approved that warrant article”</title></rect></a><a href="https://publicrecord.studio/app/m/th_hjXH6CYc#t4670" class="bs-tick" data-t="4670.4" data-lens="safety" data-text="more dangerous um issue here. We really"><rect x="378.8" y="67" width="3" height="9" fill="#B0542D"><title>1:17:50 · safety: “more dangerous um issue here. We really”</title></rect></a><a href="https://publicrecord.studio/app/m/th_hjXH6CYc#t4675" class="bs-tick" data-t="4675" data-lens="safety" data-text="people&#x27;s safety is in jeopardy outdoors."><rect x="379.2" y="67" width="3" height="9" fill="#B0542D"><title>1:17:55 · safety: “people&#x27;s safety is in jeopardy outdoors.”</title></rect></a><a href="https://publicrecord.studio/app/m/th_hjXH6CYc#t4692" class="bs-tick" data-t="4692.6" data-lens="safety" data-text="um you of of the community safety first"><rect x="380.6" y="67" width="3" height="9" fill="#B0542D"><title>1:18:12 · safety: “um you of of the community safety first”</title></rect></a><a href="https://publicrecord.studio/app/m/th_hjXH6CYc#t4794" class="bs-tick" data-t="4794.2" data-lens="equity" data-text="community health equity survey uh for"><rect x="388.9" y="111" width="3" height="9" fill="#C77BA6"><title>1:19:54 · equity: “community health equity survey uh for”</title></rect></a><a href="https://publicrecord.studio/app/m/th_hjXH6CYc#t4806" class="bs-tick" data-t="4806.4" data-lens="equity" data-text="funding decisions for health and equity."><rect x="389.9" y="111" width="3" height="9" fill="#C77BA6"><title>1:20:06 · equity: “funding decisions for health and equity.”</title></rect></a><a href="https://publicrecord.studio/app/m/th_hjXH6CYc#t4806" class="bs-tick" data-t="4806.4" data-lens="financial" data-text="funding decisions for health and equity."><rect x="389.9" y="56" width="3" height="9" fill="#A97A16"><title>1:20:06 · financial: “funding decisions for health and equity.”</title></rect></a><a href="https://publicrecord.studio/app/m/th_hjXH6CYc#t4897" class="bs-tick" data-t="4897.1" data-lens="infrastructure" data-text="their Brooklyn precinct number or street"><rect x="397.3" y="122" width="3" height="9" fill="#B08968"><title>1:21:37 · infrastructure: “their Brooklyn precinct number or street”</title></rect></a><a href="https://publicrecord.studio/app/m/th_hjXH6CYc#t4965" class="bs-tick" data-t="4965.6" data-lens="legal" data-text="or enforce its zoning bylaws concerning"><rect x="402.8" y="100" width="3" height="9" fill="#7E5B8E"><title>1:22:45 · legal: “or enforce its zoning bylaws concerning”</title></rect></a><a href="https://publicrecord.studio/app/m/th_hjXH6CYc#t4969" class="bs-tick" data-t="4969.4" data-lens="infrastructure" data-text="Street. The town administrator and the"><rect x="403.2" y="122" width="3" height="9" fill="#B08968"><title>1:22:49 · infrastructure: “Street. The town administrator and the”</title></rect></a><a href="https://publicrecord.studio/app/m/th_hjXH6CYc#t4976" class="bs-tick" data-t="4976.3" data-lens="legal" data-text="follow and enforce the zoning bylaws"><rect x="403.7" y="100" width="3" height="9" fill="#7E5B8E"><title>1:22:56 · legal: “follow and enforce the zoning bylaws”</title></rect></a><a href="https://publicrecord.studio/app/m/th_hjXH6CYc#t5046" class="bs-tick" data-t="5046.4" data-lens="legal" data-text="live 5 feet away. Zoning bylaw specified"><rect x="409.4" y="100" width="3" height="9" fill="#7E5B8E"><title>1:24:06 · legal: “live 5 feet away. Zoning bylaw specified”</title></rect></a><a href="https://publicrecord.studio/app/m/th_hjXH6CYc#t5054" class="bs-tick" data-t="5054" data-lens="legal" data-text="bylaw allows heat pumps by right to be"><rect x="410" y="100" width="3" height="9" fill="#7E5B8E"><title>1:24:14 · legal: “bylaw allows heat pumps by right to be”</title></rect></a><a href="https://publicrecord.studio/app/m/th_hjXH6CYc#t5298" class="bs-tick" data-t="5298.9" data-lens="equity" data-text="diversity of Brookline households which"><rect x="430" y="111" width="3" height="9" fill="#C77BA6"><title>1:28:18 · equity: “diversity of Brookline households which”</title></rect></a><a href="https://publicrecord.studio/app/m/th_hjXH6CYc#t5750" class="bs-tick" data-t="5750.2" data-lens="financial" data-text="town uh safely, affordably, and"><rect x="466.7" y="56" width="3" height="9" fill="#A97A16"><title>1:35:50 · financial: “town uh safely, affordably, and”</title></rect></a><a href="https://publicrecord.studio/app/m/th_hjXH6CYc#t5753" class="bs-tick" data-t="5753" data-lens="environmental" data-text="sustainably. And I think that my"><rect x="467" y="89" width="3" height="9" fill="#1E7F63"><title>1:35:53 · environmental: “sustainably. And I think that my”</title></rect></a><a href="https://publicrecord.studio/app/m/th_hjXH6CYc#t5770" class="bs-tick" data-t="5770.3" data-lens="environmental" data-text="on the green line transformation team."><rect x="468.4" y="89" width="3" height="9" fill="#1E7F63"><title>1:36:10 · environmental: “on the green line transformation team.”</title></rect></a><a href="https://publicrecord.studio/app/m/th_hjXH6CYc#t5776" class="bs-tick" data-t="5776.6" data-lens="equity" data-text="are leading the accessibility"><rect x="468.9" y="111" width="3" height="9" fill="#C77BA6"><title>1:36:16 · equity: “are leading the accessibility”</title></rect></a><a href="https://publicrecord.studio/app/m/th_hjXH6CYc#t6128" class="bs-tick" data-t="6128" data-lens="environmental" data-text="sustainability. Um and I that would for"><rect x="497.5" y="89" width="3" height="9" fill="#1E7F63"><title>1:42:08 · environmental: “sustainability. Um and I that would for”</title></rect></a><a href="https://publicrecord.studio/app/m/th_hjXH6CYc#t6135" class="bs-tick" data-t="6135.8" data-lens="environmental" data-text="around in terms of our climate action"><rect x="498.1" y="89" width="3" height="9" fill="#1E7F63"><title>1:42:15 · environmental: “around in terms of our climate action”</title></rect></a><a href="https://publicrecord.studio/app/m/th_hjXH6CYc#t6260" class="bs-tick" data-t="6260.5" data-lens="equity" data-text="um predecessor to the diversity, equity,"><rect x="508.3" y="111" width="3" height="9" fill="#C77BA6"><title>1:44:20 · equity: “um predecessor to the diversity, equity,”</title></rect></a><a href="https://publicrecord.studio/app/m/th_hjXH6CYc#t6706" class="bs-tick" data-t="6706.9" data-lens="environmental" data-text="would the uh climate action and"><rect x="544.6" y="89" width="3" height="9" fill="#1E7F63"><title>1:51:46 · environmental: “would the uh climate action and”</title></rect></a><a href="https://publicrecord.studio/app/m/th_hjXH6CYc#t6736" class="bs-tick" data-t="6736" data-lens="environmental" data-text="um climate resiliency plan for"><rect x="547" y="89" width="3" height="9" fill="#1E7F63"><title>1:52:16 · environmental: “um climate resiliency plan for”</title></rect></a><a href="https://publicrecord.studio/app/m/th_hjXH6CYc#t6798" class="bs-tick" data-t="6798.6" data-lens="process" data-text="hearing. public hearing on RCN license"><rect x="552.1" y="133" width="3" height="9" fill="#7E7D75"><title>1:53:18 · process: “hearing. public hearing on RCN license”</title></rect></a><a href="https://publicrecord.studio/app/m/th_hjXH6CYc#t7472" class="bs-tick" data-t="7472.9" data-lens="process" data-text="articles, public hearings. Uh we are not"><rect x="607" y="133" width="3" height="9" fill="#7E7D75"><title>2:04:32 · process: “articles, public hearings. Uh we are not”</title></rect></a><a href="https://publicrecord.studio/app/m/th_hjXH6CYc#t7524" class="bs-tick" data-t="7524.4" data-lens="process" data-text="Warrant article 8 very simply codifies"><rect x="611.2" y="133" width="3" height="9" fill="#7E7D75"><title>2:05:24 · process: “Warrant article 8 very simply codifies”</title></rect></a><a href="https://publicrecord.studio/app/m/th_hjXH6CYc#t7623" class="bs-tick" data-t="7623.9" data-lens="process" data-text="thank you for hearing this article."><rect x="619.3" y="133" width="3" height="9" fill="#7E7D75"><title>2:07:03 · process: “thank you for hearing this article.”</title></rect></a><a href="https://publicrecord.studio/app/m/th_hjXH6CYc#t7121" class="bs-money" data-t="7121.1" data-label="$9,26.87"><line x1="579.9" y1="54" x2="579.9" y2="34" stroke="#A97A16" stroke-width="1"/><text x="579.9" y="34" font-size="10" fill="#7A5A10" text-anchor="start" style="font-family:var(--font-mono)">$9,26.87 +1<title>$9,26.87 — said 1 time, first at 1:58:41</title></text></a><a href="https://publicrecord.studio/app/m/th_hjXH6CYc#t7132" class="bs-money" data-t="7132.4" data-label="$10,6768"><line x1="580.8" y1="54" x2="580.8" y2="38" stroke="#A97A16" stroke-width="1"><title>$10,6768 — said 1 time, first at 1:58:52</title></line></a><a href="https://publicrecord.studio/app/m/th_hjXH6CYc#t8550" class="bs-money" data-t="8550.6" data-label="$4 million"><line x1="696.3" y1="54" x2="696.3" y2="34" stroke="#A97A16" stroke-width="1"/><text x="696.3" y="34" font-size="10" fill="#7A5A10" text-anchor="start" style="font-family:var(--font-mono)">$4 million<title>$4 million — said 1 time, first at 2:22:30</title></text></a><a href="https://publicrecord.studio/app/m/th_hjXH6CYc#t4417" class="bs-q" data-t="4417.8"><line x1="359.7" y1="14" x2="359.7" y2="21" stroke="#6F6A5B" stroke-width="1"/><title>1:13:37 · a question: “announcements or updates to provide?”</title></a><a href="https://publicrecord.studio/app/m/th_hjXH6CYc#t4580" class="bs-q" data-t="4580.1"><line x1="373" y1="14" x2="373" y2="21" stroke="#6F6A5B" stroke-width="1"/><title>1:16:20 · a question: “Anyone else, Anthony?”</title></a><a href="https://publicrecord.studio/app/m/th_hjXH6CYc#t4612" class="bs-q" data-t="4612.1"><line x1="375.6" y1="14" x2="375.6" y2="21" stroke="#6F6A5B" stroke-width="1"/><title>1:16:52 · a question: “Anybody else?”</title></a><a href="https://publicrecord.studio/app/m/th_hjXH6CYc#t4703" class="bs-q" data-t="4703.7"><line x1="383" y1="14" x2="383" y2="21" stroke="#6F6A5B" stroke-width="1"/><title>1:18:23 · a question: “know, when do you make a call?”</title></a><a href="https://publicrecord.studio/app/m/th_hjXH6CYc#t4706" class="bs-q" data-t="4706.9"><line x1="383.3" y1="14" x2="383.3" y2="21" stroke="#6F6A5B" stroke-width="1"/><title>1:18:26 · a question: “because of weather events?”</title></a><a href="https://publicrecord.studio/app/m/th_hjXH6CYc#t4708" class="bs-q" data-t="4708.2"><line x1="383.4" y1="14" x2="383.4" y2="21" stroke="#6F6A5B" stroke-width="1"/><title>1:18:28 · a question: “make a call to call these things off?”</title></a><a href="https://publicrecord.studio/app/m/th_hjXH6CYc#t4835" class="bs-q" data-t="4835.8"><line x1="393.8" y1="14" x2="393.8" y2="21" stroke="#6F6A5B" stroke-width="1"/><title>1:20:35 · a question: “Anyone else?”</title></a><a href="https://publicrecord.studio/app/m/th_hjXH6CYc#t5146" class="bs-q" data-t="5146.8"><line x1="419.1" y1="14" x2="419.1" y2="21" stroke="#6F6A5B" stroke-width="1"/><title>1:25:46 · a question: “Who is our next speaker?”</title></a><a href="https://publicrecord.studio/app/m/th_hjXH6CYc#t5157" class="bs-q" data-t="5157"><line x1="419.9" y1="14" x2="419.9" y2="21" stroke="#6F6A5B" stroke-width="1"/><title>1:25:57 · a question: “Anyone online?”</title></a><a href="https://publicrecord.studio/app/m/th_hjXH6CYc#t5209" class="bs-q" data-t="5209.1"><line x1="424.2" y1="14" x2="424.2" y2="21" stroke="#6F6A5B" stroke-width="1"/><title>1:26:49 · a question: “when a postponement would be announced?”</title></a><a href="https://publicrecord.studio/app/m/th_hjXH6CYc#t5285" class="bs-q" data-t="5285.7"><line x1="430.4" y1="14" x2="430.4" y2="21" stroke="#6F6A5B" stroke-width="1"/><title>1:28:05 · a question: “Is that correct?”</title></a><a href="https://publicrecord.studio/app/m/th_hjXH6CYc#t5308" class="bs-q" data-t="5308.6"><line x1="432.3" y1="14" x2="432.3" y2="21" stroke="#6F6A5B" stroke-width="1"/><title>1:28:28 · a question: “Anyone else?”</title></a><a href="https://publicrecord.studio/app/m/th_hjXH6CYc#t5536" class="bs-q" data-t="5536.2"><line x1="450.8" y1="14" x2="450.8" y2="21" stroke="#6F6A5B" stroke-width="1"/><title>1:32:16 · a question: “Anyone else have questions?”</title></a><a href="https://publicrecord.studio/app/m/th_hjXH6CYc#t5554" class="bs-q" data-t="5554.1"><line x1="452.3" y1="14" x2="452.3" y2="21" stroke="#6F6A5B" stroke-width="1"/><title>1:32:34 · a question: “Brooklyn Commission for the Arts?”</title></a><a href="https://publicrecord.studio/app/m/th_hjXH6CYc#t5582" class="bs-q" data-t="5582.5"><line x1="454.6" y1="14" x2="454.6" y2="21" stroke="#6F6A5B" stroke-width="1"/><title>1:33:02 · a question: “transformation?”</title></a><a href="https://publicrecord.studio/app/m/th_hjXH6CYc#t5636" class="bs-q" data-t="5636.5"><line x1="459" y1="14" x2="459" y2="21" stroke="#6F6A5B" stroke-width="1"/><title>1:33:56 · a question: “Anyone else?”</title></a><a href="https://publicrecord.studio/app/m/th_hjXH6CYc#t5668" class="bs-q" data-t="5668.2"><line x1="461.6" y1="14" x2="461.6" y2="21" stroke="#6F6A5B" stroke-width="1"/><title>1:34:28 · a question: “How many people are in this commission?”</title></a><a href="https://publicrecord.studio/app/m/th_hjXH6CYc#t5848" class="bs-q" data-t="5848.6"><line x1="476.3" y1="14" x2="476.3" y2="21" stroke="#6F6A5B" stroke-width="1"/><title>1:37:28 · a question: “Who would like to go first?”</title></a><a href="https://publicrecord.studio/app/m/th_hjXH6CYc#t5864" class="bs-q" data-t="5864.6"><line x1="477.6" y1="14" x2="477.6" y2="21" stroke="#6F6A5B" stroke-width="1"/><title>1:37:44 · a question: “bring to the T-board?”</title></a><a href="https://publicrecord.studio/app/m/th_hjXH6CYc#t5942" class="bs-q" data-t="5942.9"><line x1="483.9" y1="14" x2="483.9" y2="21" stroke="#6F6A5B" stroke-width="1"/><title>1:39:02 · a question: “suggestions do you you have?”</title></a><a href="https://publicrecord.studio/app/m/th_hjXH6CYc#t6051" class="bs-q" data-t="6051.3"><line x1="492.8" y1="14" x2="492.8" y2="21" stroke="#6F6A5B" stroke-width="1"/><title>1:40:51 · a question: “Anyone else?”</title></a><a href="https://publicrecord.studio/app/m/th_hjXH6CYc#t6180" class="bs-q" data-t="6180.6"><line x1="503.3" y1="14" x2="503.3" y2="21" stroke="#6F6A5B" stroke-width="1"/><title>1:43:00 · a question: “you attended?”</title></a><a href="https://publicrecord.studio/app/m/th_hjXH6CYc#t6358" class="bs-q" data-t="6358.1"><line x1="517.7" y1="14" x2="517.7" y2="21" stroke="#6F6A5B" stroke-width="1"/><title>1:45:58 · a question: “Any questions from members?”</title></a><a href="https://publicrecord.studio/app/m/th_hjXH6CYc#t6372" class="bs-q" data-t="6372.3"><line x1="518.9" y1="14" x2="518.9" y2="21" stroke="#6F6A5B" stroke-width="1"/><title>1:46:12 · a question: “perspectives you bring to the T-board?”</title></a><a href="https://publicrecord.studio/app/m/th_hjXH6CYc#t658" class="bs-dec" data-i="0" data-t="658.9" data-kind="decision"><circle cx="53.7" cy="44" r="7.4" fill="#191712" opacity=".9"><title>10:58 · decision: “And I also vote yes. And once we conclude executive session, we will come back into open session.”</title></circle></a><a href="https://publicrecord.studio/app/m/th_hjXH6CYc#t4212" class="bs-dec" data-i="1" data-t="4212.3" data-kind="decision"><circle cx="343" cy="44" r="7.4" fill="#191712" opacity=".9"><title>1:10:12 · decision: “Good evening again. We are back from our executive session. In executive session, we took a vote regarding the lease…”</title></circle></a><a href="https://publicrecord.studio/app/m/th_hjXH6CYc#t4236" class="bs-dec" data-i="2" data-t="4236.2" data-kind="decision"><circle cx="345" cy="44" r="7.4" fill="#191712" opacity=".9"><title>1:10:36 · decision: “And I also vote yes. I want to thank the uh Koolage Corner Theater for uh working with us toward this agreement. and we…”</title></circle></a><a href="https://publicrecord.studio/app/m/th_hjXH6CYc#t4583" class="bs-dec" data-i="3" data-t="4583.3" data-kind="decision"><circle cx="373.2" cy="44" r="8" fill="#191712" opacity=".9"><title>1:16:23 · decision: “Um, I just want to point out that during our last town meeting, u we passed warrant article 17, under article 17, the…”</title></circle></a><a href="https://publicrecord.studio/app/m/th_hjXH6CYc#t4702" class="bs-dec" data-i="4" data-t="4702" data-kind="tension"><circle cx="382.9" cy="44" r="7.1" fill="#B23A1D" opacity=".9"><title>1:18:22 · pushback: “look into how we would reschedule in community events. Um but obviously we want to be cognizant of the community&#x27;s um…”</title></circle></a><a href="https://publicrecord.studio/app/m/th_hjXH6CYc#t5106" class="bs-dec" data-i="5" data-t="5106.7" data-kind="decision"><circle cx="415.8" cy="44" r="8" fill="#191712" opacity=".9"><title>1:25:06 · decision: “I called CHOHC and learned their course was for industry. They did not teach how to conduct a decibel test for house.…”</title></circle></a><a href="https://publicrecord.studio/app/m/th_hjXH6CYc#t5340" class="bs-dec" data-i="6" data-t="5340.7" data-kind="decision"><circle cx="434.9" cy="44" r="7.4" fill="#191712" opacity=".9"><title>1:29:00 · decision: “Anthony, yes. and I also vote yes. So with that we move to boards and commissions interviews.”</title></circle></a><a href="https://publicrecord.studio/app/m/th_hjXH6CYc#t5642" class="bs-dec" data-i="7" data-t="5642.5" data-kind="decision"><circle cx="459.5" cy="44" r="7.4" fill="#191712" opacity=".9"><title>1:34:02 · decision: “All right. Well, thank you very much for your interview. We don&#x27;t typically uh vote the same day of an interview. Uh…”</title></circle></a><a href="https://publicrecord.studio/app/m/th_hjXH6CYc#t6214" class="bs-dec" data-i="8" data-t="6214.4" data-kind="decision"><circle cx="506" cy="44" r="7.5" fill="#191712" opacity=".9"><title>1:43:34 · decision: “Uh so uh as I explained to the prior applicant, we don&#x27;t typically vote on the day of an interview, but uh we will get…”</title></circle></a><a href="https://publicrecord.studio/app/m/th_hjXH6CYc#t6762" class="bs-dec" data-i="9" data-t="6762.4" data-kind="decision"><circle cx="550.7" cy="44" r="7.4" fill="#191712" opacity=".9"><title>1:52:42 · decision: “All right. With that, we will now vote on some reappoints.”</title></circle></a><a href="https://publicrecord.studio/app/m/th_hjXH6CYc#t7584" class="bs-dec" data-i="10" data-t="7584.5" data-kind="tension"><circle cx="617.6" cy="44" r="6.7" fill="#B23A1D" opacity=".9"><title>2:06:24 · pushback: “But it raised a concern that in the five decades that I have called Brookline my home, it&#x27;s something I never even…”</title></circle></a><a href="https://publicrecord.studio/app/m/th_hjXH6CYc#t7688" class="bs-dec" data-i="11" data-t="7688.2" data-kind="tension"><circle cx="626.1" cy="44" r="7.1" fill="#B23A1D" opacity=".9"><title>2:08:08 · pushback: “I mean, I I&#x27;m a little concerned about some of the language that, you know, we&#x27;re being associated or or compared to…”</title></circle></a><a href="https://publicrecord.studio/app/m/th_hjXH6CYc#t8370" class="bs-dec" data-i="12" data-t="8370.2" data-kind="tension"><circle cx="681.6" cy="44" r="7.1" fill="#B23A1D" opacity=".9"><title>2:19:30 · pushback: “address his concern where he was trying to figure out how he was going to access the polls in the morning. um and he…”</title></circle></a><a href="https://publicrecord.studio/app/m/th_hjXH6CYc#t9197" class="bs-dec" data-i="13" data-t="9197.9" data-kind="tension"><circle cx="749" cy="44" r="7.2" fill="#B23A1D" opacity=".9"><title>2:33:17 · pushback: “can you arrange this contact so that there is a point a connection somewhere and staff know that that contact is taking…”</title></circle></a><a href="https://publicrecord.studio/app/m/th_hjXH6CYc#t9546" class="bs-dec" data-i="14" data-t="9546.1" data-kind="tension"><circle cx="777.3" cy="44" r="7.1" fill="#B23A1D" opacity=".9"><title>2:39:06 · pushback: “Right. I&#x27;m I&#x27;m just the thing I&#x27;m concerned about is is the confusion of language. If you use code of conduct in an…”</title></circle></a><a href="https://publicrecord.studio/app/m/th_hjXH6CYc#t10478" class="bs-dec" data-i="15" data-t="10478.3" data-kind="tension"><circle cx="853.3" cy="44" r="7.2" fill="#B23A1D" opacity=".9"><title>2:54:38 · pushback: “Sure. Yeah. And and for the for the items which are uh maybe the term is aspirational as opposed to measurable, right?…”</title></circle></a><text class="bs-ax" data-lo="0" data-hi="24.8" x="0" y="166" font-size="10" fill="#6F6A5B" text-anchor="start" style="font-family:var(--font-mono)">0:00</text><text class="bs-ax" data-lo="131.1" data-hi="162.1" x="146.6" y="166" font-size="10" fill="#6F6A5B" text-anchor="middle" style="font-family:var(--font-mono)">30:00</text><text class="bs-ax" data-lo="271.4" data-hi="314.8" x="293.1" y="166" font-size="10" fill="#6F6A5B" text-anchor="middle" style="font-family:var(--font-mono)">1:00:00</text><text class="bs-ax" data-lo="418" data-hi="461.4" x="439.7" y="166" font-size="10" fill="#6F6A5B" text-anchor="middle" style="font-family:var(--font-mono)">1:30:00</text><text class="bs-ax" data-lo="564.6" data-hi="608" x="586.3" y="166" font-size="10" fill="#6F6A5B" text-anchor="middle" style="font-family:var(--font-mono)">2:00:00</text><text class="bs-ax" data-lo="711.2" data-hi="754.6" x="732.9" y="166" font-size="10" fill="#6F6A5B" text-anchor="middle" style="font-family:var(--font-mono)">2:30:00</text><g class="bs-playhead"><line x1="373" y1="32" x2="373" y2="150" stroke="#B23A1D" stroke-width="2"/><text x="373" y="164" font-size="11" fill="#B23A1D" text-anchor="middle" style="font-family:var(--font-mono)">1:16:23</text></g></svg><text x="16" y="236" font-size="10" fill="#475569">a dot is a decision, sized by its weight; rust, pushback · a tick above, a question · $ a dollar figure · the eight lanes: where each lens’s words fell</text><text x="16" y="250" font-size="10" fill="#475569">https://publicrecord.studio/app/m/th_hjXH6CYc</text><text x="16" y="264" font-size="10" fill="#475569">counted from the record’s transcripts, no model · the record of 2026-09-24 · CC BY-SA 4.0</text></svg>
