<?xml version="1.0" encoding="UTF-8"?>
<svg xmlns="http://www.w3.org/2000/svg" width="953" height="276" viewBox="0 0 953 276" font-family="IBM Plex Mono, Menlo, Consolas, monospace"><title>The shape of the tape — Brookline Select Board Meeting - March 31, 2026</title><rect width="953" height="276" fill="#ffffff"/><text x="16" y="26" font-size="13" font-weight="700" fill="#0f172a">The shape of the tape — Brookline Select Board Meeting - March 31, 2026</text><svg x="36" y="44" width="880" height="168" viewBox="-100 0 990 168"><rect x="0" y="56" width="880" height="90" fill="#F3EEE3" rx="4"/><rect x="-6" y="57" width="4" height="7" fill="#A97A16"/><text x="-12" y="64" font-size="9" fill="#4B473E" text-anchor="end" style="font-family:var(--font-mono)">financial</text><path class="bs-lane" data-lens="financial" d="M14.7,63h14.1v2h-14.1zM29.3,63h14.1v2h-14.1zM73.3,63h14.1v2h-14.1zM102.7,63h14.1v2h-14.1zM176,63h14.1v2h-14.1zM190.7,62.3h14.1v2.7h-14.1zM205.3,63h14.1v2h-14.1zM220,63h14.1v2h-14.1zM249.3,61.1h14.1v3.9h-14.1zM264,61.6h14.1v3.4h-14.1zM278.7,56h14.1v9h-14.1zM293.3,63h14.1v2h-14.1zM308,62.3h14.1v2.7h-14.1zM322.7,62.1h14.1v2.9h-14.1zM337.3,63h14.1v2h-14.1zM352,63h14.1v2h-14.1zM366.7,63h14.1v2h-14.1zM381.3,61.1h14.1v3.9h-14.1zM396,63h14.1v2h-14.1zM410.7,60.6h14.1v4.4h-14.1zM425.3,63h14.1v2h-14.1zM440,63h14.1v2h-14.1zM454.7,61.1h14.1v3.9h-14.1zM469.3,63h14.1v2h-14.1zM484,63h14.1v2h-14.1zM498.7,63h14.1v2h-14.1zM513.3,63h14.1v2h-14.1zM557.3,63h14.1v2h-14.1zM586.7,63h14.1v2h-14.1zM601.3,63h14.1v2h-14.1zM718.7,63h14.1v2h-14.1zM733.3,63h14.1v2h-14.1zM792,63h14.1v2h-14.1zM806.7,62.1h14.1v2.9h-14.1zM821.3,63h14.1v2h-14.1zM836,63h14.1v2h-14.1zM850.7,63h14.1v2h-14.1zM865.3,63h14.1v2h-14.1z" fill="#A97A16" opacity=".55"><title>financial — 256 words, where they fell along the tape</title></path><rect x="-6" y="68" width="4" height="7" fill="#B0542D"/><text x="-12" y="75" font-size="9" fill="#4B473E" text-anchor="end" style="font-family:var(--font-mono)">safety</text><path class="bs-lane" data-lens="safety" d="M44,74h14.1v2h-14.1zM58.7,74h14.1v2h-14.1zM88,74h14.1v2h-14.1zM102.7,74h14.1v2h-14.1zM146.7,74h14.1v2h-14.1zM176,74h14.1v2h-14.1zM205.3,74h14.1v2h-14.1zM234.7,74h14.1v2h-14.1zM264,74h14.1v2h-14.1zM293.3,74h14.1v2h-14.1zM308,74h14.1v2h-14.1zM322.7,74h14.1v2h-14.1zM352,74h14.1v2h-14.1zM410.7,73.4h14.1v2.6h-14.1zM425.3,73h14.1v3h-14.1zM440,73.4h14.1v2.6h-14.1zM484,74h14.1v2h-14.1zM498.7,74h14.1v2h-14.1zM513.3,74h14.1v2h-14.1zM528,74h14.1v2h-14.1zM557.3,74h14.1v2h-14.1zM586.7,74h14.1v2h-14.1zM601.3,74h14.1v2h-14.1zM616,74h14.1v2h-14.1zM660,71.3h14.1v4.7h-14.1zM674.7,69.6h14.1v6.4h-14.1zM689.3,67.4h14.1v8.6h-14.1zM704,69.6h14.1v6.4h-14.1zM718.7,67h14.1v9h-14.1zM733.3,72.6h14.1v3.4h-14.1zM748,74h14.1v2h-14.1zM762.7,73h14.1v3h-14.1zM777.3,73.9h14.1v2.1h-14.1zM792,72.6h14.1v3.4h-14.1zM806.7,72.1h14.1v3.9h-14.1zM821.3,74h14.1v2h-14.1z" fill="#B0542D" opacity=".55"><title>safety — 179 words, where they fell along the tape</title></path><rect x="-6" y="79" width="4" height="7" fill="#3FA9D0"/><text x="-12" y="86" font-size="9" fill="#4B473E" text-anchor="end" style="font-family:var(--font-mono)">community</text><path class="bs-lane" data-lens="community" d="M14.7,85h14.1v2h-14.1zM29.3,85h14.1v2h-14.1zM44,84.6h14.1v2.4h-14.1zM58.7,85h14.1v2h-14.1zM73.3,85h14.1v2h-14.1zM88,85h14.1v2h-14.1zM102.7,85h14.1v2h-14.1zM132,85h14.1v2h-14.1zM176,84.6h14.1v2.4h-14.1zM234.7,85h14.1v2h-14.1zM249.3,85h14.1v2h-14.1zM264,78.6h14.1v8.4h-14.1zM293.3,84.6h14.1v2.4h-14.1zM308,78h14.1v9h-14.1zM322.7,81h14.1v6h-14.1zM337.3,81.6h14.1v5.4h-14.1zM352,81h14.1v6h-14.1zM366.7,79.2h14.1v7.8h-14.1zM381.3,79.2h14.1v7.8h-14.1zM410.7,84.6h14.1v2.4h-14.1zM440,85h14.1v2h-14.1zM454.7,85h14.1v2h-14.1zM469.3,85h14.1v2h-14.1zM498.7,85h14.1v2h-14.1zM586.7,83.4h14.1v3.6h-14.1zM601.3,84.6h14.1v2.4h-14.1zM616,85h14.1v2h-14.1zM630.7,84.6h14.1v2.4h-14.1zM645.3,84h14.1v3h-14.1zM660,84.6h14.1v2.4h-14.1zM733.3,85h14.1v2h-14.1zM762.7,85h14.1v2h-14.1zM777.3,85h14.1v2h-14.1zM792,85h14.1v2h-14.1zM806.7,85h14.1v2h-14.1zM821.3,85h14.1v2h-14.1zM836,84.6h14.1v2.4h-14.1zM865.3,85h14.1v2h-14.1z" fill="#3FA9D0" opacity=".55"><title>community — 160 words, where they fell along the tape</title></path><rect x="-6" y="90" width="4" height="7" fill="#1E7F63"/><text x="-12" y="97" font-size="9" fill="#4B473E" text-anchor="end" style="font-family:var(--font-mono)">environmental</text><path class="bs-lane" data-lens="environmental" d="M14.7,96h14.1v2h-14.1zM249.3,96h14.1v2h-14.1zM264,96h14.1v2h-14.1zM308,96h14.1v2h-14.1zM337.3,96h14.1v2h-14.1zM410.7,89h14.1v9h-14.1zM440,96h14.1v2h-14.1zM484,95.8h14.1v2.2h-14.1zM586.7,96h14.1v2h-14.1zM616,96h14.1v2h-14.1zM689.3,96h14.1v2h-14.1zM836,96h14.1v2h-14.1zM865.3,96h14.1v2h-14.1z" fill="#1E7F63" opacity=".55"><title>environmental — 36 words, where they fell along the tape</title></path><rect x="-6" y="101" width="4" height="7" fill="#7E5B8E"/><text x="-12" y="108" font-size="9" fill="#4B473E" text-anchor="end" style="font-family:var(--font-mono)">legal</text><path class="bs-lane" data-lens="legal" d="M73.3,107h14.1v2h-14.1zM88,107h14.1v2h-14.1zM132,107h14.1v2h-14.1zM161.3,107h14.1v2h-14.1zM234.7,107h14.1v2h-14.1zM249.3,107h14.1v2h-14.1zM264,107h14.1v2h-14.1zM293.3,107h14.1v2h-14.1zM381.3,107h14.1v2h-14.1zM513.3,107h14.1v2h-14.1zM660,102.8h14.1v6.2h-14.1zM674.7,100.7h14.1v8.3h-14.1zM689.3,100h14.1v9h-14.1zM704,104.8h14.1v4.2h-14.1zM718.7,100.7h14.1v8.3h-14.1zM748,106.2h14.1v2.8h-14.1zM762.7,102.8h14.1v6.2h-14.1zM777.3,105.5h14.1v3.5h-14.1zM792,107h14.1v2h-14.1zM821.3,106.9h14.1v2.1h-14.1z" fill="#7E5B8E" opacity=".55"><title>legal — 87 words, where they fell along the tape</title></path><rect x="-6" y="112" width="4" height="7" fill="#C77BA6"/><text x="-12" y="119" font-size="9" fill="#4B473E" text-anchor="end" style="font-family:var(--font-mono)">equity</text><path class="bs-lane" data-lens="equity" d="M29.3,118h14.1v2h-14.1zM73.3,116.1h14.1v3.9h-14.1zM88,111h14.1v9h-14.1zM102.7,117.4h14.1v2.6h-14.1zM308,117.4h14.1v2.6h-14.1zM322.7,116.1h14.1v3.9h-14.1zM337.3,116.1h14.1v3.9h-14.1zM352,118h14.1v2h-14.1zM366.7,116.1h14.1v3.9h-14.1zM572,118h14.1v2h-14.1z" fill="#C77BA6" opacity=".55"><title>equity — 26 words, where they fell along the tape</title></path><rect x="-6" y="123" width="4" height="7" fill="#B08968"/><text x="-12" y="130" font-size="9" fill="#4B473E" text-anchor="end" style="font-family:var(--font-mono)">infrastructure</text><path class="bs-lane" data-lens="infrastructure" d="M29.3,129h14.1v2h-14.1zM44,129h14.1v2h-14.1zM58.7,129h14.1v2h-14.1zM88,129h14.1v2h-14.1zM102.7,127.9h14.1v3.1h-14.1zM176,129h14.1v2h-14.1zM293.3,129h14.1v2h-14.1zM308,129h14.1v2h-14.1zM337.3,129h14.1v2h-14.1zM381.3,129h14.1v2h-14.1zM410.7,122h14.1v9h-14.1zM425.3,124.4h14.1v6.6h-14.1zM440,127.2h14.1v3.8h-14.1zM454.7,129h14.1v2h-14.1zM469.3,129h14.1v2h-14.1zM484,126.2h14.1v4.8h-14.1zM498.7,128.2h14.1v2.8h-14.1zM513.3,129h14.1v2h-14.1zM528,129h14.1v2h-14.1zM586.7,129h14.1v2h-14.1zM630.7,129h14.1v2h-14.1zM689.3,129h14.1v2h-14.1zM762.7,129h14.1v2h-14.1zM836,129h14.1v2h-14.1z" fill="#B08968" opacity=".55"><title>infrastructure — 130 words, where they fell along the tape</title></path><rect x="-6" y="134" width="4" height="7" fill="#7E7D75"/><text x="-12" y="141" font-size="9" fill="#4B473E" text-anchor="end" style="font-family:var(--font-mono)">process</text><path class="bs-lane" data-lens="process" d="M44,140h14.1v2h-14.1zM58.7,140h14.1v2h-14.1zM88,134.1h14.1v7.9h-14.1zM117.3,140h14.1v2h-14.1zM132,140h14.1v2h-14.1zM161.3,140h14.1v2h-14.1zM176,139.9h14.1v2.1h-14.1zM205.3,140h14.1v2h-14.1zM249.3,140h14.1v2h-14.1zM264,140h14.1v2h-14.1zM322.7,140h14.1v2h-14.1zM366.7,140h14.1v2h-14.1zM381.3,140h14.1v2h-14.1zM396,140h14.1v2h-14.1zM454.7,140h14.1v2h-14.1zM469.3,139.9h14.1v2.1h-14.1zM498.7,140h14.1v2h-14.1zM557.3,140h14.1v2h-14.1zM586.7,137.2h14.1v4.8h-14.1zM601.3,139.4h14.1v2.6h-14.1zM630.7,140h14.1v2h-14.1zM645.3,133h14.1v9h-14.1zM660,135.6h14.1v6.4h-14.1zM674.7,138.8h14.1v3.2h-14.1zM718.7,137.2h14.1v4.8h-14.1zM733.3,138.3h14.1v3.7h-14.1zM748,137.8h14.1v4.2h-14.1zM762.7,140h14.1v2h-14.1zM777.3,136.2h14.1v5.8h-14.1zM792,140h14.1v2h-14.1zM806.7,140h14.1v2h-14.1zM821.3,136.2h14.1v5.8h-14.1zM836,136.7h14.1v5.3h-14.1zM850.7,137.8h14.1v4.2h-14.1zM865.3,140h14.1v2h-14.1z" fill="#7E7D75" opacity=".55"><title>process — 164 words, where they fell along the tape</title></path><a href="https://publicrecord.studio/app/m/uEqAgInBVJo#t550" class="bs-tick" data-t="550.8" data-lens="environmental" data-text="Good evening. I&#x27;m Bernard Green, chair"><rect x="21.3" y="89" width="3" height="9" fill="#1E7F63"><title>9:10 · environmental: “Good evening. I&#x27;m Bernard Green, chair”</title></rect></a><a href="https://publicrecord.studio/app/m/uEqAgInBVJo#t652" class="bs-tick" data-t="652" data-lens="community" data-text="community to participate."><rect x="25.5" y="78" width="3" height="9" fill="#3FA9D0"><title>10:52 · community: “community to participate.”</title></rect></a><a href="https://publicrecord.studio/app/m/uEqAgInBVJo#t684" class="bs-tick" data-t="684.6" data-lens="community" data-text="extraordinary number of volunteers who"><rect x="26.9" y="78" width="3" height="9" fill="#3FA9D0"><title>11:24 · community: “extraordinary number of volunteers who”</title></rect></a><a href="https://publicrecord.studio/app/m/uEqAgInBVJo#t881" class="bs-tick" data-t="881.6" data-lens="community" data-text="Center for Community Mental Health, but"><rect x="35.1" y="78" width="3" height="9" fill="#3FA9D0"><title>14:41 · community: “Center for Community Mental Health, but”</title></rect></a><a href="https://publicrecord.studio/app/m/uEqAgInBVJo#t944" class="bs-tick" data-t="944.1" data-lens="equity" data-text="awareness for discrimination that is"><rect x="37.7" y="111" width="3" height="9" fill="#C77BA6"><title>15:44 · equity: “awareness for discrimination that is”</title></rect></a><a href="https://publicrecord.studio/app/m/uEqAgInBVJo#t1129" class="bs-tick" data-t="1129.6" data-lens="community" data-text="64 acres to the residents of Brooklyn"><rect x="45.4" y="78" width="3" height="9" fill="#3FA9D0"><title>18:49 · community: “64 acres to the residents of Brooklyn”</title></rect></a><a href="https://publicrecord.studio/app/m/uEqAgInBVJo#t1247" class="bs-tick" data-t="1247" data-lens="community" data-text="A survey was sent to residents, but it"><rect x="50.2" y="78" width="3" height="9" fill="#3FA9D0"><title>20:47 · community: “A survey was sent to residents, but it”</title></rect></a><a href="https://publicrecord.studio/app/m/uEqAgInBVJo#t1251" class="bs-tick" data-t="1251.5" data-lens="community" data-text="Anderson and not how residents want to"><rect x="50.4" y="78" width="3" height="9" fill="#3FA9D0"><title>20:51 · community: “Anderson and not how residents want to”</title></rect></a><a href="https://publicrecord.studio/app/m/uEqAgInBVJo#t1999" class="bs-tick" data-t="1999.2" data-lens="legal" data-text="2017, they reconfirmed that with a bylaw"><rect x="81.4" y="100" width="3" height="9" fill="#7E5B8E"><title>33:19 · legal: “2017, they reconfirmed that with a bylaw”</title></rect></a><a href="https://publicrecord.studio/app/m/uEqAgInBVJo#t2011" class="bs-tick" data-t="2011.3" data-lens="equity" data-text="hand to make uh Brooklyn more accessible"><rect x="81.9" y="111" width="3" height="9" fill="#C77BA6"><title>33:31 · equity: “hand to make uh Brooklyn more accessible”</title></rect></a><a href="https://publicrecord.studio/app/m/uEqAgInBVJo#t2081" class="bs-tick" data-t="2081" data-lens="legal" data-text="as well as compliance"><rect x="84.8" y="100" width="3" height="9" fill="#7E5B8E"><title>34:41 · legal: “as well as compliance”</title></rect></a><a href="https://publicrecord.studio/app/m/uEqAgInBVJo#t2088" class="bs-tick" data-t="2088.6" data-lens="equity" data-text="day-to-day accessibility issues. Nancy"><rect x="85.1" y="111" width="3" height="9" fill="#C77BA6"><title>34:48 · equity: “day-to-day accessibility issues. Nancy”</title></rect></a><a href="https://publicrecord.studio/app/m/uEqAgInBVJo#t2097" class="bs-tick" data-t="2097.5" data-lens="equity" data-text="accessibility is in the forefront of all"><rect x="85.5" y="111" width="3" height="9" fill="#C77BA6"><title>34:57 · equity: “accessibility is in the forefront of all”</title></rect></a><a href="https://publicrecord.studio/app/m/uEqAgInBVJo#t2135" class="bs-tick" data-t="2135.2" data-lens="equity" data-text="across an accessibility feature in"><rect x="87.1" y="111" width="3" height="9" fill="#C77BA6"><title>35:35 · equity: “across an accessibility feature in”</title></rect></a><a href="https://publicrecord.studio/app/m/uEqAgInBVJo#t2214" class="bs-tick" data-t="2214.5" data-lens="equity" data-text="uh promote inclusive participation."><rect x="90.4" y="111" width="3" height="9" fill="#C77BA6"><title>36:54 · equity: “uh promote inclusive participation.”</title></rect></a><a href="https://publicrecord.studio/app/m/uEqAgInBVJo#t2234" class="bs-tick" data-t="2234.5" data-lens="process" data-text="articles last year. Warrant article 13"><rect x="91.2" y="133" width="3" height="9" fill="#7E7D75"><title>37:14 · process: “articles last year. Warrant article 13”</title></rect></a><a href="https://publicrecord.studio/app/m/uEqAgInBVJo#t2246" class="bs-tick" data-t="2246.2" data-lens="process" data-text="residents. Warrant article 14 and 15"><rect x="91.7" y="133" width="3" height="9" fill="#7E7D75"><title>37:26 · process: “residents. Warrant article 14 and 15”</title></rect></a><a href="https://publicrecord.studio/app/m/uEqAgInBVJo#t2263" class="bs-tick" data-t="2263.8" data-lens="legal" data-text="uh an exception to the demolition bylaw."><rect x="92.4" y="100" width="3" height="9" fill="#7E5B8E"><title>37:43 · legal: “uh an exception to the demolition bylaw.”</title></rect></a><a href="https://publicrecord.studio/app/m/uEqAgInBVJo#t2266" class="bs-tick" data-t="2266.9" data-lens="process" data-text="Warrant article 16 uh modified the"><rect x="92.5" y="133" width="3" height="9" fill="#7E7D75"><title>37:46 · process: “Warrant article 16 uh modified the”</title></rect></a><a href="https://publicrecord.studio/app/m/uEqAgInBVJo#t2494" class="bs-tick" data-t="2494.2" data-lens="infrastructure" data-text="on Beacon Street, Washington Street,"><rect x="102" y="122" width="3" height="9" fill="#B08968"><title>41:34 · infrastructure: “on Beacon Street, Washington Street,”</title></rect></a><a href="https://publicrecord.studio/app/m/uEqAgInBVJo#t2872" class="bs-tick" data-t="2872" data-lens="process" data-text="delegation to subcommittee subcommittees"><rect x="117.6" y="133" width="3" height="9" fill="#7E7D75"><title>47:52 · process: “delegation to subcommittee subcommittees”</title></rect></a><a href="https://publicrecord.studio/app/m/uEqAgInBVJo#t3232" class="bs-tick" data-t="3232.6" data-lens="legal" data-text="assistant town counsel for the town of"><rect x="132.6" y="100" width="3" height="9" fill="#7E5B8E"><title>53:52 · legal: “assistant town counsel for the town of”</title></rect></a><a href="https://publicrecord.studio/app/m/uEqAgInBVJo#t4234" class="bs-tick" data-t="4234.1" data-lens="legal" data-text="attorney uh employees whose"><rect x="174.1" y="100" width="3" height="9" fill="#7E5B8E"><title>1:10:34 · legal: “attorney uh employees whose”</title></rect></a><a href="https://publicrecord.studio/app/m/uEqAgInBVJo#t4300" class="bs-tick" data-t="4300.6" data-lens="safety" data-text="fire firefighters do have set schedules."><rect x="176.9" y="67" width="3" height="9" fill="#B0542D"><title>1:11:40 · safety: “fire firefighters do have set schedules.”</title></rect></a><a href="https://publicrecord.studio/app/m/uEqAgInBVJo#t4396" class="bs-tick" data-t="4396.2" data-lens="financial" data-text="the expense and revenue study committee,"><rect x="180.9" y="56" width="3" height="9" fill="#A97A16"><title>1:13:16 · financial: “the expense and revenue study committee,”</title></rect></a><a href="https://publicrecord.studio/app/m/uEqAgInBVJo#t4523" class="bs-tick" data-t="4523.7" data-lens="process" data-text="debate. Um, there&#x27;ll be warrant article"><rect x="186.1" y="133" width="3" height="9" fill="#7E7D75"><title>1:15:23 · process: “debate. Um, there&#x27;ll be warrant article”</title></rect></a><a href="https://publicrecord.studio/app/m/uEqAgInBVJo#t4791" class="bs-tick" data-t="4791.2" data-lens="financial" data-text="fundraising. Fundraising connected to"><rect x="197.2" y="56" width="3" height="9" fill="#A97A16"><title>1:19:51 · financial: “fundraising. Fundraising connected to”</title></rect></a><a href="https://publicrecord.studio/app/m/uEqAgInBVJo#t5701" class="bs-tick" data-t="5701.8" data-lens="legal" data-text="override, we&#x27;re counseling everyone to"><rect x="235" y="100" width="3" height="9" fill="#7E5B8E"><title>1:35:01 · legal: “override, we&#x27;re counseling everyone to”</title></rect></a><a href="https://publicrecord.studio/app/m/uEqAgInBVJo#t6215" class="bs-tick" data-t="6215.1" data-lens="environmental" data-text="Good evening. Thank you, Chair Green,"><rect x="256.3" y="89" width="3" height="9" fill="#1E7F63"><title>1:43:35 · environmental: “Good evening. Thank you, Chair Green,”</title></rect></a><a href="https://publicrecord.studio/app/m/uEqAgInBVJo#t6240" class="bs-tick" data-t="6240.1" data-lens="financial" data-text="relates to grant funding and offsets."><rect x="257.3" y="56" width="3" height="9" fill="#A97A16"><title>1:44:00 · financial: “relates to grant funding and offsets.”</title></rect></a><a href="https://publicrecord.studio/app/m/uEqAgInBVJo#t6266" class="bs-tick" data-t="6266.8" data-lens="financial" data-text="a half a million from one grant with"><rect x="258.4" y="56" width="3" height="9" fill="#A97A16"><title>1:44:26 · financial: “a half a million from one grant with”</title></rect></a><a href="https://publicrecord.studio/app/m/uEqAgInBVJo#t6273" class="bs-tick" data-t="6273.4" data-lens="financial" data-text="using about a half a million dollars in"><rect x="258.7" y="56" width="3" height="9" fill="#A97A16"><title>1:44:33 · financial: “using about a half a million dollars in”</title></rect></a><a href="https://publicrecord.studio/app/m/uEqAgInBVJo#t6336" class="bs-tick" data-t="6336" data-lens="financial" data-text="non-operating budget. So that&#x27;s grants"><rect x="261.3" y="56" width="3" height="9" fill="#A97A16"><title>1:45:36 · financial: “non-operating budget. So that&#x27;s grants”</title></rect></a><a href="https://publicrecord.studio/app/m/uEqAgInBVJo#t6518" class="bs-tick" data-t="6518.2" data-lens="environmental" data-text="operations in our environmental health"><rect x="268.9" y="89" width="3" height="9" fill="#1E7F63"><title>1:48:38 · environmental: “operations in our environmental health”</title></rect></a><a href="https://publicrecord.studio/app/m/uEqAgInBVJo#t7654" class="bs-tick" data-t="7654.4" data-lens="environmental" data-text="sustainable infrastructure and"><rect x="316" y="89" width="3" height="9" fill="#1E7F63"><title>2:07:34 · environmental: “sustainable infrastructure and”</title></rect></a><a href="https://publicrecord.studio/app/m/uEqAgInBVJo#t8191" class="bs-tick" data-t="8191.5" data-lens="environmental" data-text="breath of knowledge, the energy, the"><rect x="338.3" y="89" width="3" height="9" fill="#1E7F63"><title>2:16:31 · environmental: “breath of knowledge, the energy, the”</title></rect></a><a href="https://publicrecord.studio/app/m/uEqAgInBVJo#t8325" class="bs-tick" data-t="8325.4" data-lens="environmental" data-text="to that for sustainability and future"><rect x="343.8" y="89" width="3" height="9" fill="#1E7F63"><title>2:18:45 · environmental: “to that for sustainability and future”</title></rect></a><a href="https://publicrecord.studio/app/m/uEqAgInBVJo#t8524" class="bs-tick" data-t="8524.4" data-lens="safety" data-text="department as well as police, fire, and"><rect x="352.1" y="67" width="3" height="9" fill="#B0542D"><title>2:22:04 · safety: “department as well as police, fire, and”</title></rect></a><a href="https://publicrecord.studio/app/m/uEqAgInBVJo#t9906" class="bs-tick" data-t="9906.1" data-lens="infrastructure" data-text="sidewalks, parks, water and sewer,"><rect x="409.4" y="122" width="3" height="9" fill="#B08968"><title>2:45:06 · infrastructure: “sidewalks, parks, water and sewer,”</title></rect></a><a href="https://publicrecord.studio/app/m/uEqAgInBVJo#t10011" class="bs-tick" data-t="10011.5" data-lens="infrastructure" data-text="approach, including roadway and sidewalk"><rect x="413.8" y="122" width="3" height="9" fill="#B08968"><title>2:46:51 · infrastructure: “approach, including roadway and sidewalk”</title></rect></a><a href="https://publicrecord.studio/app/m/uEqAgInBVJo#t10093" class="bs-tick" data-t="10093" data-lens="infrastructure" data-text="it means keeping roads, sidewalks,"><rect x="417.2" y="122" width="3" height="9" fill="#B08968"><title>2:48:13 · infrastructure: “it means keeping roads, sidewalks,”</title></rect></a><a href="https://publicrecord.studio/app/m/uEqAgInBVJo#t10183" class="bs-tick" data-t="10183.5" data-lens="infrastructure" data-text="Brook Lion&#x27;s roadway and sidewalks"><rect x="420.9" y="122" width="3" height="9" fill="#B08968"><title>2:49:43 · infrastructure: “Brook Lion&#x27;s roadway and sidewalks”</title></rect></a><a href="https://publicrecord.studio/app/m/uEqAgInBVJo#t10219" class="bs-tick" data-t="10219.7" data-lens="infrastructure" data-text="of roads. Uh the roads are mapped by"><rect x="422.4" y="122" width="3" height="9" fill="#B08968"><title>2:50:19 · infrastructure: “of roads. Uh the roads are mapped by”</title></rect></a><a href="https://publicrecord.studio/app/m/uEqAgInBVJo#t10854" class="bs-tick" data-t="10854.5" data-lens="safety" data-text="with mass DOT and whole police fire."><rect x="448.7" y="67" width="3" height="9" fill="#B0542D"><title>3:00:54 · safety: “with mass DOT and whole police fire.”</title></rect></a><a href="https://publicrecord.studio/app/m/uEqAgInBVJo#t14314" class="bs-tick" data-t="14314.7" data-lens="process" data-text="which is the U 8mm warrant article"><rect x="592.3" y="133" width="3" height="9" fill="#7E7D75"><title>3:58:34 · process: “which is the U 8mm warrant article”</title></rect></a><a href="https://publicrecord.studio/app/m/uEqAgInBVJo#t15032" class="bs-tick" data-t="15032.2" data-lens="safety" data-text="the firefighters and the police officers"><rect x="622" y="67" width="3" height="9" fill="#B0542D"><title>4:10:32 · safety: “the firefighters and the police officers”</title></rect></a><a href="https://publicrecord.studio/app/m/uEqAgInBVJo#t16646" class="bs-tick" data-t="16646" data-lens="safety" data-text="police department and other police"><rect x="689" y="67" width="3" height="9" fill="#B0542D"><title>4:37:26 · safety: “police department and other police”</title></rect></a><a href="https://publicrecord.studio/app/m/uEqAgInBVJo#t17467" class="bs-tick" data-t="17467.2" data-lens="safety" data-text="enforced, I presume, by town police"><rect x="723" y="67" width="3" height="9" fill="#B0542D"><title>4:51:07 · safety: “enforced, I presume, by town police”</title></rect></a><a href="https://publicrecord.studio/app/m/uEqAgInBVJo#t909" class="bs-money" data-t="909.5" data-label="$5,000"><line x1="37.7" y1="54" x2="37.7" y2="34" stroke="#A97A16" stroke-width="1"/><text x="37.7" y="34" font-size="10" fill="#7A5A10" text-anchor="start" style="font-family:var(--font-mono)">$5,000<title>$5,000 — said 1 time, first at 15:09</title></text></a><a href="https://publicrecord.studio/app/m/uEqAgInBVJo#t2544" class="bs-money" data-t="2544.7" data-label="$49,852.19"><line x1="105.6" y1="54" x2="105.6" y2="45" stroke="#A97A16" stroke-width="1"/><text x="105.6" y="45" font-size="10" fill="#7A5A10" text-anchor="start" style="font-family:var(--font-mono)">$49,852.19<title>$49,852.19 — said 1 time, first at 42:24</title></text></a><a href="https://publicrecord.studio/app/m/uEqAgInBVJo#t2544" class="bs-money" data-t="2544.7" data-label="$50,000"><line x1="105.6" y1="54" x2="105.6" y2="34" stroke="#A97A16" stroke-width="1"/><text x="105.6" y="34" font-size="10" fill="#7A5A10" text-anchor="start" style="font-family:var(--font-mono)">$50,000<title>$50,000 — said 1 time, first at 42:24</title></text></a><a href="https://publicrecord.studio/app/m/uEqAgInBVJo#t7739" class="bs-money" data-t="7739.4" data-label="$1.3 million"><line x1="321" y1="54" x2="321" y2="45" stroke="#A97A16" stroke-width="1"/><text x="321" y="45" font-size="10" fill="#7A5A10" text-anchor="start" style="font-family:var(--font-mono)">$1.3 million<title>$1.3 million — said 1 time, first at 2:08:59</title></text></a><a href="https://publicrecord.studio/app/m/uEqAgInBVJo#t9299" class="bs-money" data-t="9299.8" data-label="$4,778,400"><line x1="385.8" y1="54" x2="385.8" y2="34" stroke="#A97A16" stroke-width="1"/><text x="385.8" y="34" font-size="10" fill="#7A5A10" text-anchor="start" style="font-family:var(--font-mono)">$4,778,400<title>$4,778,400 — said 1 time, first at 2:34:59</title></text></a><a href="https://publicrecord.studio/app/m/uEqAgInBVJo#t12339" class="bs-money" data-t="12339" data-label="$40"><line x1="511.8" y1="54" x2="511.8" y2="45" stroke="#A97A16" stroke-width="1"/><text x="511.8" y="45" font-size="10" fill="#7A5A10" text-anchor="start" style="font-family:var(--font-mono)">$40<title>$40 — said 3 times, first at 3:25:39</title></text></a><a href="https://publicrecord.studio/app/m/uEqAgInBVJo#t12497" class="bs-money" data-t="12497.5" data-label="$40"><line x1="518.4" y1="54" x2="518.4" y2="34" stroke="#A97A16" stroke-width="1"/><text x="518.4" y="34" font-size="10" fill="#7A5A10" text-anchor="start" style="font-family:var(--font-mono)">$40<title>$40 — said 4 times, first at 3:28:17</title></text></a><a href="https://publicrecord.studio/app/m/uEqAgInBVJo#t12710" class="bs-money" data-t="12710.6" data-label="$2"><line x1="527.2" y1="54" x2="527.2" y2="45" stroke="#A97A16" stroke-width="1"/><text x="527.2" y="45" font-size="10" fill="#7A5A10" text-anchor="start" style="font-family:var(--font-mono)">$2<title>$2 — said 2 times, first at 3:31:50</title></text></a><a href="https://publicrecord.studio/app/m/uEqAgInBVJo#t647" class="bs-q" data-t="647"><line x1="26.8" y1="24" x2="26.8" y2="31" stroke="#6F6A5B" stroke-width="1"/><title>10:47 · a question: “Can I ask a quick question about that?”</title></a><a href="https://publicrecord.studio/app/m/uEqAgInBVJo#t665" class="bs-q" data-t="665.1"><line x1="27.6" y1="24" x2="27.6" y2="31" stroke="#6F6A5B" stroke-width="1"/><title>11:05 · a question: “Any other updates, announcements?”</title></a><a href="https://publicrecord.studio/app/m/uEqAgInBVJo#t817" class="bs-q" data-t="817"><line x1="33.9" y1="24" x2="33.9" y2="31" stroke="#6F6A5B" stroke-width="1"/><title>13:37 · a question: “instrument known as today?”</title></a><a href="https://publicrecord.studio/app/m/uEqAgInBVJo#t1094" class="bs-q" data-t="1094.1"><line x1="45.4" y1="24" x2="45.4" y2="31" stroke="#6F6A5B" stroke-width="1"/><title>18:14 · a question: “three minutes started?”</title></a><a href="https://publicrecord.studio/app/m/uEqAgInBVJo#t1300" class="bs-q" data-t="1300.8"><line x1="54" y1="24" x2="54" y2="31" stroke="#6F6A5B" stroke-width="1"/><title>21:40 · a question: “while she&#x27;s getting her talking points?”</title></a><a href="https://publicrecord.studio/app/m/uEqAgInBVJo#t1302" class="bs-q" data-t="1302.2"><line x1="54" y1="24" x2="54" y2="31" stroke="#6F6A5B" stroke-width="1"/><title>21:42 · a question: “Can I uh mention something real quick?”</title></a><a href="https://publicrecord.studio/app/m/uEqAgInBVJo#t1595" class="bs-q" data-t="1595.7"><line x1="66.2" y1="24" x2="66.2" y2="31" stroke="#6F6A5B" stroke-width="1"/><title>26:35 · a question: “Any other public comments?”</title></a><a href="https://publicrecord.studio/app/m/uEqAgInBVJo#t1624" class="bs-q" data-t="1624.6"><line x1="67.4" y1="24" x2="67.4" y2="31" stroke="#6F6A5B" stroke-width="1"/><title>27:04 · a question: “to those minutes?”</title></a><a href="https://publicrecord.studio/app/m/uEqAgInBVJo#t1730" class="bs-q" data-t="1730.2"><line x1="71.8" y1="24" x2="71.8" y2="31" stroke="#6F6A5B" stroke-width="1"/><title>28:50 · a question: “take out and discuss?”</title></a><a href="https://publicrecord.studio/app/m/uEqAgInBVJo#t1876" class="bs-q" data-t="1876.8"><line x1="77.8" y1="24" x2="77.8" y2="31" stroke="#6F6A5B" stroke-width="1"/><title>31:16 · a question: “What didn&#x27;t show up?”</title></a><a href="https://publicrecord.studio/app/m/uEqAgInBVJo#t1880" class="bs-q" data-t="1880.2"><line x1="78" y1="24" x2="78" y2="31" stroke="#6F6A5B" stroke-width="1"/><title>31:20 · a question: “Does that timer change the presentation?”</title></a><a href="https://publicrecord.studio/app/m/uEqAgInBVJo#t1964" class="bs-q" data-t="1964.6"><line x1="81.5" y1="24" x2="81.5" y2="31" stroke="#6F6A5B" stroke-width="1"/><title>32:44 · a question: “Can everybody hear me?”</title></a><a href="https://publicrecord.studio/app/m/uEqAgInBVJo#t2775" class="bs-q" data-t="2775.9"><line x1="115.1" y1="24" x2="115.1" y2="31" stroke="#6F6A5B" stroke-width="1"/><title>46:15 · a question: “Brookline Housing Authority?”</title></a><a href="https://publicrecord.studio/app/m/uEqAgInBVJo#t2969" class="bs-q" data-t="2969.8"><line x1="123.2" y1="24" x2="123.2" y2="31" stroke="#6F6A5B" stroke-width="1"/><title>49:29 · a question: “Anything else?”</title></a><a href="https://publicrecord.studio/app/m/uEqAgInBVJo#t3126" class="bs-q" data-t="3126.6"><line x1="129.7" y1="24" x2="129.7" y2="31" stroke="#6F6A5B" stroke-width="1"/><title>52:06 · a question: “Jonathan, can you share your screen?”</title></a><a href="https://publicrecord.studio/app/m/uEqAgInBVJo#t3128" class="bs-q" data-t="3128.2"><line x1="129.8" y1="24" x2="129.8" y2="31" stroke="#6F6A5B" stroke-width="1"/><title>52:08 · a question: “you share your slides?”</title></a><a href="https://publicrecord.studio/app/m/uEqAgInBVJo#t3132" class="bs-q" data-t="3132.6"><line x1="129.9" y1="24" x2="129.9" y2="31" stroke="#6F6A5B" stroke-width="1"/><title>52:12 · a question: “Weren&#x27;t they in the packet?”</title></a><a href="https://publicrecord.studio/app/m/uEqAgInBVJo#t3328" class="bs-q" data-t="3328.2"><line x1="138.1" y1="24" x2="138.1" y2="31" stroke="#6F6A5B" stroke-width="1"/><title>55:28 · a question: “or that limitation?”</title></a><a href="https://publicrecord.studio/app/m/uEqAgInBVJo#t3334" class="bs-q" data-t="3334.6"><line x1="138.3" y1="24" x2="138.3" y2="31" stroke="#6F6A5B" stroke-width="1"/><title>55:34 · a question: “school committee members?”</title></a><a href="https://publicrecord.studio/app/m/uEqAgInBVJo#t3386" class="bs-q" data-t="3386.1"><line x1="140.5" y1="24" x2="140.5" y2="31" stroke="#6F6A5B" stroke-width="1"/><title>56:26 · a question: “Is that what you said?”</title></a><a href="https://publicrecord.studio/app/m/uEqAgInBVJo#t3743" class="bs-q" data-t="3743.6"><line x1="155.3" y1="24" x2="155.3" y2="31" stroke="#6F6A5B" stroke-width="1"/><title>1:02:23 · a question: “select board in those communications?”</title></a><a href="https://publicrecord.studio/app/m/uEqAgInBVJo#t3848" class="bs-q" data-t="3848.7"><line x1="159.6" y1="24" x2="159.6" y2="31" stroke="#6F6A5B" stroke-width="1"/><title>1:04:08 · a question: “I ask you to um fix this slide?”</title></a><a href="https://publicrecord.studio/app/m/uEqAgInBVJo#t3892" class="bs-q" data-t="3892.2"><line x1="161.4" y1="24" x2="161.4" y2="31" stroke="#6F6A5B" stroke-width="1"/><title>1:04:52 · a question: “advisory committee members?”</title></a><a href="https://publicrecord.studio/app/m/uEqAgInBVJo#t3894" class="bs-q" data-t="3894.6"><line x1="161.5" y1="24" x2="161.5" y2="31" stroke="#6F6A5B" stroke-width="1"/><title>1:04:54 · a question: “Are they elected or appointed?”</title></a><a href="https://publicrecord.studio/app/m/uEqAgInBVJo#t1162" class="bs-dec" data-i="0" data-t="1162.6" data-kind="decision"><circle cx="48.2" cy="44" r="7.8" fill="#191712" opacity=".9"><title>19:22 · decision: “No evidence has been found that the town&#x27;s people voted to have the 3.6 acres of their park taken as a permanent DPW…”</title></circle></a><a href="https://publicrecord.studio/app/m/uEqAgInBVJo#t1443" class="bs-dec" data-i="1" data-t="1443.1" data-kind="tension"><circle cx="59.9" cy="44" r="6.9" fill="#B23A1D" opacity=".9"><title>24:03 · pushback: “Um, I was given a transfer opportunity, but I I&#x27;m deeply concerned that the structural gaps left behind during the 2013…”</title></circle></a><a href="https://publicrecord.studio/app/m/uEqAgInBVJo#t1617" class="bs-dec" data-i="2" data-t="1617.9" data-kind="decision"><circle cx="67.1" cy="44" r="7.7" fill="#191712" opacity=".9"><title>26:57 · decision: “Okay. Okay. So, let&#x27;s move on to the next item which is our miscellaneous calendar. Uh first uh our minutes from August…”</title></circle></a><a href="https://publicrecord.studio/app/m/uEqAgInBVJo#t1644" class="bs-dec" data-i="3" data-t="1644.3" data-kind="decision"><circle cx="68.2" cy="44" r="7.3" fill="#191712" opacity=".9"><title>27:24 · decision: “No. Okay. Good. So uh I move approval of the minutes for February uh excuse me March 24, 2026 as amended. All in favor…”</title></circle></a><a href="https://publicrecord.studio/app/m/uEqAgInBVJo#t1733" class="bs-dec" data-i="4" data-t="1733" data-kind="decision"><circle cx="71.9" cy="44" r="7.3" fill="#191712" opacity=".9"><title>28:53 · decision: “Any other items people would like to take out and discuss? Okay. Okay. So then I move approval of items 3B through 3 L…”</title></circle></a><a href="https://publicrecord.studio/app/m/uEqAgInBVJo#t1773" class="bs-dec" data-i="5" data-t="1773.5" data-kind="decision"><circle cx="73.6" cy="44" r="7.3" fill="#191712" opacity=".9"><title>29:33 · decision: “I would just quickly note there are there are two donations contained in there and I just want to thank the folks who…”</title></circle></a><a href="https://publicrecord.studio/app/m/uEqAgInBVJo#t1986" class="bs-dec" data-i="6" data-t="1986.1" data-kind="decision"><circle cx="82.4" cy="44" r="7.3" fill="#191712" opacity=".9"><title>33:06 · decision: “Um as most of you know, I like to start with just a little history. In 83, the Massachusetts legislature passed a law…”</title></circle></a><a href="https://publicrecord.studio/app/m/uEqAgInBVJo#t2523" class="bs-dec" data-i="7" data-t="2523" data-kind="decision"><circle cx="104.7" cy="44" r="7.7" fill="#191712" opacity=".9"><title>42:03 · decision: “done during this process. Interestingly, a few people called looking for accessible parking spots. Gateway Arts down on…”</title></circle></a><a href="https://publicrecord.studio/app/m/uEqAgInBVJo#t3238" class="bs-dec" data-i="8" data-t="3238.1" data-kind="decision"><circle cx="134.3" cy="44" r="7.7" fill="#191712" opacity=".9"><title>53:58 · decision: “I am so as you all hopefully know by now I&#x27;m Jonathan Simpson. I&#x27;m first assistant town counsel for the town of…”</title></circle></a><a href="https://publicrecord.studio/app/m/uEqAgInBVJo#t3302" class="bs-dec" data-i="9" data-t="3302.8" data-kind="decision"><circle cx="137" cy="44" r="7.3" fill="#191712" opacity=".9"><title>55:02 · decision: “emails to um to uh to people related to the election. Um, if someone asks you for something, you can give it to them…”</title></circle></a><a href="https://publicrecord.studio/app/m/uEqAgInBVJo#t3364" class="bs-dec" data-i="10" data-t="3364.6" data-kind="decision"><circle cx="139.6" cy="44" r="7.4" fill="#191712" opacity=".9"><title>56:04 · decision: “Hold on. I I&#x27;m going to let me clarify my question because you just said something that that I believe you are taking…”</title></circle></a><a href="https://publicrecord.studio/app/m/uEqAgInBVJo#t3435" class="bs-dec" data-i="11" data-t="3435.8" data-kind="decision"><circle cx="142.5" cy="44" r="7.3" fill="#191712" opacity=".9"><title>57:15 · decision: “Thank you for the clarification. I did not I should ab I should ab did not mean to apply even for a moment that an…”</title></circle></a><a href="https://publicrecord.studio/app/m/uEqAgInBVJo#t4011" class="bs-dec" data-i="12" data-t="4011.2" data-kind="tension"><circle cx="166.4" cy="44" r="6.9" fill="#B23A1D" opacity=".9"><title>1:06:51 · pushback: “I was just going to say you know right we I think as Jonathan moves through this you&#x27;ll see right this this concept…”</title></circle></a><a href="https://publicrecord.studio/app/m/uEqAgInBVJo#t4473" class="bs-dec" data-i="13" data-t="4473.9" data-kind="tension"><circle cx="185.6" cy="44" r="6.9" fill="#B23A1D" opacity=".9"><title>1:14:33 · pushback: “But you would also have to ex um allow a group opposed to the ballot question to use town facilities in the same way.…”</title></circle></a><a href="https://publicrecord.studio/app/m/uEqAgInBVJo#t6016" class="bs-dec" data-i="14" data-t="6016.2" data-kind="tension"><circle cx="249.6" cy="44" r="6.9" fill="#B23A1D" opacity=".9"><title>1:40:16 · pushback: “It&#x27;s already in the public realm. And I just I I I&#x27;m concerned we&#x27;re we&#x27;re overreaching and having our town council try…”</title></circle></a><a href="https://publicrecord.studio/app/m/uEqAgInBVJo#t13706" class="bs-dec" data-i="15" data-t="13706.3" data-kind="tension"><circle cx="568.5" cy="44" r="6.9" fill="#B23A1D" opacity=".9"><title>3:48:26 · pushback: “Joe, do you want to talk about that? Uh, I think you did a pretty good job last time when we were concerned about that.”</title></circle></a><a href="https://publicrecord.studio/app/m/uEqAgInBVJo#t13861" class="bs-dec" data-i="16" data-t="13861.6" data-kind="tension"><circle cx="575" cy="44" r="6.9" fill="#B23A1D" opacity=".9"><title>3:51:01 · pushback: “There&#x27;s a diversity of opinion out there. If you are opposed to this question, please reach out, contact town council.…”</title></circle></a><a href="https://publicrecord.studio/app/m/uEqAgInBVJo#t16287" class="bs-dec" data-i="17" data-t="16287.8" data-kind="tension"><circle cx="675.6" cy="44" r="6.9" fill="#B23A1D" opacity=".9"><title>4:31:27 · pushback: “We had it after we submitted it this as a warrant article. Um so this did not make it to the version that is in the…”</title></circle></a><a href="https://publicrecord.studio/app/m/uEqAgInBVJo#t17165" class="bs-dec" data-i="18" data-t="17165.3" data-kind="tension"><circle cx="712" cy="44" r="6.9" fill="#B23A1D" opacity=".9"><title>4:46:05 · pushback: “Um, and I&#x27;m a little concerned about the precedent of saying this is a group of people who aren&#x27;t allowed in the…”</title></circle></a><g class="bs-playhead"><line x1="48" y1="32" x2="48" y2="150" stroke="#B23A1D" stroke-width="2"/><text x="48" y="164" font-size="11" fill="#B23A1D" text-anchor="middle" style="font-family:var(--font-mono)">19:22</text></g><text x="0" y="166" font-size="10" fill="#6F6A5B" text-anchor="start" style="font-family:var(--font-mono)">0:00</text><text x="74.7" y="166" font-size="10" fill="#6F6A5B" text-anchor="middle" style="font-family:var(--font-mono)">30:00</text><text x="149.3" y="166" font-size="10" fill="#6F6A5B" text-anchor="middle" style="font-family:var(--font-mono)">1:00:00</text><text x="224" y="166" font-size="10" fill="#6F6A5B" text-anchor="middle" style="font-family:var(--font-mono)">1:30:00</text><text x="298.7" y="166" font-size="10" fill="#6F6A5B" text-anchor="middle" style="font-family:var(--font-mono)">2:00:00</text><text x="373.3" y="166" font-size="10" fill="#6F6A5B" text-anchor="middle" style="font-family:var(--font-mono)">2:30:00</text><text x="448" y="166" font-size="10" fill="#6F6A5B" text-anchor="middle" style="font-family:var(--font-mono)">3:00:00</text><text x="522.6" y="166" font-size="10" fill="#6F6A5B" text-anchor="middle" style="font-family:var(--font-mono)">3:30:00</text><text x="597.3" y="166" font-size="10" fill="#6F6A5B" text-anchor="middle" style="font-family:var(--font-mono)">4:00:00</text><text x="672" y="166" font-size="10" fill="#6F6A5B" text-anchor="middle" style="font-family:var(--font-mono)">4:30:00</text><text x="746.6" y="166" font-size="10" fill="#6F6A5B" text-anchor="middle" style="font-family:var(--font-mono)">5:00:00</text><text x="821.3" y="166" font-size="10" fill="#6F6A5B" text-anchor="middle" style="font-family:var(--font-mono)">5:30:00</text></svg><text x="16" y="236" font-size="10" fill="#475569">a dot is a decision, sized by its weight; rust, pushback · a tick above, a question · $ a dollar figure · the eight lanes: where each lens’s words fell</text><text x="16" y="250" font-size="10" fill="#475569">https://publicrecord.studio/app/m/uEqAgInBVJo</text><text x="16" y="264" font-size="10" fill="#475569">counted from the record’s transcripts, no model · the record of 2026-09-22 · CC BY-SA 4.0</text></svg>
