<?xml version="1.0" encoding="UTF-8"?>
<svg xmlns="http://www.w3.org/2000/svg" width="953" height="276" viewBox="0 0 953 276" font-family="IBM Plex Mono, Menlo, Consolas, monospace"><title>The shape of the tape — Boston Licensing Board Transactional Hearing 9/23/26</title><rect width="953" height="276" fill="#ffffff"/><text x="16" y="26" font-size="13" font-weight="700" fill="#0f172a">The shape of the tape — Boston Licensing Board Transactional Hearing 9/23/26</text><svg x="36" y="44" width="880" height="168" viewBox="-100 0 990 168"><rect x="0" y="56" width="880" height="90" fill="#F3EEE3" rx="4"/><rect x="-6" y="57" width="4" height="7" fill="#A97A16"/><text x="-12" y="64" font-size="9" fill="#4B473E" text-anchor="end" style="font-family:var(--font-mono)">financial</text><path class="bs-lane" data-lens="financial" d="M220,56h14.1v9h-14.1zM396,60.5h14.1v4.5h-14.1zM498.7,60.5h14.1v4.5h-14.1z" fill="#A97A16" opacity=".55"><title>financial — 4 words, where they fell along the tape</title></path><rect x="-6" y="68" width="4" height="7" fill="#B0542D"/><text x="-12" y="75" font-size="9" fill="#4B473E" text-anchor="end" style="font-family:var(--font-mono)">safety</text><path class="bs-lane" data-lens="safety" d="M29.3,71.5h14.1v4.5h-14.1zM58.7,71.5h14.1v4.5h-14.1zM117.3,71.5h14.1v4.5h-14.1zM161.3,71.5h14.1v4.5h-14.1zM308,67h14.1v9h-14.1zM352,71.5h14.1v4.5h-14.1zM704,71.5h14.1v4.5h-14.1z" fill="#B0542D" opacity=".55"><title>safety — 8 words, where they fell along the tape</title></path><rect x="-6" y="79" width="4" height="7" fill="#3FA9D0"/><text x="-12" y="86" font-size="9" fill="#4B473E" text-anchor="end" style="font-family:var(--font-mono)">community</text><path class="bs-lane" data-lens="community" d="M29.3,85h14.1v2h-14.1zM44,80.7h14.1v6.3h-14.1zM58.7,83.4h14.1v3.6h-14.1zM73.3,84.3h14.1v2.7h-14.1zM88,85h14.1v2h-14.1zM102.7,85h14.1v2h-14.1zM132,85h14.1v2h-14.1zM161.3,85h14.1v2h-14.1zM176,85h14.1v2h-14.1zM190.7,85h14.1v2h-14.1zM205.3,85h14.1v2h-14.1zM249.3,85h14.1v2h-14.1zM308,85h14.1v2h-14.1zM337.3,85h14.1v2h-14.1zM366.7,84.3h14.1v2.7h-14.1zM381.3,84.3h14.1v2.7h-14.1zM396,84.3h14.1v2.7h-14.1zM410.7,83.4h14.1v3.6h-14.1zM425.3,80.7h14.1v6.3h-14.1zM440,84.3h14.1v2.7h-14.1zM469.3,83.4h14.1v3.6h-14.1zM484,83.4h14.1v3.6h-14.1zM498.7,80.7h14.1v6.3h-14.1zM513.3,84.3h14.1v2.7h-14.1zM528,85h14.1v2h-14.1zM542.7,84.3h14.1v2.7h-14.1zM557.3,84.3h14.1v2.7h-14.1zM572,85h14.1v2h-14.1zM586.7,85h14.1v2h-14.1zM601.3,85h14.1v2h-14.1zM630.7,85h14.1v2h-14.1zM645.3,82.5h14.1v4.5h-14.1zM660,81.6h14.1v5.4h-14.1zM674.7,84.3h14.1v2.7h-14.1zM689.3,85h14.1v2h-14.1zM718.7,85h14.1v2h-14.1zM733.3,85h14.1v2h-14.1zM748,83.4h14.1v3.6h-14.1zM762.7,83.4h14.1v3.6h-14.1zM777.3,85h14.1v2h-14.1zM792,78h14.1v9h-14.1zM806.7,81.6h14.1v5.4h-14.1zM821.3,85h14.1v2h-14.1zM836,83.4h14.1v3.6h-14.1zM850.7,80.7h14.1v6.3h-14.1z" fill="#3FA9D0" opacity=".55"><title>community — 137 words, where they fell along the tape</title></path><rect x="-6" y="90" width="4" height="7" fill="#1E7F63"/><text x="-12" y="97" font-size="9" fill="#4B473E" text-anchor="end" style="font-family:var(--font-mono)">environmental</text><path class="bs-lane" data-lens="environmental" d="M234.7,93.5h14.1v4.5h-14.1zM264,93.5h14.1v4.5h-14.1zM278.7,93.5h14.1v4.5h-14.1zM293.3,93.5h14.1v4.5h-14.1zM322.7,93.5h14.1v4.5h-14.1zM352,93.5h14.1v4.5h-14.1zM484,93.5h14.1v4.5h-14.1zM616,93.5h14.1v4.5h-14.1zM718.7,93.5h14.1v4.5h-14.1zM777.3,93.5h14.1v4.5h-14.1zM792,93.5h14.1v4.5h-14.1zM821.3,89h14.1v9h-14.1zM836,93.5h14.1v4.5h-14.1z" fill="#1E7F63" opacity=".55"><title>environmental — 14 words, where they fell along the tape</title></path><rect x="-6" y="101" width="4" height="7" fill="#7E5B8E"/><text x="-12" y="108" font-size="9" fill="#4B473E" text-anchor="end" style="font-family:var(--font-mono)">legal</text><path class="bs-lane" data-lens="legal" d="M132,105.4h14.1v3.6h-14.1zM146.7,103.6h14.1v5.4h-14.1zM161.3,101.8h14.1v7.2h-14.1zM176,101.8h14.1v7.2h-14.1zM190.7,107h14.1v2h-14.1zM205.3,107h14.1v2h-14.1zM234.7,103.6h14.1v5.4h-14.1zM249.3,101.8h14.1v7.2h-14.1zM264,100h14.1v9h-14.1zM278.7,105.4h14.1v3.6h-14.1zM293.3,107h14.1v2h-14.1zM308,103.6h14.1v5.4h-14.1zM322.7,101.8h14.1v7.2h-14.1zM337.3,103.6h14.1v5.4h-14.1zM352,103.6h14.1v5.4h-14.1zM425.3,105.4h14.1v3.6h-14.1zM454.7,105.4h14.1v3.6h-14.1zM469.3,103.6h14.1v5.4h-14.1zM484,103.6h14.1v5.4h-14.1zM542.7,101.8h14.1v7.2h-14.1zM557.3,101.8h14.1v7.2h-14.1zM572,105.4h14.1v3.6h-14.1zM586.7,107h14.1v2h-14.1zM601.3,107h14.1v2h-14.1zM616,101.8h14.1v7.2h-14.1zM630.7,107h14.1v2h-14.1zM689.3,103.6h14.1v5.4h-14.1zM704,105.4h14.1v3.6h-14.1zM718.7,101.8h14.1v7.2h-14.1zM748,107h14.1v2h-14.1zM777.3,101.8h14.1v7.2h-14.1zM792,107h14.1v2h-14.1zM821.3,105.4h14.1v3.6h-14.1zM850.7,107h14.1v2h-14.1z" fill="#7E5B8E" opacity=".55"><title>legal — 88 words, where they fell along the tape</title></path><rect x="-6" y="112" width="4" height="7" fill="#C77BA6"/><text x="-12" y="119" font-size="9" fill="#4B473E" text-anchor="end" style="font-family:var(--font-mono)">equity</text><path class="bs-lane" data-lens="equity" d="M220,111h14.1v9h-14.1zM718.7,115.5h14.1v4.5h-14.1zM777.3,115.5h14.1v4.5h-14.1z" fill="#C77BA6" opacity=".55"><title>equity — 4 words, where they fell along the tape</title></path><rect x="-6" y="123" width="4" height="7" fill="#B08968"/><text x="-12" y="130" font-size="9" fill="#4B473E" text-anchor="end" style="font-family:var(--font-mono)">infrastructure</text><path class="bs-lane" data-lens="infrastructure" d="M14.7,128.8h14.1v2.3h-14.1zM44,126.5h14.1v4.5h-14.1zM146.7,126.5h14.1v4.5h-14.1zM161.3,128.8h14.1v2.3h-14.1zM176,128.8h14.1v2.3h-14.1zM205.3,128.8h14.1v2.3h-14.1zM220,128.8h14.1v2.3h-14.1zM234.7,128.8h14.1v2.3h-14.1zM264,128.8h14.1v2.3h-14.1zM278.7,128.8h14.1v2.3h-14.1zM308,128.8h14.1v2.3h-14.1zM352,126.5h14.1v4.5h-14.1zM381.3,128.8h14.1v2.3h-14.1zM396,122h14.1v9h-14.1zM454.7,128.8h14.1v2.3h-14.1zM469.3,128.8h14.1v2.3h-14.1zM557.3,128.8h14.1v2.3h-14.1zM572,128.8h14.1v2.3h-14.1zM616,128.8h14.1v2.3h-14.1zM660,126.5h14.1v4.5h-14.1zM674.7,128.8h14.1v2.3h-14.1zM704,122h14.1v9h-14.1zM718.7,128.8h14.1v2.3h-14.1zM762.7,128.8h14.1v2.3h-14.1zM792,128.8h14.1v2.3h-14.1zM806.7,128.8h14.1v2.3h-14.1z" fill="#B08968" opacity=".55"><title>infrastructure — 36 words, where they fell along the tape</title></path><rect x="-6" y="134" width="4" height="7" fill="#7E7D75"/><text x="-12" y="141" font-size="9" fill="#4B473E" text-anchor="end" style="font-family:var(--font-mono)">process</text><path class="bs-lane" data-lens="process" d="M0,133h14.1v9h-14.1zM14.7,136.6h14.1v5.4h-14.1zM88,140h14.1v2h-14.1zM132,140h14.1v2h-14.1zM176,140h14.1v2h-14.1zM190.7,140h14.1v2h-14.1zM454.7,136.6h14.1v5.4h-14.1zM645.3,140h14.1v2h-14.1zM674.7,140h14.1v2h-14.1zM850.7,140h14.1v2h-14.1zM865.3,138.4h14.1v3.6h-14.1z" fill="#7E7D75" opacity=".55"><title>process — 20 words, where they fell along the tape</title></path><a href="https://publicrecord.studio/app/m/YSmrIu-rAmA#t84" class="bs-tick" data-t="84.4" data-lens="process" data-text="Good morning. This is a hearing before"><rect x="10.1" y="133" width="3" height="9" fill="#7E7D75"><title>1:24 · process: “Good morning. This is a hearing before”</title></rect></a><a href="https://publicrecord.studio/app/m/YSmrIu-rAmA#t89" class="bs-tick" data-t="89.2" data-lens="process" data-text="23rd, 2026. Today&#x27;s hearing is being"><rect x="10.8" y="133" width="3" height="9" fill="#7E7D75"><title>1:29 · process: “23rd, 2026. Today&#x27;s hearing is being”</title></rect></a><a href="https://publicrecord.studio/app/m/YSmrIu-rAmA#t92" class="bs-tick" data-t="92" data-lens="process" data-text="held pursuant to temporary amendments to"><rect x="11.2" y="133" width="3" height="9" fill="#7E7D75"><title>1:32 · process: “held pursuant to temporary amendments to”</title></rect></a><a href="https://publicrecord.studio/app/m/YSmrIu-rAmA#t97" class="bs-tick" data-t="97.4" data-lens="process" data-text="hearing is being recorded and will be"><rect x="11.9" y="133" width="3" height="9" fill="#7E7D75"><title>1:37 · process: “hearing is being recorded and will be”</title></rect></a><a href="https://publicrecord.studio/app/m/YSmrIu-rAmA#t101" class="bs-tick" data-t="101.1" data-lens="process" data-text="Before I review procedural matters, I"><rect x="12.4" y="133" width="3" height="9" fill="#7E7D75"><title>1:41 · process: “Before I review procedural matters, I”</title></rect></a><a href="https://publicrecord.studio/app/m/YSmrIu-rAmA#t160" class="bs-tick" data-t="160.3" data-lens="infrastructure" data-text="Tremont Street in Mission Hill. That"><rect x="20.6" y="122" width="3" height="9" fill="#B08968"><title>2:40 · infrastructure: “Tremont Street in Mission Hill. That”</title></rect></a><a href="https://publicrecord.studio/app/m/YSmrIu-rAmA#t164" class="bs-tick" data-t="164.7" data-lens="process" data-text="28th transactional hearing. If there is"><rect x="21.2" y="133" width="3" height="9" fill="#7E7D75"><title>2:44 · process: “28th transactional hearing. If there is”</title></rect></a><a href="https://publicrecord.studio/app/m/YSmrIu-rAmA#t251" class="bs-tick" data-t="251.1" data-lens="safety" data-text="safety, customer service and maintain"><rect x="33.1" y="67" width="3" height="9" fill="#B0542D"><title>4:11 · safety: “safety, customer service and maintain”</title></rect></a><a href="https://publicrecord.studio/app/m/YSmrIu-rAmA#t264" class="bs-tick" data-t="264.9" data-lens="community" data-text="the neighborhood and provide another"><rect x="35" y="78" width="3" height="9" fill="#3FA9D0"><title>4:24 · community: “the neighborhood and provide another”</title></rect></a><a href="https://publicrecord.studio/app/m/YSmrIu-rAmA#t268" class="bs-tick" data-t="268.6" data-lens="community" data-text="resident and visitor. So I approximate"><rect x="35.5" y="78" width="3" height="9" fill="#3FA9D0"><title>4:28 · community: “resident and visitor. So I approximate”</title></rect></a><a href="https://publicrecord.studio/app/m/YSmrIu-rAmA#t326" class="bs-tick" data-t="326.6" data-lens="community" data-text="neighborhood services. Uh, at this time,"><rect x="43.5" y="78" width="3" height="9" fill="#3FA9D0"><title>5:26 · community: “neighborhood services. Uh, at this time,”</title></rect></a><a href="https://publicrecord.studio/app/m/YSmrIu-rAmA#t331" class="bs-tick" data-t="331.8" data-lens="community" data-text="full community process. Uh, previously,"><rect x="44.2" y="78" width="3" height="9" fill="#3FA9D0"><title>5:31 · community: “full community process. Uh, previously,”</title></rect></a><a href="https://publicrecord.studio/app/m/YSmrIu-rAmA#t339" class="bs-tick" data-t="339" data-lens="community" data-text="community process with no concerns. Uh,"><rect x="45.2" y="78" width="3" height="9" fill="#3FA9D0"><title>5:39 · community: “community process with no concerns. Uh,”</title></rect></a><a href="https://publicrecord.studio/app/m/YSmrIu-rAmA#t361" class="bs-tick" data-t="361.4" data-lens="community" data-text="Haboui Family Inc. doing business as Mia"><rect x="48.3" y="78" width="3" height="9" fill="#3FA9D0"><title>6:01 · community: “Haboui Family Inc. doing business as Mia”</title></rect></a><a href="https://publicrecord.studio/app/m/YSmrIu-rAmA#t378" class="bs-tick" data-t="378.1" data-lens="infrastructure" data-text="juice bar offering light street food"><rect x="50.5" y="122" width="3" height="9" fill="#B08968"><title>6:18 · infrastructure: “juice bar offering light street food”</title></rect></a><a href="https://publicrecord.studio/app/m/YSmrIu-rAmA#t404" class="bs-tick" data-t="404.3" data-lens="infrastructure" data-text="street in indester not bord. Okay. So um"><rect x="54.2" y="122" width="3" height="9" fill="#B08968"><title>6:44 · infrastructure: “street in indester not bord. Okay. So um”</title></rect></a><a href="https://publicrecord.studio/app/m/YSmrIu-rAmA#t494" class="bs-tick" data-t="494" data-lens="safety" data-text="cleanliness, food safety, responsible"><rect x="66.5" y="67" width="3" height="9" fill="#B0542D"><title>8:14 · safety: “cleanliness, food safety, responsible”</title></rect></a><a href="https://publicrecord.studio/app/m/YSmrIu-rAmA#t902" class="bs-tick" data-t="902.4" data-lens="safety" data-text="Um, and I&#x27;m Is it safe to assume you"><rect x="122.7" y="67" width="3" height="9" fill="#B0542D"><title>15:02 · safety: “Um, and I&#x27;m Is it safe to assume you”</title></rect></a><a href="https://publicrecord.studio/app/m/YSmrIu-rAmA#t1007" class="bs-tick" data-t="1007.6" data-lens="legal" data-text="Good morning. I&#x27;m attorney Marggo Gillis"><rect x="137.2" y="100" width="3" height="9" fill="#7E5B8E"><title>16:47 · legal: “Good morning. I&#x27;m attorney Marggo Gillis”</title></rect></a><a href="https://publicrecord.studio/app/m/YSmrIu-rAmA#t1054" class="bs-tick" data-t="1054.1" data-lens="legal" data-text="Uh, thank you, Attorney Gillis. Thank"><rect x="143.6" y="100" width="3" height="9" fill="#7E5B8E"><title>17:34 · legal: “Uh, thank you, Attorney Gillis. Thank”</title></rect></a><a href="https://publicrecord.studio/app/m/YSmrIu-rAmA#t1072" class="bs-tick" data-t="1072.8" data-lens="legal" data-text="Calling item number seven, LSF Legal"><rect x="146.2" y="100" width="3" height="9" fill="#7E5B8E"><title>17:52 · legal: “Calling item number seven, LSF Legal”</title></rect></a><a href="https://publicrecord.studio/app/m/YSmrIu-rAmA#t1074" class="bs-tick" data-t="1074.6" data-lens="legal" data-text="Crossing LLC doing business as legal"><rect x="146.4" y="100" width="3" height="9" fill="#7E5B8E"><title>17:54 · legal: “Crossing LLC doing business as legal”</title></rect></a><a href="https://publicrecord.studio/app/m/YSmrIu-rAmA#t1076" class="bs-tick" data-t="1076.5" data-lens="infrastructure" data-text="seafoods at 558 Washington Street."><rect x="146.7" y="122" width="3" height="9" fill="#B08968"><title>17:56 · infrastructure: “seafoods at 558 Washington Street.”</title></rect></a><a href="https://publicrecord.studio/app/m/YSmrIu-rAmA#t1106" class="bs-tick" data-t="1106.6" data-lens="legal" data-text="regulations"><rect x="150.8" y="100" width="3" height="9" fill="#7E5B8E"><title>18:26 · legal: “regulations”</title></rect></a><a href="https://publicrecord.studio/app/m/YSmrIu-rAmA#t1165" class="bs-tick" data-t="1165" data-lens="infrastructure" data-text="Blossom Street. Holder of an inholder"><rect x="158.9" y="122" width="3" height="9" fill="#B08968"><title>19:25 · infrastructure: “Blossom Street. Holder of an inholder”</title></rect></a><a href="https://publicrecord.studio/app/m/YSmrIu-rAmA#t1197" class="bs-tick" data-t="1197.4" data-lens="safety" data-text="safe sale and service of alcohol, and he"><rect x="163.3" y="67" width="3" height="9" fill="#B0542D"><title>19:57 · safety: “safe sale and service of alcohol, and he”</title></rect></a><a href="https://publicrecord.studio/app/m/YSmrIu-rAmA#t1239" class="bs-tick" data-t="1239" data-lens="infrastructure" data-text="located at 761 Boilson Street, holder of"><rect x="169.1" y="122" width="3" height="9" fill="#B08968"><title>20:39 · infrastructure: “located at 761 Boilson Street, holder of”</title></rect></a><a href="https://publicrecord.studio/app/m/YSmrIu-rAmA#t1631" class="bs-tick" data-t="1631.3" data-lens="financial" data-text="loan and these funds are being put"><rect x="223.1" y="56" width="3" height="9" fill="#A97A16"><title>27:11 · financial: “loan and these funds are being put”</title></rect></a><a href="https://publicrecord.studio/app/m/YSmrIu-rAmA#t1635" class="bs-tick" data-t="1635.6" data-lens="equity" data-text="lender has no ownership or equity uh in"><rect x="223.7" y="111" width="3" height="9" fill="#C77BA6"><title>27:15 · equity: “lender has no ownership or equity uh in”</title></rect></a><a href="https://publicrecord.studio/app/m/YSmrIu-rAmA#t1693" class="bs-tick" data-t="1693" data-lens="equity" data-text="equity funds managed by Sycamore"><rect x="231.6" y="111" width="3" height="9" fill="#C77BA6"><title>28:13 · equity: “equity funds managed by Sycamore”</title></rect></a><a href="https://publicrecord.studio/app/m/YSmrIu-rAmA#t1693" class="bs-tick" data-t="1693" data-lens="financial" data-text="equity funds managed by Sycamore"><rect x="231.6" y="56" width="3" height="9" fill="#A97A16"><title>28:13 · financial: “equity funds managed by Sycamore”</title></rect></a><a href="https://publicrecord.studio/app/m/YSmrIu-rAmA#t1759" class="bs-tick" data-t="1759.8" data-lens="environmental" data-text="Uh good morning, Attorney Green. Uh"><rect x="240.8" y="89" width="3" height="9" fill="#1E7F63"><title>29:19 · environmental: “Uh good morning, Attorney Green. Uh”</title></rect></a><a href="https://publicrecord.studio/app/m/YSmrIu-rAmA#t2020" class="bs-tick" data-t="2020.3" data-lens="legal" data-text="interest attorney Adam Barnoski attorney"><rect x="276.6" y="100" width="3" height="9" fill="#7E5B8E"><title>33:40 · legal: “interest attorney Adam Barnoski attorney”</title></rect></a><a href="https://publicrecord.studio/app/m/YSmrIu-rAmA#t2023" class="bs-tick" data-t="2023.7" data-lens="environmental" data-text="thank you attorney Green Madam chair"><rect x="277.1" y="89" width="3" height="9" fill="#1E7F63"><title>33:43 · environmental: “thank you attorney Green Madam chair”</title></rect></a><a href="https://publicrecord.studio/app/m/YSmrIu-rAmA#t2127" class="bs-tick" data-t="2127.9" data-lens="environmental" data-text="Yes. Thank you, Attorney Green, Madam"><rect x="291.4" y="89" width="3" height="9" fill="#1E7F63"><title>35:27 · environmental: “Yes. Thank you, Attorney Green, Madam”</title></rect></a><a href="https://publicrecord.studio/app/m/YSmrIu-rAmA#t2168" class="bs-tick" data-t="2168.6" data-lens="environmental" data-text="Thank you attorney Green Elizabeth"><rect x="297" y="89" width="3" height="9" fill="#1E7F63"><title>36:08 · environmental: “Thank you attorney Green Elizabeth”</title></rect></a><a href="https://publicrecord.studio/app/m/YSmrIu-rAmA#t2242" class="bs-tick" data-t="2242.6" data-lens="safety" data-text="and regulations relating to the safe"><rect x="307.2" y="67" width="3" height="9" fill="#B0542D"><title>37:22 · safety: “and regulations relating to the safe”</title></rect></a><a href="https://publicrecord.studio/app/m/YSmrIu-rAmA#t2267" class="bs-tick" data-t="2267.7" data-lens="safety" data-text="um relating to the um safe sale and"><rect x="310.7" y="67" width="3" height="9" fill="#B0542D"><title>37:47 · safety: “um relating to the um safe sale and”</title></rect></a><a href="https://publicrecord.studio/app/m/YSmrIu-rAmA#t2378" class="bs-tick" data-t="2378.6" data-lens="environmental" data-text="Good morning, Attorney Green, Madame"><rect x="325.9" y="89" width="3" height="9" fill="#1E7F63"><title>39:38 · environmental: “Good morning, Attorney Green, Madame”</title></rect></a><a href="https://publicrecord.studio/app/m/YSmrIu-rAmA#t2638" class="bs-tick" data-t="2638" data-lens="environmental" data-text="Yes. Good morning, Attorney Green, Madam"><rect x="361.7" y="89" width="3" height="9" fill="#1E7F63"><title>43:58 · environmental: “Yes. Good morning, Attorney Green, Madam”</title></rect></a><a href="https://publicrecord.studio/app/m/YSmrIu-rAmA#t2882" class="bs-tick" data-t="2882.5" data-lens="financial" data-text="for Garo, especially with their revenue,"><rect x="395.3" y="56" width="3" height="9" fill="#A97A16"><title>48:02 · financial: “for Garo, especially with their revenue,”</title></rect></a><a href="https://publicrecord.studio/app/m/YSmrIu-rAmA#t3718" class="bs-tick" data-t="3718.6" data-lens="financial" data-text="Granting this requested extension would"><rect x="510.4" y="56" width="3" height="9" fill="#A97A16"><title>1:01:58 · financial: “Granting this requested extension would”</title></rect></a><a href="https://publicrecord.studio/app/m/YSmrIu-rAmA#t5326" class="bs-tick" data-t="5326.9" data-lens="equity" data-text="woman-owned and inclusive hospitality"><rect x="731.8" y="111" width="3" height="9" fill="#C77BA6"><title>1:28:46 · equity: “woman-owned and inclusive hospitality”</title></rect></a><a href="https://publicrecord.studio/app/m/YSmrIu-rAmA#t5667" class="bs-tick" data-t="5667" data-lens="equity" data-text="behind the restaurant bar, accessible to"><rect x="778.6" y="111" width="3" height="9" fill="#C77BA6"><title>1:34:27 · equity: “behind the restaurant bar, accessible to”</title></rect></a><a href="https://publicrecord.studio/app/m/YSmrIu-rAmA#t208" class="bs-q" data-t="208.2"><line x1="28.7" y1="14" x2="28.7" y2="21" stroke="#6F6A5B" stroke-width="1"/><title>3:28 · a question: “on behalf of the applicant?”</title></a><a href="https://publicrecord.studio/app/m/YSmrIu-rAmA#t321" class="bs-q" data-t="321.9"><line x1="44.3" y1="14" x2="44.3" y2="21" stroke="#6F6A5B" stroke-width="1"/><title>5:21 · a question: “their representatives?”</title></a><a href="https://publicrecord.studio/app/m/YSmrIu-rAmA#t352" class="bs-q" data-t="352.2"><line x1="48.5" y1="14" x2="48.5" y2="21" stroke="#6F6A5B" stroke-width="1"/><title>5:52 · a question: “this matter?”</title></a><a href="https://publicrecord.studio/app/m/YSmrIu-rAmA#t525" class="bs-q" data-t="525.7"><line x1="72.4" y1="14" x2="72.4" y2="21" stroke="#6F6A5B" stroke-width="1"/><title>8:45 · a question: “on a regular basis?”</title></a><a href="https://publicrecord.studio/app/m/YSmrIu-rAmA#t530" class="bs-q" data-t="530.9"><line x1="73.1" y1="14" x2="73.1" y2="21" stroke="#6F6A5B" stroke-width="1"/><title>8:50 · a question: “any questions?”</title></a><a href="https://publicrecord.studio/app/m/YSmrIu-rAmA#t539" class="bs-q" data-t="539.4"><line x1="74.3" y1="14" x2="74.3" y2="21" stroke="#6F6A5B" stroke-width="1"/><title>8:59 · a question: “their representatives?”</title></a><a href="https://publicrecord.studio/app/m/YSmrIu-rAmA#t568" class="bs-q" data-t="568.4"><line x1="78.2" y1="14" x2="78.2" y2="21" stroke="#6F6A5B" stroke-width="1"/><title>9:28 · a question: “this matter?”</title></a><a href="https://publicrecord.studio/app/m/YSmrIu-rAmA#t656" class="bs-q" data-t="656.5"><line x1="90.4" y1="14" x2="90.4" y2="21" stroke="#6F6A5B" stroke-width="1"/><title>10:56 · a question: “working there?”</title></a><a href="https://publicrecord.studio/app/m/YSmrIu-rAmA#t691" class="bs-q" data-t="691"><line x1="95.1" y1="14" x2="95.1" y2="21" stroke="#6F6A5B" stroke-width="1"/><title>11:31 · a question: “would like to testify on this matter?”</title></a><a href="https://publicrecord.studio/app/m/YSmrIu-rAmA#t693" class="bs-q" data-t="693.3"><line x1="95.4" y1="14" x2="95.4" y2="21" stroke="#6F6A5B" stroke-width="1"/><title>11:33 · a question: “their representatives?”</title></a><a href="https://publicrecord.studio/app/m/YSmrIu-rAmA#t697" class="bs-q" data-t="697.6"><line x1="96" y1="14" x2="96" y2="21" stroke="#6F6A5B" stroke-width="1"/><title>11:37 · a question: “would like to testify on this matter?”</title></a><a href="https://publicrecord.studio/app/m/YSmrIu-rAmA#t871" class="bs-q" data-t="871"><line x1="119.9" y1="14" x2="119.9" y2="21" stroke="#6F6A5B" stroke-width="1"/><title>14:31 · a question: “do they is it like a keyless entry?”</title></a><a href="https://publicrecord.studio/app/m/YSmrIu-rAmA#t907" class="bs-q" data-t="907.8"><line x1="125" y1="14" x2="125" y2="21" stroke="#6F6A5B" stroke-width="1"/><title>15:07 · a question: “entrances and exits?”</title></a><a href="https://publicrecord.studio/app/m/YSmrIu-rAmA#t946" class="bs-q" data-t="946.8"><line x1="130.3" y1="14" x2="130.3" y2="21" stroke="#6F6A5B" stroke-width="1"/><title>15:46 · a question: “to testify on this matter?”</title></a><a href="https://publicrecord.studio/app/m/YSmrIu-rAmA#t949" class="bs-q" data-t="949"><line x1="130.6" y1="14" x2="130.6" y2="21" stroke="#6F6A5B" stroke-width="1"/><title>15:49 · a question: “representatives?”</title></a><a href="https://publicrecord.studio/app/m/YSmrIu-rAmA#t952" class="bs-q" data-t="952.6"><line x1="131.1" y1="14" x2="131.1" y2="21" stroke="#6F6A5B" stroke-width="1"/><title>15:52 · a question: “would like to testify?”</title></a><a href="https://publicrecord.studio/app/m/YSmrIu-rAmA#t975" class="bs-q" data-t="975.8"><line x1="134.3" y1="14" x2="134.3" y2="21" stroke="#6F6A5B" stroke-width="1"/><title>16:15 · a question: “present on behalf of the applicant?”</title></a><a href="https://publicrecord.studio/app/m/YSmrIu-rAmA#t1067" class="bs-q" data-t="1067.1"><line x1="146.9" y1="14" x2="146.9" y2="21" stroke="#6F6A5B" stroke-width="1"/><title>17:47 · a question: “this matter?”</title></a><a href="https://publicrecord.studio/app/m/YSmrIu-rAmA#t1120" class="bs-q" data-t="1120.5"><line x1="154.2" y1="14" x2="154.2" y2="21" stroke="#6F6A5B" stroke-width="1"/><title>18:40 · a question: “you have work authorization?”</title></a><a href="https://publicrecord.studio/app/m/YSmrIu-rAmA#t1123" class="bs-q" data-t="1123.3"><line x1="154.6" y1="14" x2="154.6" y2="21" stroke="#6F6A5B" stroke-width="1"/><title>18:43 · a question: “Do you live in Massachusetts?”</title></a><a href="https://publicrecord.studio/app/m/YSmrIu-rAmA#t1128" class="bs-q" data-t="1128.2"><line x1="155.3" y1="14" x2="155.3" y2="21" stroke="#6F6A5B" stroke-width="1"/><title>18:48 · a question: “and beverage industry?”</title></a><a href="https://publicrecord.studio/app/m/YSmrIu-rAmA#t1144" class="bs-q" data-t="1144.4"><line x1="157.5" y1="14" x2="157.5" y2="21" stroke="#6F6A5B" stroke-width="1"/><title>19:04 · a question: “Commissioners, do you?”</title></a><a href="https://publicrecord.studio/app/m/YSmrIu-rAmA#t1151" class="bs-q" data-t="1151.4"><line x1="158.5" y1="14" x2="158.5" y2="21" stroke="#6F6A5B" stroke-width="1"/><title>19:11 · a question: “would like to testify on this matter?”</title></a><a href="https://publicrecord.studio/app/m/YSmrIu-rAmA#t1227" class="bs-q" data-t="1227.8"><line x1="169" y1="14" x2="169" y2="21" stroke="#6F6A5B" stroke-width="1"/><title>20:27 · a question: “would like to testify on this matter?”</title></a><a href="https://publicrecord.studio/app/m/YSmrIu-rAmA#t92" class="bs-dec" data-i="0" data-t="92" data-kind="decision"><circle cx="12.7" cy="44" r="7.5" fill="#191712" opacity=".9"><title>1:32 · decision: “Good morning. This is a hearing before the licensing board for the city of Boston. Today is Wednesday, September 23rd…”</title></circle></a><a href="https://publicrecord.studio/app/m/YSmrIu-rAmA#t508" class="bs-dec" data-i="1" data-t="508.7" data-kind="decision"><circle cx="70" cy="44" r="7.5" fill="#191712" opacity=".9"><title>8:28 · decision: “experience in operating a food and beverage business and um I and understand the importance of the cleanliness, food…”</title></circle></a><a href="https://publicrecord.studio/app/m/YSmrIu-rAmA#t1027" class="bs-dec" data-i="2" data-t="1027.3" data-kind="decision"><circle cx="141.4" cy="44" r="8" fill="#191712" opacity=".9"><title>17:07 · decision: “Good morning. I&#x27;m attorney Marggo Gillis from McDermac Quilty Miller and Hanley here on behalf of the Lency BBRG…”</title></circle></a><a href="https://publicrecord.studio/app/m/YSmrIu-rAmA#t1341" class="bs-dec" data-i="3" data-t="1341.6" data-kind="decision"><circle cx="184.7" cy="44" r="8" fill="#191712" opacity=".9"><title>22:21 · decision: “U uh thank you for joining us um attorney and Mr. Montgomery. Mr. McGomery I am obviously very familiar with you. Are…”</title></circle></a><a href="https://publicrecord.studio/app/m/YSmrIu-rAmA#t1461" class="bs-dec" data-i="4" data-t="1461.8" data-kind="decision"><circle cx="201.2" cy="44" r="7.5" fill="#191712" opacity=".9"><title>24:21 · decision: “Uh, Hang is a US citizen, a resident of Boston, has 29 years of experience in the food and beverage industry, and is…”</title></circle></a><a href="https://publicrecord.studio/app/m/YSmrIu-rAmA#t1622" class="bs-dec" data-i="5" data-t="1622.2" data-kind="decision"><circle cx="223.3" cy="44" r="7.5" fill="#191712" opacity=".9"><title>27:02 · decision: “Good morning. My name is Brooke Foster of Bernoff Goodman. I am councel for 418 RE1 Appleton LLC doing business as…”</title></circle></a><a href="https://publicrecord.studio/app/m/YSmrIu-rAmA#t1802" class="bs-dec" data-i="6" data-t="1802.7" data-kind="decision"><circle cx="248.2" cy="44" r="8" fill="#191712" opacity=".9"><title>30:02 · decision: “Fenna Patel being one of them. she is selling her 20% shares to Vishnu who is uh a current owner uh under the…”</title></circle></a><a href="https://publicrecord.studio/app/m/YSmrIu-rAmA#t2611" class="bs-dec" data-i="7" data-t="2611.8" data-kind="tension"><circle cx="359.5" cy="44" r="6.8" fill="#B23A1D" opacity=".9"><title>43:31 · pushback: “Following item number 20, Pulas LLC doing business as Pulas located at 81 L Street in South Boston. Holder of a common…”</title></circle></a><a href="https://publicrecord.studio/app/m/YSmrIu-rAmA#t2653" class="bs-dec" data-i="8" data-t="2653.1" data-kind="decision"><circle cx="365.2" cy="44" r="7.5" fill="#191712" opacity=".9"><title>44:13 · decision: “Yes. Good morning, Attorney Green, Madam Chair, and commissioners. Uh, for the record, Attorney Mackle with Fletcher…”</title></circle></a><a href="https://publicrecord.studio/app/m/YSmrIu-rAmA#t2899" class="bs-dec" data-i="9" data-t="2899.7" data-kind="tension"><circle cx="399.2" cy="44" r="6.8" fill="#B23A1D" opacity=".9"><title>48:19 · pushback: “Two specific concerns were raised. The first was a noise associated with trash removal and the second was the um rear…”</title></circle></a><a href="https://publicrecord.studio/app/m/YSmrIu-rAmA#t2925" class="bs-dec" data-i="10" data-t="2925.9" data-kind="tension"><circle cx="402.8" cy="44" r="7.1" fill="#B23A1D" opacity=".9"><title>48:45 · pushback: “Um regarding the trash, the employees put the trash out in the rear of the restaurant at closing and then it&#x27;s moved to…”</title></circle></a><a href="https://publicrecord.studio/app/m/YSmrIu-rAmA#t3243" class="bs-dec" data-i="11" data-t="3243" data-kind="tension"><circle cx="446.4" cy="44" r="7.1" fill="#B23A1D" opacity=".9"><title>54:03 · pushback: “Good afternoon, everybody. My name is Michelle Vilms. I&#x27;m the director of butter from this restaurant. I&#x27;m a 30-year…”</title></circle></a><a href="https://publicrecord.studio/app/m/YSmrIu-rAmA#t4112" class="bs-dec" data-i="12" data-t="4112.8" data-kind="decision"><circle cx="566.2" cy="44" r="7.5" fill="#191712" opacity=".9"><title>1:08:32 · decision: “Mclis and Gakus. Uh with me is Parth Kumar Patel, the pro proposed manager of record. Uh today we&#x27;re seeking um a…”</title></circle></a><a href="https://publicrecord.studio/app/m/YSmrIu-rAmA#t5475" class="bs-dec" data-i="13" data-t="5475.2" data-kind="tension"><circle cx="753.7" cy="44" r="7.5" fill="#B23A1D" opacity=".9"><title>1:31:15 · pushback: “there&#x27;s nothing of its kind nearby to service the residents of the immediate area. Um they also will hire and invest…”</title></circle></a><text class="bs-ax" data-lo="0" data-hi="24.8" x="0" y="166" font-size="10" fill="#6F6A5B" text-anchor="start" style="font-family:var(--font-mono)">0:00</text><text class="bs-ax" data-lo="232.3" data-hi="263.3" x="247.8" y="166" font-size="10" fill="#6F6A5B" text-anchor="middle" style="font-family:var(--font-mono)">30:00</text><text class="bs-ax" data-lo="473.9" data-hi="517.3" x="495.6" y="166" font-size="10" fill="#6F6A5B" text-anchor="middle" style="font-family:var(--font-mono)">1:00:00</text><text class="bs-ax" data-lo="721.7" data-hi="765.1" x="743.4" y="166" font-size="10" fill="#6F6A5B" text-anchor="middle" style="font-family:var(--font-mono)">1:30:00</text><g class="bs-playhead"><line x1="141" y1="32" x2="141" y2="150" stroke="#B23A1D" stroke-width="2"/><text x="141" y="164" font-size="11" fill="#B23A1D" text-anchor="middle" style="font-family:var(--font-mono)">17:07</text></g></svg><text x="16" y="236" font-size="10" fill="#475569">a dot is a decision, sized by its weight; rust, pushback · a tick above, a question · $ a dollar figure · the eight lanes: where each lens’s words fell</text><text x="16" y="250" font-size="10" fill="#475569">https://publicrecord.studio/app/m/YSmrIu-rAmA</text><text x="16" y="264" font-size="10" fill="#475569">counted from the record’s transcripts, no model · the record of 2026-09-24 · CC BY-SA 4.0</text></svg>
